<?xml version="1.0" standalone="no"?>
<!DOCTYPE svg PUBLIC "-//W3C//DTD SVG 20010904//EN"
 "http://www.w3.org/TR/2001/REC-SVG-20010904/DTD/svg10.dtd">
<svg version="1.0" xmlns="http://www.w3.org/2000/svg"
 width="512.000000pt" height="512.000000pt" viewBox="0 0 512.000000 512.000000"
 preserveAspectRatio="xMidYMid meet">

<g transform="translate(0.000000,512.000000) scale(0.100000,-0.100000)"
fill="#000000" stroke="none">
<path d="M1720 5106 c-193 -26 -358 -70 -518 -138 -480 -206 -843 -568 -1047
-1044 -227 -529 -200 -1169 71 -1671 l45 -83 -131 -471 c-72 -260 -129 -474
-126 -476 2 -2 100 23 217 56 118 32 330 91 472 131 l257 71 73 -40 c207 -114
469 -193 731 -221 55 -6 102 -12 104 -15 2 -2 17 -43 34 -92 99 -294 313 -585
578 -785 121 -91 334 -201 477 -248 178 -57 297 -74 508 -74 157 0 209 4 303
22 154 31 303 81 434 147 l109 54 396 -109 c218 -61 398 -109 400 -107 2 2
-46 182 -106 400 l-110 396 54 109 c66 131 116 280 147 434 32 162 32 443 0
606 -33 162 -73 278 -152 437 -86 174 -190 315 -338 456 -174 167 -377 292
-599 369 l-92 32 -5 42 c-16 141 -39 284 -57 352 -161 620 -605 1116 -1205
1348 -101 39 -247 78 -379 101 -125 22 -413 28 -545 11z m443 -301 c210 -27
364 -76 558 -177 405 -208 719 -602 835 -1047 70 -268 70 -564 0 -832 -74
-284 -231 -553 -443 -761 -395 -388 -947 -553 -1485 -444 -197 40 -393 118
-552 220 -31 20 -63 36 -72 36 -9 0 -138 -34 -287 -75 -149 -41 -272 -74 -274
-72 -2 2 31 125 72 274 41 149 75 279 75 288 0 9 -14 37 -31 62 -46 67 -133
246 -168 347 -17 49 -43 146 -58 215 -23 111 -27 149 -27 321 0 164 3 213 22
309 70 347 229 641 478 882 141 135 247 211 420 297 162 82 397 150 569 165
102 9 264 6 368 -8z m1922 -1947 c125 -63 221 -134 335 -248 419 -419 518
-1040 250 -1572 -23 -45 -55 -101 -71 -124 -16 -24 -29 -49 -29 -56 0 -7 25
-103 55 -212 30 -110 53 -201 52 -203 -2 -2 -93 22 -201 52 -109 30 -205 55
-213 55 -8 0 -33 -13 -57 -29 -23 -16 -79 -48 -124 -71 -381 -192 -814 -199
-1191 -19 -151 72 -262 150 -381 269 -120 119 -196 228 -269 381 -69 145 -69
142 4 151 91 12 296 65 396 103 603 230 1052 733 1208 1353 17 67 33 145 36
174 10 82 8 81 67 57 29 -11 89 -39 133 -61z"/>
<path d="M1800 3465 l0 -755 155 0 155 0 0 755 0 755 -155 0 -155 0 0 -755z"/>
<path d="M1800 2260 l0 -150 155 0 155 0 0 150 0 150 -155 0 -155 0 0 -150z"/>
</g>
</svg>
