<svg xmlns="http://www.w3.org/2000/svg" width="416" height="464" viewBox="0 0 312 348"><path d="M112.648 346.824c-.296-.293-.535-1.62-.535-2.953 0-1.867.856-3.34 3.739-6.437 3.949-4.25 4.582-6.11 2.472-7.29-1.418-.792-4.144.31-8.136 3.293-1.266.946-3.883 1.958-5.82 2.25-1.938.29-4.372 1.196-5.411 2.012-1.531 1.203-2.102 1.313-3.004.563-.746-.621-2.695-.797-5.918-.54-2.828.227-5.12.071-5.574-.386-.426-.422-2.89-1.707-5.477-2.852-3.546-1.57-4.89-2.601-5.472-4.199-2.02-5.531-2.305-5.719-8.125-5.305-4.664.336-5.524.633-6.953 2.426-1.036 1.301-1.82 1.746-2.145 1.215-.668-1.082-10.367-1.09-11.445-.012-.594.594-1.34.48-2.707-.414-1.246-.816-3.75-1.285-7.39-1.382-4.255-.114-5.731-.446-6.49-1.461-1.652-2.211-3.679-1.61-4.667 1.386-.875 2.657-.942 2.692-4.067 2.223-3.484-.524-5.316.652-4.468 2.86.773 2.015-2.137 1.421-3.727-.762-1.168-1.598-1.23-2.047-.375-2.59.57-.36 1.422-.66 1.89-.668 1.52-.02 1.852-2.426.54-3.875-1.094-1.207-1.13-1.653-.266-3.266.551-1.027 1.195-1.87 1.434-1.87.242-.005 1.449-.84 2.687-1.864l2.25-1.86-1.8-1.414c-1.715-1.347-1.743-1.492-.563-3.18.68-.968 1.238-3.202 1.238-4.964 0-2.883.239-3.305 2.438-4.293 2.953-1.324 5.062-2.961 5.062-3.926 0-1.488-4.73-5.5-6.488-5.5-1.035 0-2.02-.559-2.3-1.309-.63-1.68-2.212-2.988-5.274-4.363-1.64-.738-2.438-1.617-2.438-2.683 0-.875-1.215-2.735-2.699-4.137-1.625-1.531-2.527-2.98-2.273-3.645.23-.609.074-2.992-.352-5.3-.64-3.457-.582-4.348.324-5.067.606-.476 1.32-1.613 1.59-2.523.395-1.332-.027-1.992-2.16-3.375-3.438-2.235-3.832-3.434-1.961-5.961 1.82-2.465 1.926-3.531.406-4.113-1.695-.653-1.355-2.2.797-3.61 2.516-1.648 3.703-1.16 3.703 1.527 0 1.872.324 2.223 2.25 2.438 3.024.344 4.125 1.39 4.125 3.922 0 2.48.29 2.719 3.719 3.066 2.36.239 2.633.059 3.059-1.992.254-1.234.859-2.988 1.343-3.894.801-1.485.727-1.614-.75-1.329-.898.172-1.879.711-2.18 1.192-.995 1.617-2.94.062-2.94-2.356 0-2.992 2.898-5.71 6.792-6.367 1.621-.273 3.14-.808 3.371-1.183.856-1.383 3.336-.73 3.336.875 0 1.125-.84 1.89-3 2.738-2.312.91-3 1.582-3 2.941 0 2.305.715 2.223 4.125-.492 1.657-1.312 3.723-2.25 4.977-2.25 1.969 0 2.148.23 2.148 2.711v2.707l2.813-.508c1.547-.281 4.07-1.332 5.61-2.332 3.234-2.113 5.558-2.304 7.91-.656 1.956 1.367 2.16 3.488.472 4.89-1.02.844-1.39.731-2.523-.769-2.02-2.676-3.293-1.258-1.508 1.676.808 1.324 1.472 3.105 1.472 3.96.004.856 1.125 2.88 2.496 4.5 1.372 1.622 3.293 4.384 4.266 6.134.973 1.753 1.961 3.187 2.191 3.187 1.278-.012 7.106-4.687 10.54-8.457 4.507-4.945 5.66-5.059 9.386-.934 1.239 1.372 3.262 3 4.5 3.622 1.239.62 4.106 3.335 6.375 6.03 2.27 2.7 4.504 4.923 4.973 4.946.465.027 2.062-1.441 3.55-3.258 2.41-2.937 3.141-3.351 6.653-3.77 7.281-.863 11.258-.847 13.895.06 2.918 1.003 7.02 4.663 9.242 8.245 3.324 5.364 18.758 13.036 27.347 13.598 4.665.309 5.766.106 9.325-1.7 5.578-2.823 8.668-2.382 15.183 2.177 5.614 3.93 8.844 4.718 9.528 2.32.578-2.02 5.738-9.984 8.199-12.648 3.254-3.528 7.437-5.782 11.594-6.247 4.046-.453 7.175-2.875 7.234-5.601.016-.723 1.45-1.938 3.398-2.879l3.375-1.633 3.75 2.754c2.067 1.516 3.743 2.98 3.727 3.254-.016.273-.508 1.344-1.098 2.371-.59 1.035-1.086 2.8-1.097 3.93-.024 1.594-.57 2.281-2.465 3.07-2.227.934-2.52 1.45-3.375 5.992-.516 2.735-.938 5.953-.938 7.153 0 1.48-.582 2.566-1.8 3.363-.993.652-2.899 2.875-4.239 4.945-2.445 3.77-6.715 6.688-11.488 7.848-2.238.547-7.973 4.734-7.973 5.828 0 1.047 3.313.695 5.075-.535.91-.64 2.082-1.09 2.601-1.004 1.871.308 5.129-1.04 6.2-2.567.62-.886 2.046-1.625 3.308-1.71 1.219-.086 2.988-.696 3.933-1.36.942-.66 2.403-1.207 3.239-1.21 1.547-.012 6.808-1.653 7.496-2.34.207-.208.738-2.993 1.183-6.184.446-3.195 1.493-7.39 2.329-9.324.835-1.934 1.636-4.098 1.78-4.805.364-1.797 7.684-10.465 10.04-11.883 3.86-2.328 12.957-5.203 16.422-5.2 2.164.005 5.066.731 7.531 1.876 4.605 2.144 6.14 2.285 8.965.816 4.64-2.418 6.64-6.449 3.195-6.449-2.289 0-3.238-1.883-2.668-5.273.461-2.72.336-3.125-1.055-3.489-.867-.226-1.574-.656-1.574-.957 0-.668 2.938-3.394 3.192-2.96.101.167.562.98 1.027 1.808.574 1.02 1.535 1.457 3 1.367 3.648-.219 5.238.39 6.137 2.363l.863 1.895 4.106-2.625c2.257-1.445 4.625-2.625 5.265-2.625.793 0 1.16-.727 1.16-2.3 0-4.055 1.188-5.321 4.739-5.06l3.136.231-.218-2.809c-.254-3.253 0-3.335 3.996-1.3 3.324 1.695 3.855 3.234 1.238 3.605-2.367.336-2.867 2.121-1.328 4.723 1.273 2.156 1.262 2.199-1.125 4.586-2.34 2.34-2.387 2.5-1.535 5.676 1.824 6.824-2.266 13.195-11.11 17.293-3.449 1.597-5.66 2.003-12.793 2.343-8.855.422-10.5.836-10.5 2.637 0 .57-1.828 3.012-4.058 5.422-4.192 4.527-6.422 5.785-17.184 9.695-6.055 2.203-11.008 5.555-11.008 7.453 0 .598.836 1.465 1.86 1.934 2.047.93 12.37-.637 19.515-2.961 5.032-1.64 14.711-1.629 19.293.023 1.95.7 4.055 1.079 4.68.84.7-.27 1.336.098 1.652.953.282.762 1.973 3.5 3.758 6.078 2.445 3.528 3.086 5.016 2.586 6-.367.723-1.062 2.997-1.547 5.06-.484 2.062-1.183 3.858-1.55 3.987-.372.133-1.579.953-2.684 1.825-1.313 1.027-3.309 1.648-5.711 1.77-2.031.1-4.192.597-4.797 1.105-.871.722-1.48.714-2.887-.04-.984-.523-3.07-.792-4.664-.601-2.242.273-3.34-.031-4.969-1.387-1.562-1.297-2.652-1.62-4.312-1.289-1.899.38-2.223.215-2.223-1.125 0-1.723-2.015-3.12-4.504-3.12-.882 0-2.129-.524-2.77-1.165-1.827-1.828-4.917-1.063-6.222 1.543-2.82 5.629-4.715 7.496-10.047 9.902-11.832 5.336-14.402 5.328-34.105-.125-2.211-.613-5.926-1.168-8.25-1.238-3.985-.117-4.399.043-7.227 2.836-1.648 1.633-3.843 3.547-4.875 4.258l-1.875 1.297 1.875 1.457c1.032.8 2.973 1.668 4.313 1.93 3.039.59 3.09 1.355.18 2.558-3.016 1.25-8.848.617-12.676-1.379l-3.094-1.613.469 1.87c.43 1.708.257 1.868-1.98 1.868-2.036 0-3.235-.82-7.114-4.871-2.95-3.086-5.266-4.875-6.297-4.875-1.543 0-1.566.094-.469 1.664.645.918 1.168 1.977 1.168 2.356 0 1.402-8.672-.231-13.125-2.473-2.476-1.246-4.726-2.274-5-2.281-.761-.028-2.875 6.156-2.675 7.828.285 2.39-2.231 2.238-4.758-.285-1.723-1.727-2.618-2.137-3.559-1.633-.691.37-3.11.87-5.375 1.113-2.922.316-4.453.89-5.277 1.984-.64.848-1.403 1.301-1.696 1.008Zm61.09-5.23c-.914-.64-3.199-2.492-5.078-4.117-3.965-3.434-6.117-4.598-10.86-5.883-4.722-1.274-7.753-.848-8.034 1.133-.18 1.265.175 1.566 1.875 1.566 3.355 0 7.703 2.5 9.765 5.617 2.29 3.457 3.512 3.73 2.832.633-.273-1.238-.215-2.246.13-2.238.339.007 2.816 1.156 5.495 2.547 4.871 2.527 7.008 2.937 3.875.742Zm-40.86-7.059c.61-5.14-.737-6.848-8.394-10.625-4.613-2.277-6.832-3.867-8.125-5.82-3.527-5.328-3.187-8.672.364-3.613 2.441 3.48 3.226 4.035 10.91 7.726 3.793 1.82 8.125 4.387 9.625 5.707 2.84 2.492 4.347 2.098 3.554-.933-.847-3.247-7.19-7.106-10.894-6.63-2.215.286-3.555-.128-3.555-1.1 0-2.259 5.742-2.65 10.563-.72 3.637 1.457 7.437 6.235 7.437 9.352 0 1.293-.906 3.144-2.351 4.785-2.79 3.18-2.395 4.098.925 2.156 2.614-1.535 3.364-2.597 4.016-5.695.379-1.805.688-1.992 2.64-1.602 2.653.532 6.255-.246 5.653-1.222-.238-.383-.934-.504-1.543-.266-.719.274-2.8-1.34-5.855-4.535-3.059-3.195-5.387-5-6.551-5.07-.996-.063-5.692-.145-10.434-.188-9.992-.086-12.933-1.16-14.683-5.351-1.48-3.54-1.34-5.22.62-7.371 2.602-2.864 4.532-3.079 7.227-.81 2.133 1.794 2.336 1.837 2.336.513 0-3.602-5.644-5.32-9.398-2.86-2.086 1.367-4.809 6.489-4.836 9.106-.035 3.539 2.484 9.285 6.36 14.488 4.976 6.688 5.355 9.45 1.843 13.555-2.621 3.07-2.75 3.781-.684 3.781 4.407 0 7.465-3.707 7.465-9.035 0-1.633.348-2.969.77-2.969 1.375 0 2.367 4.047 1.887 7.715-.254 1.973-.235 3.96.05 4.418.793 1.289 2.563-2.688 3.059-6.887Zm14.806 2.5c-1.446-1.058-2.946-.969-2.946.172 0 .367.844 1.086 1.875 1.602 2.325 1.164 3.172-.239 1.07-1.774Zm30.668-1.086c3.722-1.918 4.875-3.625 4.468-6.629-.21-1.57.028-4.086.524-5.593 1.164-3.528-.278-5.961-4.727-7.98-5.195-2.36-8.187-1.903-17.308 2.64l-8.176 4.074 3.129 1.254c2.675 1.07 3.101 1.539 2.93 3.226-.196 1.895-.051 1.977 3.507 1.977 3.203 0 3.77.227 4.125 1.652.528 2.106 5.871 6.172 8.153 6.2.953.011 2.472-.36 3.375-.82Zm-3.239-5.453c0-.574.504-1.238 1.125-1.476.766-.293 1.125.039 1.125 1.046 0 .813-.508 1.473-1.125 1.473-.62 0-1.125-.469-1.125-1.043Zm-2.25-4.535c0-1.309 1.23-2.176 2.215-1.566 1 .617.102 2.644-1.172 2.644-.574 0-1.043-.484-1.043-1.078Zm-6.347-7.129c-.727-1.172.226-2.293 1.945-2.293 1.031 0 1.434.418 1.262 1.305-.29 1.496-2.48 2.172-3.207.988Zm-61.446 13.055c5.395-2.125 10.043-5.114 10.043-6.457 0-.43-.691-1.75-1.535-2.934-.84-1.183-2.023-3.805-2.621-5.828-1.176-3.95-1.203-3.969-10.98-7.176-4.297-1.406-15.915-1.707-18.989-.488-8.445 3.348-9.683 14.113-2.402 20.906 5.215 4.863 16.937 5.738 26.484 1.977Zm-11.91-2.301c-.816-.816.168-1.797 1.809-1.797.883 0 1.386.395 1.207.938-.356 1.074-2.262 1.617-3.016.859Zm-11.46-2.61c-.645-1.042.78-2.511 1.816-1.87.859.53.308 2.683-.688 2.683-.344 0-.851-.363-1.129-.812Zm10.57-4.695c-1.493-1.09-1.02-2.738.785-2.738 1.363 0 2.261 2.098 1.304 3.05-.437.438-1.226.321-2.09-.312Zm11.738-1.804c.137-.72.746-1.309 1.355-1.309.606 0 1.219.59 1.356 1.309.18.921-.227 1.312-1.356 1.312s-1.535-.39-1.355-1.312Zm-9.395-3.688c-.808-.809-.578-1.559.625-2.02.766-.292 1.125.04 1.125 1.047 0 1.473-.804 1.922-1.75.973Zm-12.742-1.492c-.68-.676 1-2.59 1.828-2.078 1.031.64.781 2.57-.336 2.57-.55 0-1.222-.219-1.492-.492Zm147.317 17.344c4.351-1.536 9.894-5.805 11.566-8.907.781-1.449 1.266-2.73 1.074-2.851-.187-.117-1.332-.723-2.543-1.344-2.715-1.39-3.887-5.09-2.691-8.512.683-1.968.61-2.5-.477-3.293-2.652-1.941-9.258-.668-19.379 3.73-16.574 7.204-15.812 6.798-15.55 8.278.324 1.824-2.145 2.313-2.614.52-.355-1.36-.793-1.48-3.87-1.051-5.45.754-8.583 2.566-9.384 5.426-.965 3.441.075 4.175 6.414 4.535 4.36.246 5.47.078 6.024-.914.375-.668 1.547-1.219 2.61-1.219 1.605 0 1.777.188 1.023 1.094-.5.601-.707 1.418-.461 1.816.43.696 8.562 3.39 12.433 4.121 3.106.586 12.528-.265 15.825-1.43Zm-11.676-1.059c-.66-1.066.183-2.293 1.578-2.293.656 0 1.031.527.89 1.254-.292 1.504-1.789 2.137-2.468 1.039Zm-11.649-4.848c0-.683.524-.914 1.492-.664.82.215 1.305.692 1.079 1.055-.653 1.063-2.57.77-2.57-.39Zm21.899-1.343c-1.02-1.02.148-2.852 1.816-2.852 1.317 0 1.344 1.813.043 2.89-.726.602-1.226.59-1.86-.038Zm-13.348-.899c-.273-.715-.129-1.672.324-2.129.602-.597.961-.468 1.325.477.277.715.128 1.672-.325 2.129-.601.597-.96.469-1.324-.477Zm-2.957-7.25c-.273-.441-.305-.988-.078-1.219.617-.617 2.734.348 2.734 1.247 0 1.015-2.023.996-2.656-.028Zm12.063-2.148c-.239-.383-.086-.91.332-1.172.894-.55 2.261.152 2.261 1.164 0 .91-2.031.918-2.593.008Zm62.351 9.996c1.164-.867 2.227-2.3 2.356-3.188.132-.886.597-1.613 1.039-1.613 1.375 0 .14-5.586-1.93-8.715-2.473-3.734-4.961-5.191-10.602-6.215-5.164-.933-14.086.211-21.746 2.786-2.476.832-6.523 1.746-9 2.035-5.484.632-8.054 2.082-7.734 4.347.18 1.246.953 1.786 3.234 2.243 8.953 1.808 10.989 2.453 16.293 5.187 8.492 4.371 11.25 5.074 19.09 4.883 5.652-.145 7.266-.457 9-1.75Zm-4.879-3.793c.317-1.64 2.496-1.875 2.496-.266 0 .614-.62 1.235-1.383 1.38-1 .194-1.304-.11-1.113-1.114Zm-13.863-2.992c-.977-.977-.512-1.766 1.047-1.766.87 0 1.43.395 1.265.89-.367 1.098-1.617 1.571-2.312.876Zm-9.516-3.262c0-.969.38-1.5.938-1.316.515.175.937.765.937 1.316 0 .547-.422 1.137-.937 1.309-.559.187-.938-.344-.938-1.309Zm16.625-.754c.38-1.129 1.582-1.246 1.938-.187.172.515-.25.941-.938.941-.687 0-1.136-.34-1-.754Zm-24.746-1.984c.145-.754.88-1.489 1.637-1.637.988-.191 1.297.117 1.105 1.11-.144.753-.879 1.492-1.636 1.636-.989.191-1.297-.117-1.106-1.11Zm18.621-3.266c0-.41.528-.75 1.168-.75.645 0 .961.34.707.75-.254.414-.781.75-1.168.75-.39 0-.707-.336-.707-.75ZM59.238 322.965c2.887-.652 6.516-1.184 8.063-1.18 2.25.004 2.812-.273 2.812-1.398 0-.774.2-2.414.446-3.64.41-2.044.203-2.333-2.442-3.392-2.695-1.078-9.531-7.496-11.23-10.543-.965-1.726-6.2-3.558-11.637-4.07-3.676-.344-4.414-.183-5.602 1.203-.753.88-1.632 1.598-1.953 1.598-.32 0-.582-2.14-.582-4.758 0-7.058-4.687-19.098-11.586-29.762-2.675-4.136-3.773-5.164-6.71-6.289-4.352-1.66-6.594-1.152-8.84 1.996-1.372 1.922-1.735 3.415-1.727 7.051.012 4.121.324 5.067 2.914 8.828 1.906 2.766 5.156 5.864 9.473 9.036 10.207 7.488 11.898 10.664 7.125 13.363-6.617 3.738-8.442 10.906-4.047 15.91 4.219 4.805 8.101 6.5 17.031 7.43 8.05.843 8.941.773 18.492-1.383Zm-11.925-3.3c-.239-.388.039-1.095.617-1.575.62-.516 1.226-.586 1.484-.172.238.387-.039 1.094-.617 1.574-.621.516-1.227.586-1.484.172Zm-10.43-2.103c-.7-.699.148-1.773 1.398-1.773.594 0 1.082.508 1.082 1.125 0 1.133-1.582 1.543-2.48.649Zm-7.965-2.078c-.629-.761-.645-1.203-.055-1.566 1.301-.805 3.024.191 2.532 1.469-.551 1.437-1.34 1.465-2.477.097Zm30.695-.066c0-.621.504-1.129 1.125-1.129.617 0 1.125.508 1.125 1.129a1.124 1.124 0 0 1-2.25 0Zm-8.168-4.402c-.668-.805-.683-1.23-.054-1.618 1.222-.757 2.742.922 1.742 1.926-.543.54-1.059.446-1.688-.308Zm-12.324-2.278c-.473-1.226.082-1.949 1.492-1.949.551 0 1 .676 1 1.5 0 1.707-1.883 2.047-2.492.45Zm-11.758-.699c0-1.555.887-2.066 1.992-1.148 1.454 1.207 1.239 2.148-.492 2.148-.824 0-1.5-.45-1.5-1Zm20.59-4.309c-.285-.457.027-1.378.695-2.046 1.122-1.118 1.215-1.086 1.215.402 0 1.871-1.156 2.867-1.91 1.644Zm-17.59-18.37c0-.696.512-1.079 1.25-.938 1.883.367 2.14 2.117.313 2.117-.922 0-1.563-.48-1.563-1.18Zm-6.75-.239c0-.844 1.95-1.629 2.551-1.027.902.902.41 1.695-1.05 1.695-.825 0-1.5-.3-1.5-.668Zm-8.629-6.086c-.257-.414.075-.96.739-1.219 1.437-.55 2.238.059 1.547 1.176-.625 1.008-1.676 1.028-2.286.043Zm6.715-2.308c-.656-1.059.79-2.504 1.848-1.852.45.277.816.992.816 1.586 0 1.262-1.93 1.453-2.664.266Zm-9.336-7.868c0-.695.512-1.078 1.25-.937 1.883.367 2.14 2.121.313 2.121-.922 0-1.563-.488-1.563-1.184Zm6.09-2.832c-.91-1.101-.394-1.988 1.16-1.988 1.117 0 1.367 1.934.336 2.574-.367.227-1.039-.039-1.496-.586Zm3.512 56.391c.12-1.035-.297-2.313-.934-2.844-.957-.793-1.515-.726-3.18.363l-2.019 1.32 2.203 1.763c2.621 2.097 3.625 1.94 3.93-.602Zm140.398-8.129c6.617-3.094 11.309-3.793 15.301-2.277 1.469.558 2.184.437 3.16-.54 3.004-3.003 6.18-12.933 4.133-12.933-.36 0-3.312-1.797-6.562-3.992-3.25-2.2-6.54-4.227-7.317-4.516-.848-.308-3.355.262-6.305 1.446-4.3 1.718-5.644 1.914-10.968 1.578-3.336-.207-7.032-.625-8.211-.926-1.973-.5-2.106-.406-1.617 1.129.918 2.887-2.04 1.512-3.739-1.738-1.027-1.97-2.683-3.5-5.254-4.864-5.894-3.125-9.425-5.972-13.765-11.11-3.258-3.85-4.469-4.776-6.375-4.87-4.11-.2-6.746-.051-10.918.601-3.805.598-4.207.871-6.274 4.239-2.414 3.93-2.414 3.859.016 4.605 1.262.387 2.14.02 3.547-1.504 1.73-1.863 1.91-1.91 2.37-.61.716 2.013 3.38 4.81 4.138 4.34.351-.214.64-1.367.64-2.558 0-2.238 1.063-3.562 1.844-2.3.246.398.574 2.331.727 4.296.324 4.113 1.343 5.184 8.293 8.692 11.168 5.632 25.71 16.586 30.011 22.59 3.696 5.16 4.543 5.242 13.125 1.222Zm6.77-5.598c-1.418-1.71-.578-3.101.953-1.574 1.379 1.383 1.68 2.672.617 2.672-.36 0-1.066-.492-1.57-1.098Zm5.265-1.488c-1.152-1.226-1.55-2.285-1.199-3.187.473-1.211.707-1.137 2.344.754 3.148 3.64 2.094 5.878-1.145 2.433Zm-28.386-1.312c-1.016-1.016-1.207-2.852-.297-2.852.933 0 2.398 1.695 2.398 2.777 0 1.22-.922 1.254-2.101.075Zm5.902-3.528c-1.805-2.535-1.976-3.824-.512-3.824 1.203 0 3.461 3.164 3.461 4.852 0 1.793-1.25 1.359-2.949-1.028Zm26.262-.347c-1.567-2.532-2.059-4.98-1-4.97.89.009 3.937 4.829 3.937 6.227 0 2.016-1.246 1.48-2.937-1.257Zm-20.574-.786c-1.375-2.097-1.63-4.187-.508-4.187.402 0 1.273 1.05 1.937 2.336 1.547 2.984.336 4.55-1.43 1.851Zm6.77-1.043c-1.481-1.632-1.716-4.921-.321-4.46 1.578.523 3.277 4.148 2.37 5.054-.558.559-1.167.383-2.05-.594Zm4.429-3.628c-.63-1.637.207-2.399 1.09-.997.886 1.403.906 2.227.05 2.227-.367 0-.879-.55-1.14-1.23Zm-39.012-1.711c-1.582-1.75-.285-2.809 1.39-1.133 1.364 1.363 1.423 1.59.536 2.14-.36.22-1.227-.234-1.926-1.007Zm5.316-.68c-1.316-1.45-1.652-3.129-.632-3.129 1.105 0 3.933 3.078 3.488 3.797-.652 1.055-1.477.86-2.856-.668Zm-19.964-10.578c-1.09-2.035-.965-3.8.265-3.8 1.149 0 1.957 1.577 1.957 3.812 0 1.855-1.226 1.851-2.222-.012Zm5.941-.86c-.46-.855-.617-2.12-.348-2.812.438-1.133.59-1.113 1.555.203 1.223 1.66 1.434 4.168.352 4.168-.399 0-1.102-.7-1.559-1.559Zm70.582 30.368c2.64-3.575 4-4.61 9.211-7.02 4.629-2.14 7.137-3.91 10.332-7.277 6.707-7.074 9.145-13.371 6.094-15.738-1.219-.95-1.153-1.141.937-2.708 7.157-5.359 8.543-11.093 2.817-11.668-1.836-.183-2.61.231-3.957 2.122-1.465 2.062-1.551 2.578-.703 4.168.535.996.828 1.914.656 2.039-.172.129-1.235.804-2.363 1.511-1.965 1.23-2.09 1.22-2.993-.226-.707-1.133-1.75-1.512-4.156-1.512-2.73 0-3.73.477-6.691 3.188-5.055 4.632-9.004 11.18-11.172 18.53-1.04 3.524-2.957 8.497-4.266 11.044-2.332 4.554-2.347 4.664-.969 6.187 2.246 2.48 3.88 1.883 7.223-2.64Zm-.394-6.254c-.555-.899.855-1.79 1.855-1.172.84.52.29 1.867-.762 1.867-.363 0-.855-.312-1.093-.695Zm12.343-7.18c0-.617.547-1.125 1.215-1.125 1 0 1.05.207.285 1.125-.511.621-1.062 1.125-1.218 1.125-.153 0-.282-.504-.282-1.125Zm-9.64-3.617c-.684-.82-.625-1.266.246-1.992.918-.762 1.215-.7 1.61.328.675 1.754-.735 3.015-1.856 1.664Zm7.765-1.258c-.547-.883.164-2.246 1.168-2.246.39 0 .707.672.707 1.496 0 1.582-1.09 2.02-1.875.75Zm9.547-1.637c.461-1.39 2.078-1.62 2.078-.3a1.19 1.19 0 0 1-1.187 1.187c-.653 0-1.055-.398-.89-.887Zm-11.879-4.797c.25-.652.457-1.328.457-1.5 0-.171.336-.316.75-.316.41 0 .75.676.75 1.504 0 .875-.5 1.496-1.207 1.496-.789 0-1.047-.406-.75-1.184Zm7.332-2.289c.149-.77.602-1.316 1.008-1.214 1.094.277.902 1.886-.266 2.277-.66.219-.917-.152-.742-1.063Zm6.625.52c0-.387.336-.914.75-1.172.41-.254.75.066.75.707 0 .645-.34 1.168-.75 1.168-.414 0-.75-.316-.75-.703Zm-9.578-6.184c.461-1.39 2.078-1.62 2.078-.3a1.19 1.19 0 0 1-1.187 1.187c-.653 0-1.055-.398-.89-.887Zm16.098-8.906c-.254-.969.015-1.707.715-1.976 1.464-.563 2.836.855 2.261 2.347-.644 1.68-2.5 1.45-2.976-.37Zm-78.168 38.262c-3.824-3.871-9.735-8.215-11.172-8.215-.238 0-.43.695-.43 1.547 0 5.37-6.515 7.887-8.297 3.2-1.043-2.74-2.578-1.74-2.578 1.679 0 4.37 2.254 5.25 12.864 5.008 4.597-.106 9.156.125 10.125.511 3.89 1.559 3.757.594-.512-3.73Zm-67.852.219c.004-.309 1.004-1.23 2.223-2.047 1.664-1.118 2.117-1.895 1.809-3.118-.477-1.894.957-5.019 2.007-4.37.391.238.711 1.468.711 2.73v2.289l3.563-.531c4.347-.653 4.687-.844 4.687-2.684 0-.8.508-1.457 1.125-1.457s1.125.488 1.125 1.082c0 1.258.407 1.54 3.14 2.195 1.845.438 2.036.274 2.25-1.96.317-3.301 1.27-3.07 3.571.867 1.387 2.375 2.836 3.691 5.137 4.668l3.203 1.359.809-2.043c2.64-6.664 4.488-8.91 8.261-10.043 1.582-.473 2.88-1.094 2.88-1.375 0-.844-2.368-2.621-6.848-5.137-2.325-1.304-4.664-2.898-5.2-3.539-1.593-1.922-4.613-3.152-8.894-3.633-4.414-.488-5.461-1.109-7.844-4.64-4.914-7.285-8.027-10.66-10.887-11.805-1.847-.738-3.46-2.055-4.148-3.387-1.754-3.39-3.176-3.457-5.887-.285-1.32 1.543-3.543 3.817-4.945 5.051-6 5.293-7.879 7.184-6.434 6.48.98-.476 1.938-.488 2.625-.039.895.586.711 1.043-1.02 2.575-2.612 2.312-4.605 2.48-4.046.34.39-1.493.344-1.489-2.352.136-9.074 5.465-15.078 10.578-14.703 12.516 1.23 6.34 1.414 6.46 4.832 3.117 2.836-2.773 3.871-2.848 3.59-.266-.285 2.641 3.238 4.11 5.324 2.22 1.828-1.653 2.336-1.513 2.336.655 0 1.16.711 2.325 1.895 3.098 1.773 1.164 1.988 1.156 3.379-.101 2.027-1.836 2.648-.907 1.62 2.433-.765 2.5-.679 2.969.813 4.57 2.989 3.204 10.285 6.094 10.293 4.079Zm-5.449-2.883c-.715-.715.242-5.02 1.39-6.25.868-.926 1.063-.91 1.454.097.972 2.543-1.371 7.625-2.844 6.153Zm37.262-4.461c-1.52-3.64-.36-4.965 1.87-2.133 1.72 2.184 1.817 4.082.243 4.605-.543.184-1.445-.875-2.113-2.472Zm-31.082-5.715c-.008-.14-.219-2.059-.465-4.262-.41-3.64-.32-3.984.953-3.742 1.145.223 1.406.953 1.406 3.95 0 2.277-.36 3.796-.937 3.988-.516.175-.946.203-.957.066Zm8.035-.363c-.82-.817-.598-6.266.254-6.266.933 0 2.375 3.574 2.074 5.129-.246 1.273-1.555 1.914-2.328 1.137Zm7.402-1.18c-1.308-1.867-1.547-4.762-.445-5.441.879-.543 4.016 5.367 3.387 6.382-.715 1.16-1.688.848-2.942-.941Zm7.106-1.469c-1.782-2.926-1.938-4.367-.465-4.367 1.336 0 5.098 4.406 4.723 5.535-.614 1.844-2.786 1.25-4.258-1.168Zm8.281-1.16c-2.367-2.871-2.824-4.297-1.617-5.039.816-.508 6.062 5.418 6.062 6.844 0 1.86-2.14.992-4.445-1.805Zm-38.305.23c0-2.296.715-4.187 1.582-4.187.762 0 .895 3.035.211 4.816-.691 1.801-1.793 1.418-1.793-.628Zm-7.5-2.105c0-1.152 1.453-2.828 2.453-2.828.356 0 .543.754.41 1.68-.257 1.812-2.863 2.859-2.863 1.148Zm-6.195-1.789c-.629-1.016 2.043-4.3 3.184-3.922.668.227.398.973-.895 2.473-1.02 1.187-2.05 1.836-2.289 1.449Zm28.332-6c-1.238-2.965-1.008-5.121.488-4.625.485.16 1.301 1.52 1.82 3.016.782 2.254.766 2.875-.09 3.586-.827.687-1.269.293-2.218-1.977Zm-33.629 1.465c-.676-.676.938-2.508 2.207-2.508 1.274 0 1.332.906.137 2.102-1.02 1.02-1.63 1.125-2.344.406Zm27.742-.754c-.808-.809-.574-6.254.27-6.254.89 0 2.23 3.184 2.23 5.3 0 1.407-1.48 1.97-2.5.954Zm11.719-2.133c-.926-1.95-1.035-2.851-.41-3.476.621-.625 1.242-.184 2.387 1.695 1.84 3.016 1.972 4.41.418 4.41-.625 0-1.704-1.184-2.395-2.629Zm-20.469 1.156c0-2.003 2.653-6.027 3.969-6.027 1.2 0 1.356.352.93 2.063-.285 1.136-1.047 2.656-1.7 3.375-1.273 1.418-3.199 1.77-3.199.59Zm-4.5-3.285c0-1.355 2.442-3.492 3.996-3.492 1.727 0 1.57.945-.48 2.871-1.965 1.848-3.516 2.121-3.516.621Zm176.325 20.578c3.046-3 5.62-4.484 13.898-8.027 7.176-3.066 11.02-5.18 13.094-7.191 3.36-3.262 3.629-4.438 1.246-5.485-1.395-.613-1.727-1.43-1.914-4.71-.203-3.524-.457-4.063-2.25-4.759-5.239-2.035-16.176 1.41-22.332 7.04-4.325 3.953-7.125 8.992-8.946 16.097-1.894 7.406-1.91 9.242-.093 9.977 2.761 1.117 3.464.832 7.297-2.942Zm-3.075-4.945c0-.617.504-1.125 1.125-1.125a1.13 1.13 0 0 1 1.125 1.125 1.125 1.125 0 0 1-2.25 0Zm6.832-5.148c-.668-.805-.683-1.227-.054-1.618 1.222-.753 2.742.922 1.742 1.926-.543.54-1.063.446-1.688-.308Zm10.16-1.73c-.27-.274-.492-.74-.492-1.04 0-.84 2.153-1.469 2.594-.758.496.805-1.437 2.457-2.102 1.797Zm-14.742-4.368c0-.621.504-1.129 1.125-1.129.617 0 1.125.508 1.125 1.129a1.124 1.124 0 0 1-2.25 0Zm20.614-.395c-.305-.496-.09-1.187.476-1.543 1.25-.773 1.922.602.828 1.692-.5.5-.933.45-1.304-.149Zm-7.864-2.472c0-1.399 1.223-2.313 1.817-1.356.226.371-.086 1.094-.7 1.602-.91.754-1.117.71-1.117-.246Zm4.5-4.512c0-1.277.782-2.066 1.57-1.578.758.469.02 2.578-.902 2.578-.367 0-.668-.45-.668-1Zm-6.375-.5c-.629-1.012.219-2.25 1.543-2.25 1.219 0 1.266.145.625 1.816-.515 1.348-1.484 1.543-2.168.434ZM47.82 278.45l8.082-5.543-2.328-2.648c-1.281-1.457-2.664-3.387-3.074-4.285-1-2.203-3.637-3.895-3.637-2.34 0 1.46-2.347 2.656-5.21 2.656-1.981 0-2.688.594-4.977 4.176-2.274 3.555-2.524 4.348-1.68 5.363.547.656.89 1.79.77 2.516-.368 2.172 1.922 6.894 3.02 6.226.523-.32 4.589-3.074 9.034-6.12Zm-4.586-4.09c-1.175-1.175-1.101-3.945.137-4.968 1.367-1.137 1.992-.32 1.992 2.605 0 2.75-.828 3.668-2.129 2.363Zm5.016-1.644c-.46-1.004-.617-2.395-.352-3.086.739-1.922 2.715.082 2.715 2.754 0 2.637-1.234 2.808-2.363.332Zm-10.605.605c-.262-.257.05-1.48.69-2.718 1.032-1.997 1.29-2.122 2.286-1.125.95.949.969 1.37.129 2.718-.992 1.586-2.207 2.028-3.105 1.125Zm253.91 1.442c8.558-3.016 12.984-7.926 12.425-13.782-.199-2.105-.738-2.804-3.011-3.918-4.492-2.195-7.156-1.21-14.531 5.375-9.348 8.352-11.657 9.907-15.387 10.395-3.516.461-4.559 1.273-3.887 3.023.66 1.72 18.715.907 24.39-1.093Zm-12.004-2.657c.172-.515.762-.94 1.312-.94.551 0 1.14.425 1.313.94.183.555-.348.934-1.313.934-.968 0-1.5-.379-1.312-.934Zm5.512.383c-.805-.804-.473-1.699.632-1.699.594 0 1.266.305 1.493.672.48.773-1.45 1.703-2.125 1.027Zm9.05-2.945c-.945-.95-.496-1.754.977-1.754 1.004 0 1.34.363 1.043 1.125-.461 1.207-1.211 1.438-2.02.629Zm-6.5-3.254c0-.41.528-.746 1.168-.746.645 0 .961.336.707.746-.254.414-.781.75-1.168.75-.39 0-.707-.336-.707-.75Zm10.793-4.184c.25-.652.457-1.328.457-1.5 0-.171.504-.316 1.125-.316.625 0 1.125.668 1.125 1.5 0 1.027-.5 1.5-1.582 1.5-1.133 0-1.449-.332-1.125-1.184Zm-6.668-.316c-.629-1.012.219-2.25 1.543-2.25 1.219 0 1.266.145.625 1.816-.515 1.348-1.484 1.543-2.168.434ZM37.07 265.004c3.25-4.317 3.64-5.184 2.742-6.086-.902-.898-1.921-.758-7.164.984l-6.109 2.04 1.29 1.984c.71 1.097 1.905 2.43 2.663 2.969.754.539 1.371 1.468 1.371 2.062 0 2.129 1.469 1.012 5.207-3.953Zm7.387-4.348c1.223-4.566 1.152-5.367-.594-7.117-1.691-1.691-4.91-1.934-8.027-.601-4.11 1.75-6.695 5.066-2.8 3.585 2.956-1.125 8.257-.898 9.331.399.606.73.77 2.18.457 4.125-.652 4.074.512 3.797 1.633-.39Zm239.406-.972c0-.747-.465-1.993-1.035-2.77-.984-1.348-1.125-1.355-3-.125-2.504 1.64-2.48 2.438.098 3.379 3.074 1.125 3.937 1.02 3.937-.484Zm-256.125-4.645c-.047-3.484-.558-4.148-2.383-3.09-1.28.746-1.285.797-.039.82 1.067.016 1.227.426.82 2.083-.277 1.136-.792 2.18-1.144 2.316-1.191.469.113 1.484 1.453 1.133.996-.258 1.32-1.082 1.293-3.262Zm-18 .75c0-2.223-1.695-2.742-3.765-1.144-1.48 1.144-1.48 1.148 0 2.292 2.07 1.598 3.765 1.079 3.765-1.148Zm295.922-3.023c.8-.426 1.453-1.094 1.453-1.48 0-.86-3.984-2.997-5.59-2.997-1.62 0-1.503 3.48.153 4.441 1.68.98 2.215.985 3.984.036Zm-154.547 24.957c-2.703-.856-15.015-7.399-19.125-10.16-26.258-17.641-45.363-48.055-47.304-75.297-.692-9.72-.805-9.907-3.184-5.356-2.445 4.688-5.672 6.836-10.406 6.938-2.906.058-3.656-.27-5.617-2.465-1.852-2.074-2.18-2.957-1.797-4.871.87-4.344 3.375-5.68 9.047-4.82 1.164.175 1.64-.383 2.183-2.547.559-2.223.082-5.786-2.414-18.016-2.797-13.719-3.121-16.406-3.203-26.852-.137-16.984 2.168-25.742 8.566-32.523 3.274-3.473 5.004-3.567 5.004-.274 0 1.75-.648 3.051-2.289 4.598-3.133 2.957-5.672 8.246-6.73 14.012-1.524 8.308.465 24.847 4.586 38.152 3.836 12.371 4.43 14.438 4.52 15.7.046.671.359-.126.69-1.778.333-1.648.669-19.281.747-39.184l.144-36.19h58.406l11.993-9.68 7.472 4.831 7.47 4.832 56.616.391-.215 42c-.222 44.258-.703 53.461-3.25 62.613-2.007 7.211-8.453 19.953-15.183 30.012-5.063 7.57-16.938 20.41-24.102 26.059-1.648 1.3-4.855 3.84-7.125 5.644-7.87 6.258-23.37 14.906-25.5 14.23Zm8.028-5.825c16.695-9.027 33.609-23.636 45.32-39.144 6.156-8.152 10.617-16.145 14.36-25.715 4.21-10.766 5-14.496 5.445-25.828.617-15.727.957-80.434.425-81.293-.351-.57-9.343-.89-29.136-1.04-25.32-.187-28.743-.35-29.598-1.425-1.027-1.289-9.918-7.414-10.758-7.414-.629 0-6.012 4.113-8.969 6.856l-2.257 2.09-17.993.085c-9.894.051-22.585-.152-28.195-.449-5.816-.305-10.383-.25-10.617.133-.227.367-.5 21.758-.602 47.539-.207 51.629-.347 49.648 4.645 65.094 5.07 15.683 15.023 31.222 27.75 43.32 8.582 8.16 28.09 20.582 32.316 20.582.875 0 4.41-1.523 7.864-3.39Zm-14.91-31.668c-4.145-8.562-15.223-31.593-24.618-51.19a30577.903 30577.903 0 0 0-23.918-49.774c-3.757-7.786-6.832-14.45-6.832-14.813 0-.367 9.008-.664 20.13-.664h20.128l.777-1.684c2.204-4.793 12.211-16.132 16.18-18.34.914-.507 4.16-.933 7.219-.949 4.95-.023 5.953.227 9.148 2.278 4.98 3.195 8.282 7.078 11.114 13.07l2.414 5.117 22.773-.5c15.223-.332 22.93-.246 23.246.27.262.418-5.18 11.472-12.086 24.562a26820.707 26820.707 0 0 0-22.785 43.301c-26.273 50.106-34.18 64.867-34.742 64.871-.34.004-4.004-6.996-8.149-15.555Zm10.82 7.301c1.133-2.058 1.722-3.742 1.312-3.742-.949 0-.976-3.809-.047-6.254.907-2.383 3.715-4.996 5.375-4.996.899 0 2.91-3.09 6.606-10.156 2.926-5.586 5.316-10.313 5.316-10.5 0-.754-2.582-.278-3.691.687-2.23 1.934-13.547 9.47-14.223 9.47-.37 0-.86.48-1.086 1.065-.386 1.008-9.558 8.329-11.062 8.833-.696.23 8.234 19.363 9.031 19.343.223-.008 1.332-1.695 2.469-3.75Zm-.938-10.629c0-.488.696-2.324 1.543-4.078 2.035-4.203 7.457-7.683 7.457-4.789 0 .36-.699.875-1.55 1.149-.856.27-2.723 2.32-4.149 4.55-2.64 4.121-3.3 4.758-3.3 3.168Zm6.024.703 1.55-3.19-1.914 2.105c-1.05 1.16-1.91 2.593-1.91 3.187 0 1.828.653 1.227 2.274-2.102Zm-10.899-12.699c5.5-4.91 9.766-8.117 10.797-8.117.43 0 1.887-.957 3.238-2.129 3.196-2.765 9-6.12 10.594-6.12 2.43 0 1.2-1.454-1.941-2.294-4.02-1.074-5.063-1.934-5.063-4.172 0-1.586-.34-1.785-3.058-1.785-5.836 0-16.989-8.219-21.493-15.848-.703-1.183-1.492-2.152-1.761-2.152-.813 0-1.422 5.227-1.438 12.375-.008 3.715-.222 8.004-.476 9.531-.434 2.614-.66 2.813-3.742 3.274-1.805.27-3.282.62-3.282.773 0 .156 2.348 5.2 5.215 11.211 5.953 12.461 5.016 12.05 12.41 5.453Zm-6.187-11.37c-1.754-.43-3.188-1.056-3.188-1.388 0-.707 4.578-.816 6.313-.152 1.164.445 1.73 2.652.625 2.434-.309-.063-1.996-.465-3.75-.895Zm26.316-17.93c1.008-1.344 2.887-4.465 4.172-6.942a569.85 569.85 0 0 1 4.957-9.25c1.441-2.613 2.617-5.566 2.617-6.562 0-1.563-.351-1.813-2.562-1.813h-2.559l-.484 5.816c-.688 8.243-.63 8.04-2.356 8.286-1.668.242-8.484-3.047-9.406-4.536-.656-1.066.637-2.816 2.082-2.816.57 0 1.035.477 1.035 1.055 0 .91 5.16 4.629 5.602 4.039.094-.117.539-3.762.992-8.094.738-7.027 1.035-8.055 2.781-9.559 1.317-1.136 2.93-1.69 4.918-1.69 1.625 0 2.953-.25 2.946-.56-.043-2.144-3.872-3.812-11.68-5.085-6.54-1.07-11.8-.743-14.164.882-.813.559-2 1.012-2.64 1.012-1.192 0-1.884.621-8.044 7.223-1.972 2.117-4.355 4.242-5.297 4.726-.937.485-1.539 1.153-1.332 1.485.203.332.559 2.062.782 3.847 1.082 8.602 14.285 20.793 22.66 20.922 2.707.043 3.41-.297 4.98-2.387Zm-4.191-4.376c-.723-.417-1.313-1.23-1.313-1.8 0-.567-.734-1.145-1.629-1.274-.894-.133-1.77-.668-1.941-1.191-.238-.727 1.062-.918 5.394-.809 6.68.172 7.895 1.016 5.625 3.903-1.617 2.058-3.878 2.488-6.136 1.171Zm5.062-2.19c.278-.446-.633-.75-2.25-.75s-2.527.304-2.25.75c.254.413 1.266.75 2.25.75.98 0 1.996-.337 2.25-.75Zm-12.207-21.419c-.918-.64-1.668-1.7-1.668-2.355 0-1.016.739-1.121 5.008-.723 5.688.531 6.89 1.242 5.113 3.02-1.562 1.562-6.265 1.593-8.453.058Zm9.414-3.379c-.71-.414-3.507-.96-6.215-1.215-6.335-.59-6.261-2.226.083-1.847 4.742.28 9.3 1.789 9.3 3.074 0 .984-1.468.976-3.168-.012Zm-30.582 24.422c0-.7-.707-1.125-1.875-1.125-1.82 0-2.394.73-1.375 1.75.946.945 3.25.5 3.25-.625Zm.375-4.125c-.254-.41-1.289-.75-2.293-.75-1.007 0-1.832.34-1.832.75 0 .414 1.032.75 2.293.75 1.34 0 2.102-.309 1.832-.75Zm.375-3.598c0-.332-1.234-.636-2.742-.68-1.871-.054-2.406.134-1.687.59 1.32.833 4.43.895 4.43.09Zm-1.5-2.8c0-1.082-2.547-4.102-3.46-4.102-1.68 0-1.192 2.7.648 3.586 1.93.93 2.812 1.094 2.812.516Zm3.055-5.703c-.234-.262-1.223-.72-2.191-1.012-1.582-.48-1.707-.352-1.223 1.23.293.965 1.086 2.387 1.762 3.156 1.175 1.34 1.238 1.31 1.652-.75.238-1.18.238-2.363 0-2.625Zm-6.055-1.399c0-.41-.36-.75-.793-.75-.437 0-.586.34-.332.75.254.414.614.75.793.75.184 0 .332-.336.332-.75Zm8.625-1.5c.254-.41-.261-.75-1.152-.75-.89 0-2.563-.672-3.715-1.492-2.484-1.77-5.336-2.25-5.793-.973-.183.52.59 1.113 1.793 1.383 1.164.258 3.129.938 4.367 1.508 2.696 1.246 3.88 1.332 4.5.324Zm.75-4.5c-.746-.824-2.234-1.508-3.304-1.523-1.07-.012-2.586-.508-3.368-1.102-.785-.59-1.718-.894-2.078-.672-.972.602.028 1.797 1.504 1.797.707 0 1.867.676 2.57 1.5.786.914 2.215 1.5 3.66 1.5 2.325 0 2.344-.027 1.016-1.5Zm39.172.98c-.726-.187-1.742-.175-2.25.032-.508.203.09.36 1.328.344 1.239-.016 1.653-.184.922-.375Zm-33.547-3.23c0-1.629-1.84-1.988-3.75-.734-1 .656-1 .816 0 1.476 1.91 1.25 3.75.89 3.75-.742Zm-4.937-3.012c.48-.48-.645-.738-3.254-.738-3.559 0-3.887.133-3.004 1.191 1.043 1.258 4.82.985 6.258-.453Zm45.129-1.113c1.125-4.484-1.594-6.898-9.817-8.715-7.687-1.691-11.718-1.633-15.941.242-3.883 1.72-3.926 1.778-2.742 3.47 1.754 2.5 4.433 1.94 4.433-.927 0-3.023 1.727-3.347 2.715-.511.442 1.273 1.11 2.316 1.484 2.316 1.387 0 1.801-.41 1.817-1.816.027-2.36 1.629-2.176 2.484.285.922 2.64 2.91 3.039 3.258.652.438-2.957 2.11-2.48 2.215.63l.101 2.874.461-2.613c.29-1.621.95-2.711 1.739-2.86 1.058-.203 1.203.188.855 2.332-.25 1.524-.078 2.79.414 3.09.551.344.832-.402.832-2.215 0-3.742 1.797-3.05 2.117.817.383 4.61 2.68 6.508 3.575 2.95Zm-37.192.527c0-1.007-1.73-2.402-2.984-2.402-.649 0-2.012-.578-3.027-1.293-1.016-.71-2.567-1.2-3.45-1.082-.976.129-1.797-.309-2.109-1.125-.434-1.133-.613-1.168-1.207-.226-1.559 2.46-.852 3.726 2.09 3.75 1.547.007 4.164.656 5.812 1.437 3.293 1.559 4.875 1.863 4.875.941Zm-15.703-5.199c.867-3.086 5.664-11.648 12.098-21.578 3.433-5.3 6.844-8 10.652-8.43 2.473-.277 3.965-.03 5.375.895 1.844 1.207 2.004 1.207 2.899-.016 1.093-1.496 4.418-1.004 6.617.977.75.676 1.312.824 1.312.351 0-1.933-2.172-4.66-8.703-10.925l-6.933-6.649-1.88 3.711c-1.847 3.64-9.277 14.098-14.331 20.164-1.41 1.692-3.301 4.73-4.207 6.75-.903 2.02-1.938 4.18-2.301 4.797-2.582 4.387-3.613 7.813-3.172 10.563.258 1.617.719 2.937 1.023 2.937.309 0 1.004-1.594 1.551-3.547Zm21.543 2.613c.965-1.167.293-5.078-.863-5.03-1.559.062-7.895 1.886-8.442 2.429-.293.297.286.535 1.286.535 1.007 0 2.238.672 2.754 1.5 1.046 1.68 4.078 2 5.265.566Zm-6.965-5.968c1.649-.403 4.184-.91 5.625-1.125 2.797-.418 5.25-2.11 5.25-3.621 0-.508 1.203-1.84 2.68-2.965 2.45-1.867 3.14-2.02 8.062-1.77 4.133.207 5.958.672 7.825 2.004 2.738 1.95 3.425.77 1.12-1.922-.722-.84-2.155-2.957-3.187-4.699-1.031-1.742-2.418-3.762-3.086-4.48-.664-.72-1.832-2.371-2.597-3.664-1.301-2.204-2.567-3.083-2.567-1.778 0 .313 1.364 2.903 3.028 5.75 3.289 5.63 3.14 6.39-1.246 6.414-2.258.008-4.497-1.523-3.575-2.449.664-.664-2.793-7.473-4.55-8.96-.844-.716-2.63-1.306-3.97-1.313-3.273-.024-6.796 3.574-12.484 12.734a2589.47 2589.47 0 0 1-5.363 8.621c-.61.973-.719 2.086-.308 3.149.687 1.765 2.382 1.78 9.343.074Zm-19.125.117c0-2.57 6.575-15.719 9.797-19.59 2.02-2.43 4.07-5.164 4.559-6.078.492-.922 1.273-2.008 1.742-2.422 3.516-3.09 8.684-11.39 9.684-15.559.496-2.058.484-2.066-3.532-2.066-4.652 0-7.687 1.824-13.675 8.23-6.958 7.438-8.204 9.844-11.149 21.575-.648 2.57-1.176 5.36-1.176 6.195 0 2.363 2.422 10.5 3.121 10.5.348 0 .63-.351.63-.785Zm49.055-3.79c-1.422-1.57-5.555-4.054-5.555-3.335 0 .207-.89.035-1.984-.379-2.332-.887-6.203.148-8.008 2.145-1.101 1.218-.851 1.28 4.223 1.046 3.52-.164 6.437.137 8.394.871 4.11 1.54 4.586 1.485 2.93-.347Zm-9.305-12.3c0-.617-.328-1.125-.726-1.125-.399 0-.532.508-.293 1.125.234.621.562 1.125.722 1.125.164 0 .297-.504.297-1.125Zm-2.52-21.676c-1.734-2.273-5.738-5.699-6.663-5.699-.176 0 1.53 2.027 3.8 4.508 4.383 4.781 6.172 5.527 2.864 1.191Zm-84.777 66.504c-.25-.246-.425.196-.394.988.035.872.215 1.051.453.454.219-.543.191-1.192-.059-1.442Zm113.57 77.453c-.5-.601-1.081-2.379-1.292-3.949-.293-2.184-.012-3.289 1.195-4.715 1.524-1.808 1.606-1.82 2.672-.445.601.777 1.254 1.793 1.441 2.25.235.555.586.488 1.07-.203.4-.57 1.083-.813 1.516-.543.512.316.875-.918 1.024-3.469.218-3.844.289-3.957 2.476-3.957h2.25l.664 6.176c.79 7.344.438 8.012-4.875 9.148-5.043 1.082-7.058 1.012-8.14-.293Zm19.231-1.761c-.75-.829-1.75-3.754-2.219-6.496-.714-4.172-.68-5.094.215-5.649 1.524-.941 2.852.406 3.774 3.84 1.222 4.539 4.117 3.543 4.601-1.586.301-3.152 2.532-4.063 3.508-1.426l.621 1.688.43-1.633c.648-2.484 3.254-2.102 4.203.617.434 1.238.96 2.25 1.176 2.25.215 0 .195-.504-.043-1.125-.235-.617-.203-1.715.078-2.434.476-1.226.582-1.214 1.578.141.594.8 1.074 2.426 1.074 3.61 0 1.18.32 1.949.711 1.71.395-.242.52-2.07.285-4.054-.351-2.973-.199-3.703.856-4.11.707-.27 1.562-.316 1.906-.105.8.492 2.242 7.207 2.242 10.437 0 3.196-1.41 4.32-5.957 4.758-4.207.406-5.758-.8-7.265-5.648l-.871-2.805-.079 3.074c-.097 3.844-1.902 5.606-6.238 6.094-2.57.29-3.492.059-4.586-1.148Zm-114.879.105c-4.726-1.027-6.742-4.371-6.246-10.375.215-2.633.477-3 2.121-3 1.649 0 1.903.367 2.114 3 .273 3.473 1.636 5.508 1.636 2.445 0-1.09.336-2.187.75-2.445.438-.27.75.496.75 1.832 0 2.586 1.153 3.074 1.875.793.524-1.648 3.067-2.05 3.563-.559.547 1.633-.95 6.899-2.235 7.872-1.27.96-1.718 1.007-4.328.437Zm-19.398-3.3c-1.785-1.407-1.977-2.04-1.965-6.563.012-5.606.633-7.156 2.703-6.766 1.172.227 1.45 1.067 1.633 4.988.156 3.293.559 4.844 1.324 5.141 1.778.68 3.219-1.137 3.762-4.742.543-3.637 1.879-4.762 3.777-3.184 1.785 1.485 1.145 10-.87 11.524-2.231 1.683-7.997 1.46-10.364-.399Zm-13.004-.743c-3.652-1.11-4.777-3.246-4.29-8.168.688-6.96.911-7.539 2.923-7.539 1.75 0 1.84.238 2.05 5.441.208 5.192.301 5.434 2.036 5.434 1.586 0 1.937-.512 2.718-3.992 1.04-4.606 1.809-5.633 3.68-4.914 1.168.445 1.297 1.226.984 6.074-.222 3.469-.769 5.977-1.453 6.66-1.437 1.434-5.62 1.918-8.648 1.004Zm150.293-3.437c-.75-.754-.633-4.77.14-4.77 1.126 0 2.481 2.117 2.22 3.465-.274 1.41-1.548 2.113-2.36 1.305ZM85.863 244.96c0-2.664 1.055-4.16 1.719-2.43.52 1.36-.25 5.008-1.055 5.008-.367 0-.664-1.16-.664-2.578Zm-15-1.047c0-2.055.762-3.875 1.63-3.875 1.05 0 .41 4.707-.692 5.07-.54.176-.938-.328-.938-1.195Zm212.25-.55c0-.645.82-4.442 1.82-8.438 2.672-10.64 3.352-14.766 4.993-30.137 2.633-24.695 3.105-31.621 3.207-46.684.086-13.164.234-14.816 1.32-14.816 2.84 0 3.258 1.957 3.035 14.16-.117 6.446-.527 14.586-.914 18.09-.383 3.508-.703 8.129-.707 10.266 0 2.14-.676 6.699-1.5 10.125-1.57 6.554-1.969 11.168-.855 9.949.75-.824 3.597-11.207 5.027-18.34 1.652-8.234 2.98-32.91 2.043-37.976-.793-4.286-.766-4.438 1.172-6.06 4.965-4.151 5.793-1.57 5.098 15.868-.7 17.508-3.59 34.207-9.168 52.918-4.829 16.2-8.418 25.816-10.934 29.29-2.242 3.097-3.637 3.78-3.637 1.784Zm-263.922-4.52c-2.8-3.559-8.652-24.45-11.222-40.055-3.063-18.601-3.93-28.441-3.703-42 .218-12.84.257-13.129 1.859-13.355 1.016-.145 1.93.312 2.406 1.207.457.851.801 8.441.848 18.605.098 22.363 2.535 44.649 4.535 41.484.375-.585.52-3.09.324-5.566-.195-2.473-.523-9.223-.73-15-.207-5.773-.602-16.418-.871-23.652-.524-13.914-.11-16.473 2.683-16.473 1.594 0 1.727 1.29 3.063 29.625 1.183 25.191 1.496 30.078 2.703 42.375 2.004 20.379 2.086 22.813.816 23.867-.945.781-1.402.606-2.71-1.062Zm198.305-1.989c-.46-1.43-.598-1.488-.89-.375-.196.72-1.004 1.31-1.797 1.31-1.262 0-1.446-.556-1.446-4.384 0-4.933 1.102-6.523 5.063-7.316 1.879-.375 2.715-.09 4.262 1.457 1.058 1.058 1.937 2.531 1.953 3.273.02.813.449.38 1.093-1.097 2.657-6.11 9.723-4.282 10.664 2.761.336 2.496.188 3.055-.812 3.055-.711 0-1.223-.61-1.223-1.457 0-.8-.824-2.402-1.828-3.562-1.515-1.743-2.062-1.958-3.187-1.258-1.036.64-1.352 1.765-1.328 4.687.035 4.059-1.336 5.324-2.336 2.168l-.532-1.676-.62 1.676c-.938 2.535-2.833 2.133-2.755-.586.036-1.246-.187-2.511-.5-2.812-.308-.305-.464.12-.343.945.312 2.156-.754 4.875-1.91 4.875-.544 0-1.231-.758-1.528-1.684Zm.691-7.238c-.468-.469-1.808 1.434-1.789 2.547.008.414.504.102 1.106-.691.601-.797.91-1.63.684-1.856Zm3.125.223c-.265-.695-.652-1.094-.859-.89-.207.206-.156.945.11 1.64.265.695.656 1.097.859.89.207-.207.156-.945-.11-1.64Zm9.56 6.629c-.474-.305-.981-1.735-1.126-3.18-.219-2.21-.023-2.625 1.242-2.625 1.227 0 1.543.578 1.73 3.191.227 3.149-.155 3.688-1.847 2.614Zm20.773-1.09c-4.672-3.18-5.618-5.191-5.48-11.68l.124-5.804-6.414-7.114c-3.531-3.914-6.715-7.226-7.082-7.363-.371-.137-.43.863-.137 2.25.293 1.375.543 3.492.559 4.71.02 1.942-.32 2.298-2.754 2.88-2.508.601-2.691.808-1.875 2.12.726 1.177.687 1.59-.2 2.142-1.5.933-3.175-.563-2.613-2.336.297-.946.07-1.395-.707-1.395-1.5 0-2.703-2.312-2.703-5.2 0-2.269 1.598-3.21 2.625-1.55 1.52 2.461 4.125-1.402 4.125-6.11 0-1.402.387-2.14 1.125-2.14.617 0 1.125.32 1.125.711 0 .402 1.86.566 4.282.383 4.234-.328 4.359-.278 11.554 4.594 7.106 4.804 7.348 4.902 10.16 4.12 4.145-1.148 6.942-.972 10.567.673 2.324 1.054 3.187 1.886 3.187 3.074 0 1.355-.332 1.558-2.015 1.238-3.688-.707-4.184.156-1.707 2.977 1.675 1.914 2.152 3.039 1.785 4.23-.735 2.399-.875 2.422-3.363.582-2.782-2.055-6.696-2.785-8.82-1.648-.868.464-1.973 2.168-2.458 3.785-.734 2.449-.668 3.539.406 6.547 2.446 6.863 1.414 8.53-3.296 5.324Zm-157.946-1.402c-.773-1.25.965-2.688 2-1.653.864.867.324 2.465-.836 2.465-.363 0-.886-.363-1.164-.812Zm-41.191-1.403c-.297-.476.34-2.191 1.41-3.808 2.645-4 2.574-7.496-.215-10.618-2.078-2.324-2.387-2.418-8.25-2.511-3.351-.055-6.273-.282-6.496-.5-.91-.91 1.54-4.356 3.887-5.469 1.383-.66 2.52-1.316 2.52-1.465 0-.148-1.352-.09-3 .133-2.66.355-3 .226-3-1.14 0-.852.925-2.278 2.062-3.173 2.789-2.203 9.254-1.84 12.707.715l2.37 1.754 4.977-4.129c4.907-4.07 5.063-4.136 10.743-4.511 3.172-.211 5.93-.235 6.129-.047.199.183-1.153 1.574-3 3.082-1.852 1.511-5.434 4.71-7.965 7.11-4.496 4.269-4.586 4.429-3.953 7.144 1.707 7.351.195 13.468-4.012 16.222-2.461 1.617-6.254 2.278-6.914 1.211Zm32.191-.097c-.773-1.25.965-2.688 2-1.653.864.867.324 2.465-.836 2.465-.363 0-.886-.363-1.164-.812Zm-7.086-1.438c0-1.129.39-1.531 1.313-1.355.722.14 1.312.75 1.312 1.355 0 .61-.59 1.219-1.312 1.36-.922.175-1.313-.227-1.313-1.36Zm-8.75-.422c-.625-1.629.965-3.164 2.098-2.027.96.96.367 3.2-.848 3.2-.437 0-1-.528-1.25-1.173Zm14-2.586c-1.031-.355-3.781-1.02-6.11-1.48-3.21-.633-4.331-1.2-4.628-2.344-.602-2.289 1.215-2.535 8.004-1.078 7.648 1.637 10.984 3.004 10.984 4.5 0 .879-.781 1.148-3.187 1.101-1.754-.03-4.031-.347-5.063-.699Zm134.535-4.078c-.226-.59-.296-1.683-.152-2.43.223-1.183 1.316-1.406 8.5-1.734 8.102-.367 9.328-.094 9.356 2.082.015 1.457-2.68 2.156-10.329 2.68-5.668.39-7.039.277-7.375-.598Zm-138.66-2.933-6.75-1.618-.195-2.617c-.277-3.687.574-4.738 3.07-3.793 1.258.48 2 1.324 2 2.281 0 1.598 1.086 2.043 1.875.766.684-1.101 3.055-.91 4.09.332.492.598 1.969 1.188 3.277 1.313 2.082.203 2.415.539 2.618 2.671.285 2.97-.227 3.004-9.985.665Zm200.274-2.692c-.27-.433-.223-1.21.105-1.723.324-.515.63-10.05.684-21.19.058-13.45.496-23.524 1.293-30 .66-5.36 1.402-11.606 1.648-13.876.84-7.672 1.168-9.059 2.024-8.531.804.5.312 35.23-.625 43.93-.387 3.578.535 4.898 1.597 2.292.621-1.523 1.938-28.824 1.875-38.914-.035-5.707.164-6.93 1.2-7.324.683-.262 1.75-.05 2.378.469.977.809 1.067 3.125.641 16.7-.273 8.663-.809 18.116-1.191 21.003-.387 2.89-1.094 8.29-1.579 12-.484 3.715-1.55 9.113-2.375 12-2.414 8.473-6.375 15.27-7.675 13.164Zm-59.133-1.07c-.219-.57-.047-1.387.383-1.817.972-.972 2.851-.328 2.851.973 0 .531-.535 1.172-1.187 1.422-1.586.61-1.594.605-2.047-.578Zm11.758-.836c-.262-.68-.114-1.594.328-2.031 1.14-1.145 3.305-.098 3.008 1.453-.332 1.726-2.735 2.14-3.336.578Zm-201.278-5.637c-1.976-3.875-4.824-11.863-6.328-17.765-1.496-5.86-3.289-26.512-3.539-40.723-.164-9.606-.043-10.902 1.051-11.113.684-.13 1.934.132 2.781.586 1.469.785 1.54 1.472 1.54 14.953 0 13.87 1.652 33.879 3.062 37.074.492 1.113.562.098.226-3.258-.27-2.68-.632-6.39-.808-8.25-.176-1.855-.512-11.328-.746-21.055-.32-13.195-.196-18.113.488-19.39.504-.946 1.2-1.426 1.55-1.07.563.574 1.294 10.644 2.653 36.64.238 4.54.742 12.977 1.117 18.75.985 15.121.93 17.625-.402 17.625-.61 0-1.8-1.351-2.645-3.004Zm49.899-1.027c-1.301-1.305-1.895-2.719-1.895-4.512 0-3.047.871-3.844 2.977-2.719 1.543.828 2.2 2.493 2.484 6.32.215 2.883-1.222 3.25-3.566.91Zm182.605-7.434c0-.562.813-3.36 1.809-6.215 2.55-7.312 4.355-14.605 3.976-16.058-.175-.676-.043-3.235.301-5.684.348-2.445.973-7.152 1.399-10.453.422-3.297.937-6.844 1.14-7.875.207-1.027.758-4.824 1.223-8.434.601-4.644 1.148-6.566 1.875-6.566 1.223 0 1.273 1.805.3 10.5-.394 3.508-.777 8.57-.85 11.25-.079 2.684-.56 7.746-1.071 11.25-1.008 6.875-.883 8.211.45 4.793 1.397-3.574 2.772-12.758 3.675-24.52.937-12.207 1.16-13.273 2.805-13.273 2.367 0-.993 36.531-3.618 39.34-.363.39-.664 1.195-.664 1.785 0 1.816-6.754 16.145-8.492 18.008-2.285 2.46-4.258 3.453-4.258 2.152Zm-220.847-6.828c-4.54-4.809-7.957-21.652-9-44.332-.48-10.508.117-13.32 2.238-10.543.797 1.047 1.129 3.582 1.18 9 .113 11.672.625 23.117 1.058 23.547.215.215.356-7.246.309-16.578-.04-9.332.144-17.324.414-17.758.265-.434 1.14-.793 1.941-.793 1.328 0 1.457.574 1.477 6.566.039 13.04 1.68 34.293 3.398 44.06 1.805 10.257 1.297 11.405-3.015 6.831Zm191.148.727c-3.512-1.532-5.7-5.676-6.105-11.567-.454-6.558.984-12.453 6.48-26.597 7.727-19.883 9.29-28.043 7.305-38.13-1.399-7.113-4.23-12.824-8.055-16.257-2.066-1.856-2.926-3.238-2.926-4.711 0-2.895 1.106-3.285 4.086-1.445 3.73 2.308 7.082 6.43 9.602 11.816 1.937 4.14 2.297 5.992 2.844 14.66.566 9 .457 10.738-1.168 18.664-.989 4.809-2.684 10.883-3.77 13.5-5.14 12.375-8.297 26.387-6.523 28.957.5.723 1.203.754 2.988.133 4.195-1.465 7.488 1.762 6.605 6.465-.898 4.809-6.015 6.836-11.363 4.512Zm17.7-4.016c0-.734 1.198-3.84 2.667-6.902 4.516-9.414 6.914-20.375 8.453-38.578.317-3.7.856-6.055 1.442-6.25.719-.239.949 2.043.988 9.687.05 9.809.07 9.938 1.133 6.625.594-1.855 1.293-6.074 1.55-9.375.47-5.992 1.15-7.875 2.852-7.875 2.809 0-.851 24.371-5.535 36.832-1.84 4.899-5.254 10.27-9.098 14.313-2.953 3.101-4.453 3.617-4.453 1.523Zm-196.61-3.32c-3.242-4.028-5.113-7.285-7.316-12.754-1.965-4.875-2.067-5.696-2.657-21.594-.242-6.39-.601-12.867-.804-14.39-.387-2.91.207-3.895 1.765-2.934.59.363 1.215 4.02 1.7 9.89 1.21 14.692 1.515 17.34 1.96 16.895.614-.61.243-13.555-.55-19.23-.38-2.692-.485-5.657-.243-6.59 1.032-3.934 2.211-.532 3.75 10.797.895 6.566 2.016 13.457 2.489 15.312.476 1.86.992 6.285 1.148 9.84.16 3.55.82 8.758 1.473 11.566.672 2.895.902 5.39.531 5.758-.371.371-1.777-.742-3.246-2.566Zm189.574-10.2c-.207-.332.91-3.796 2.48-7.699 3.36-8.351 5.196-15.91 5.817-23.984.543-7.02.957-7.934 3.094-6.79 1.851.99 1.652 3.321-1.031 12.075-.946 3.098-1.899 6.64-2.11 7.875a573.72 573.72 0 0 1-.898 5.066c-.672 3.684.02 3.56 2.03-.375 2.563-5.011 3.798-10.113 4.306-17.816.375-5.621.71-7.125 1.597-7.125.922 0 1.106 1.168 1.02 6.414-.195 11.774-4.742 23.98-11.117 29.856-3.364 3.101-4.485 3.644-5.188 2.504ZM62.461 176.48c-2.477-2.636-5.367-8.52-6.54-13.289-.792-3.234-3.75-23.87-3.792-26.46-.027-1.637 2.242-1.012 2.934.8.363.957.906 5.262 1.207 9.563.3 4.3.824 8.496 1.164 9.32.582 1.406.433-3.758-.465-16.266-.211-2.945-.047-5.21.394-5.48.41-.258.758-.023.766.516.008.539.348 3.175.754 5.855.41 2.684 1.226 8.422 1.824 12.75.59 4.332 1.938 11.082 2.988 15 2.75 10.246 2.52 11.691-1.234 7.691Zm181.953-15c.277-1.96.672-5.925.879-8.816.531-7.414 1.027-10.125 1.855-10.125.391 0 .762 2.11.825 4.691l.105 4.684.746-5.434c.41-2.992 1.04-5.44 1.395-5.44 1.047 0 .738 8.67-.504 14.132-1.953 8.582-6.352 13.816-5.3 6.308Zm-179.098.375c-1.449-2.265-2.582-6.746-3.875-15.378-1.39-9.258-1.398-12.938-.035-12.938 1.356 0 1.957 1.652 1.957 5.356 0 1.64.282 2.808.625 2.597.348-.215.473-2.258.285-4.543-.32-3.847-.226-4.16 1.247-4.16 1.75 0 1.632-.719 1.875 11.625.074 3.715.421 9.535.777 12.941.566 5.454.5 6.184-.567 6.184-.664 0-1.695-.758-2.289-1.684Zm-.507-16.875c-.04-2.144-.192-2.46-.633-1.328-.535 1.375-.27 4.137.398 4.137.16 0 .266-1.266.235-2.809Zm15.148 13.485c-.437-.817-1.016-2.871-1.289-4.563-.457-2.87-.352-3.132 1.598-3.87 2.816-1.071 3.27-.321 2.644 4.34-.633 4.694-1.781 6.288-2.953 4.093Zm150.535.137c-.488-2.528.278-7.813 1.133-7.797 2.387.03 2.719 1.156 1.383 4.675-1.574 4.145-2.172 4.887-2.516 3.122Zm.168-13.149c.07-1.808-.12-4.984-.422-7.062-.593-4.11.64-6.235 3.078-5.297.996.383 1.164 1.336.918 5.222-.25 3.934-.105 4.743.852 4.676 1.273-.086 1.879 2.403.934 3.852-.336.508-1.704 1.144-3.043 1.414l-2.438.484ZM80.652 141.86c-.433-.808-.789-2.523-.789-3.812 0-1.371-.312-2.152-.75-1.883-.414.258-.75 1.797-.75 3.422 0 2.125-.316 2.953-1.125 2.953-.89 0-1.125-1.07-1.125-5.168v-5.168l2.625-.305c1.446-.168 2.965.032 3.375.446.953.953.985 9.96.04 10.55-.395.243-1.071-.222-1.5-1.035Zm154.766-1.855c-.219-.574-.293-2.516-.164-4.316.195-2.735.512-3.31 1.922-3.512 1.515-.215 1.687.074 1.687 2.863 0 4.613-2.304 7.938-3.445 4.965Zm61.008.226c-2.813-1.636-3.496-4.511-3.11-13.128.508-11.364.848-13.207 2.403-12.91 1.09.206 1.332 1.667 1.722 10.359.25 5.562.5 10.199.563 10.304.058.102.773.184 1.582.184 2.414 0 3.027-2.418 3.027-11.922 0-8.191.133-9.097 1.469-9.808 1.18-.633 1.621-.5 2.25.671 1.023 1.918 1.004 13.954-.035 18.797-1.43 6.657-5.703 9.883-9.871 7.453ZM7.883 136.56c-.817-.813-1.707-2.371-1.98-3.461-.446-1.782-.075-12.301.71-20.184 1.43-14.312 1.653-15.07 4.157-14.277 1.949.617 2.003 2.136.476 13.527-1.719 12.836-1.414 20.625.805 20.625 1.87 0 2.504-2.742 3.648-15.785.625-7.145 1.426-13.274 1.774-13.625.351-.352 1.242-.406 1.976-.125 1.348.52 1.356 3.75.051 16.785-.148 1.445-.496 4.973-.777 7.84-.555 5.668-1.453 8.687-2.844 9.574-1.793 1.14-6.488.617-7.996-.894Zm275.168-.954c-1.383-2.19-1.492-3.195-1.078-9.8.824-13.024 3.39-15.153 3.39-2.813 0 5.594.266 7.586 1.114 8.29 1.695 1.405 2.636-1.927 2.636-9.321 0-4.703.285-6.473 1.157-7.195.687-.57 1.421-.684 1.808-.282.871.91-.937 19.711-2.105 21.871-1.446 2.676-5 2.29-6.922-.75Zm-261.043.247c-1.598-1.297-1.754-1.973-1.625-6.938.195-7.476 1.742-20.95 2.59-22.559 1.14-2.16 2.902-1.636 2.523.75-.18 1.133-.707 6.11-1.172 11.06-.46 4.952-.96 9.78-1.11 10.73-.3 1.957 1.516 3.078 2.84 1.753.466-.464 1.09-3.156 1.395-5.98 1.274-11.938 2.332-17.379 3.375-17.379 1.34 0 1.328 4.3-.047 15.856-1.054 8.863-2.382 12.84-4.574 13.68-1.82.698-2.265.597-4.195-.973Zm251.394-1.305c-1.324-1.684-1.554-2.942-1.464-7.98.132-7.235.75-9.82 2.417-10.145 1.098-.211 1.258.582 1.258 6.34 0 8 1.254 7.707 1.848-.438.406-5.547 1.164-7.02 3.223-6.23 1.09.422 1.039 2.886-.293 13.965-.446 3.68-2.325 6.48-4.348 6.48-.59 0-1.777-.894-2.64-1.992Zm-8.609-.684c-2.059-2.058-1.36-16.824.793-16.824.762 0 1.027 1.242 1.027 4.832 0 6.629 1.285 6.918 1.926.434.387-3.918.8-5.266 1.629-5.266.934 0 1.055 1.258.754 7.867-.215 4.7-.738 8.324-1.3 9-1.22 1.465-3.34 1.45-4.829-.043Zm-232.203-.722c-.723-.875-.836-3.465-.461-10.688.52-10.066 1.266-14.281 2.414-13.664.754.406.754.484.039 9.375-.297 3.676-.223 5.598.195 4.957.375-.57.91-3.523 1.196-6.555.554-5.921 1.84-8.207 1.972-3.507l.078 2.855.715-3.184c.692-3.085 2.309-4.25 3.086-2.214.555 1.433-1.531 19.277-2.531 21.695-.691 1.672-1.34 2.078-3.305 2.078-1.343 0-2.87-.516-3.398-1.148Zm4.281-6.782c.074-1.207-.039-1.578-.25-.828-.375 1.324-.422 1.324-1.426 0-.965-1.273-1.035-1.234-1.058.574-.047 3.68 2.511 3.918 2.734.254Zm1.121-7.07c.156-1.648.024-3-.297-3-.32 0-.582 1.352-.582 3 0 1.652.133 3 .297 3 .164 0 .426-1.348.582-3Zm218.613 12.883c-.937-1.04-1.242-2.844-1.242-7.375 0-6.328.246-7.152 1.95-6.5.722.277 1.05 1.672 1.05 4.45 0 2.226.336 4.042.75 4.042.418 0 .75-2 .75-4.5 0-3.5.25-4.5 1.125-4.5.91 0 1.125 1.211 1.125 6.375 0 5.375-.234 6.613-1.5 7.875-1.851 1.852-2.433 1.871-4.008.133ZM43.434 130.93c-2.063-2.063-2.114-2.555-1.055-10.649 1.035-7.922 1.371-9.242 2.344-9.242.593 0 .68 2.402.293 8.32-.504 7.813-.453 8.301.832 8.055.754-.144 1.492-.89 1.64-1.656.168-.871-.043-1.203-.558-.883-1.371.848-1.645-1.238-.88-6.66 1.134-7.98 2.595-8.278 2.098-.426-.398 6.281-.214 5.895 1.348-2.809.254-1.433.887-2.44 1.527-2.44.825 0 1.118 1.14 1.204 4.69.058 2.579.238 3.672.39 2.434.985-7.867 2.727-7.434 3.246.813.293 4.613.625 5.937 1.5 5.937.848 0 1.285-1.437 1.782-5.844.421-3.765.953-5.742 1.5-5.554 1.054.363.652 13.214-.458 14.59-2.304 2.847-7.324-.368-7.324-4.692 0-1.441-.336-2.625-.75-2.625s-.754.762-.754 1.691c-.011 4.063-1.496 7.165-3.816 7.973-2.008.7-2.512.574-4.11-1.023Zm205.328.96c-1.27-1.269-1.235-12.085.039-11.663.515.168 1.043 1.714 1.168 3.433.324 4.387 1.644 3.922 1.644-.574 0-3.477.946-5.352 2.114-4.18.93.934.503 9.918-.567 11.922-1.12 2.094-2.93 2.531-4.398 1.063Zm50.558.286c-.597-.965-.507-14.36.106-15.403.91-1.554 1.66 1.868 1.625 7.391-.047 6.305-.754 9.59-1.73 8.012Zm-68.21-1.446c-.188-.308-.462-2.925-.606-5.816-.242-4.805-.14-5.25 1.207-5.25 1.016 0 1.687.754 2.172 2.441.93 3.243 1.836 3.082 2.12-.375.188-2.238.544-2.816 1.735-2.816 1.332 0 1.524.574 1.723 5.09l.223 5.086-2.637 1.101c-2.867 1.196-5.399 1.426-5.938.54Zm-219.204-10.3c.547-10.184 1.864-18.39 2.95-18.39.69 0 .296 10.015-.563 14.116-.2.957-.574 3.992-.836 6.75-.258 2.754-.82 5.348-1.254 5.758-.543.524-.633-2.004-.297-8.234Zm51.617 7.976c-1.07-.68-1.25-2.16-1.046-8.55.18-5.715 1.636-5.586 1.636.14 0 2.453.285 4.633.637 4.852.348.215 1.047-1.453 1.555-3.707.504-2.254 1.23-4.102 1.613-4.102s.695 1.953.695 4.336c0 5.945-2.14 8.902-5.09 7.031Zm222.665-3.676c.125-7.316 1.265-8.898 1.351-1.875.043 3.672-.23 6.184-.676 6.184-.422 0-.718-1.887-.675-4.309ZM24.98 127.06c-.148-.766.137-4.262.633-7.77.496-3.504.922-7.809.95-9.559.027-1.753.386-3.19.8-3.19.953 0 .942 1.284-.117 11.917-.832 8.34-1.683 11.578-2.266 8.602Zm51.633-.02c-1.75-1.75 1.094-3.797 4-2.875 1.793.57 1.977 2.285.313 2.922-1.567.602-3.688.578-4.313-.047Zm-19.988-7.184c-.008-2.882.313-5.066.738-5.066.961 0 .961 7.516 0 9-.508.79-.73-.39-.738-3.934Zm21.176 2.692c-2.04-.824-.938-2.508 1.644-2.508 3.059 0 4.055 1.11 1.989 2.215-1.575.84-2.153.887-3.633.293Zm170.39-8.094c-.66-1.012-1.09-2.418-.953-3.125.36-1.848 2.125-2.215 2.125-.441 0 1.578 1.715 3.441 2.469 2.683.254-.25.273-1.379.047-2.507-.555-2.786 1.637-3.758 2.32-1.032 1.293 5.145-3.312 8.535-6.008 4.422Zm-168.14.067c-2.211-1.094-2.106-1.903.582-4.54l2.23-2.19v3.874c0 4.074-.117 4.191-2.812 2.856Zm176.91-.196c-1.434-1.004-1.691-1.758-1.48-4.347l.257-3.133-3.375.035c-2.84.031-3.375-.192-3.375-1.402 0-1.106 1.13-1.809 4.875-3.043 6.957-2.297 10.25-4.172 16.512-9.403 3.035-2.535 7.563-5.633 10.063-6.883 6.433-3.214 9.425-5.628 9.425-7.597 0-2.649-4.238-7.27-6.617-7.215-1.844.039-1.89.117-.605.937 5.32 3.391 5.664 5.418.472 2.766-3.922-2-4.77-1.5-1.113.66 3.184 1.88 2.91 3.38-.406 2.223-1.227-.43-2.422-1.082-2.653-1.453-.226-.375-.988-.668-1.683-.656-.895.011-.496.671 1.355 2.226 2.856 2.406 2.032 2.953-1.605 1.07-3.113-1.605-3.711-.66-.992 1.563 2.375 1.941 1.64 2.426-1.496 1-2.707-1.234-3.23-.223-1.098 2.117 1.605 1.766 1.644 1.926.316 1.402-2.543-1.004-4.875-1.355-4.875-.734 0 .324.59 1.258 1.313 2.074 1.277 1.446 1.258 1.473-.848.957-1.816-.441-2.078-.328-1.676.73.395 1.016.121 1.184-1.445.884-1.602-.305-1.906-.102-1.8 1.222.202 2.614.011 2.946-1.137 1.992-1.336-1.109-2.747-.382-2.168 1.125.289.75-.079 1.098-1.16 1.098-.868 0-1.579.34-1.579.75 0 .414-.675.75-1.5.75-1.004 0-1.5.5-1.5 1.516 0 1.242-.34 1.43-1.875 1.043-1.418-.356-1.875-.176-1.875.738 0 .703-.62 1.203-1.5 1.203-.824 0-1.5.34-1.5.75 0 .414-.488.75-1.082.75-1.261 0-3.535-2.953-2.972-3.86.207-.34 2.804-2.034 5.77-3.765 9.355-5.465 15.534-12.695 15.534-18.176 0-2.367-3.02-5.699-5.164-5.699-1.574 0-3.836 1.848-3.836 3.129 0 .426 1.012 1.719 2.25 2.871 1.239 1.156 2.25 2.586 2.25 3.176 0 1.785-4.43 7.887-8.02 11.047-1.863 1.64-5.25 3.675-7.527 4.527-3.8 1.426-4.289 1.457-5.921.383-2.672-1.75-2.18-2.934 1.992-4.82 4.64-2.094 11.226-8.325 11.226-10.614 0-.906-.843-2.433-1.875-3.386-1.472-1.368-1.875-2.473-1.875-5.172 0-2.602-.316-3.543-1.312-3.88-4.582-1.554-9.184-4.105-9.938-5.503-2.222-4.16-.199-12.047 4.95-19.29 1.386-1.948 2.273-3.765 1.972-4.034-.496-.442-5.656-1.254-23.797-3.743-12.265-1.68-18.433-2.18-36-2.917-9.898-.415-22.386-.946-27.75-1.176-13.863-.594-53.004 1.418-66 3.394a3792.29 3792.29 0 0 1-13.394 1.996c-4.961.735-9.043 1.703-9.23 2.192-.184.484 1.347 3.105 3.406 5.824 2.71 3.578 3.886 5.902 4.261 8.406.676 4.492-.363 6.383-5.777 10.551-3.41 2.625-4.172 3.594-3.836 4.879.316 1.21-.344 2.308-2.691 4.476-3.543 3.274-3.73 4.258-1.559 8.122 1.785 3.18 5.656 5.722 13.098 8.609 2.87 1.113 5.851 2.277 6.62 2.582 1.302.52 1.259.723-.644 2.98-3.289 3.91-4.199 4.118-9.562 2.168-8.43-3.058-19.93-12.074-22.559-17.68-.726-1.554-.566-1.991 1.277-3.46 3.075-2.453 2.43-4.45-1.535-4.739-2.535-.183-3.332.09-4.304 1.481-1.59 2.27-1.508 3.312.605 7.746 2.45 5.148 6.012 8.508 14.746 13.906 7.875 4.868 8.793 5.68 7.672 6.801-.996.996-5.691-.816-11.777-4.539C48.62 92.129 30.71 83.254 25.14 81.387c-6.266-2.098-7.95-4.399-5.582-7.625.843-1.153 3.199-3.219 5.234-4.594 2.031-1.371 3.793-2.762 3.914-3.09.246-.676-8.59-3.039-11.363-3.039-1.785 0-1.828.129-1.446 4.332.391 4.32.383 4.344-2.75 7.172-1.726 1.562-3.539 2.707-4.023 2.547-.516-.172-1.14-2.88-1.492-6.465-.75-7.621.316-9.95 5.855-12.8 4.051-2.087 5.02-2.141 27-1.477l10.5.316 4.457-2.305c2.45-1.265 4.586-2.703 4.75-3.187.528-1.582-8.656-.977-20.77 1.375-21.066 4.09-24.316 3.055-25.902-8.258-.261-1.887-1.55-5.023-2.921-7.125-4.61-7.055-5.086-10.125-2.25-14.504 2.906-4.488 23.558-9.734 62.136-15.777 33.825-5.301 84.844-7.442 124.5-5.223 24.168 1.348 64.907 8.18 88.5 14.84 14.332 4.043 20.567 6.457 22.688 8.777 2.988 3.274 1.887 9.332-2.766 15.203-1.223 1.543-2.375 3.622-2.558 4.622-1.399 7.546-1.29 7.328-4.555 8.91-3.961 1.918-4.106 1.914-15.434-.356-9.504-1.902-25.758-3.254-28.148-2.336-1.238.477-1.238.578-.012 1.934 3.055 3.371 5.762 3.906 19.629 3.86 7.219-.02 13.367-.192 13.668-.38.3-.183 4.02-.035 8.262.332 5.718.496 8.383 1.086 10.304 2.274 3.094 1.914 5.836 6.812 5.133 9.18-.96 3.265-4.144 9.52-4.84 9.52-1.57 0-3.28-4.071-3.43-8.145-.081-2.325-.187-4.48-.234-4.79-.105-.718-8.996-.64-10.87.094-1.216.48-.848 1 2.628 3.735 5.371 4.238 10.41 10.308 10.41 12.558 0 2.672-2.343 4.531-6.46 5.137-4.083.594-10.56 3.683-21.258 10.137-3.934 2.375-8.532 5.015-10.207 5.867l-3.051 1.55.32 4.454c.29 4.004.145 4.578-1.43 5.68-2.148 1.503-2.18 1.503-4.316.007Zm3.055-6.336c.242-2.433.113-2.644-1.446-2.347-1.668.32-2.441 1.648-.957 1.648.41 0 .75.79.75 1.75 0 .965.246 1.996.547 2.3.633.634.75.278 1.106-3.35Zm46.738-36.457c1.383-2.918.898-4.902-1.305-5.336-1.265-.25-2.262 3.895-1.566 6.543.59 2.254 1.387 1.918 2.87-1.207ZM13.086 71.34c.992-1.852.996-5.38.008-7.973-.746-1.96-.813-1.984-2.25-.683-1.528 1.382-1.828 3.687-1.012 7.761.527 2.645 2.09 3.075 3.254.895Zm242.848-6.8c4.582-1.74 15.3-2.044 23.265-.657 4.063.707 5.723.633 10.403-.469 5.3-1.25 12.296-1.176 15.789.164 2.492.957.437-1.7-2.446-3.164-2.77-1.402-4.265-1.488-23.535-1.34-22.707.18-24.515-.117-28.765-4.703-1.762-1.898-2.149-2.016-3.942-1.2-3.355 1.528-7.09 4.731-7.09 6.079 0 2.605 6.352 6.695 10.5 6.762 1.032.015 3.653-.645 5.82-1.473Zm-215.07-.817c3.613-.602 7.218-.57 13.933.12l9.055.934 3.843-2.09c2.114-1.152 4.618-2.921 5.567-3.933l1.726-1.84-1.699-1.379c-.937-.758-3.2-1.953-5.035-2.652l-3.332-1.274-3.477 2.305c-1.914 1.266-5.703 3.043-8.418 3.945-4.593 1.532-5.656 1.602-15.113.996-15.86-1.015-24.02-.585-22.914 1.208.25.402 1.676.726 3.172.726 3.156 0 12.234 2.11 13.277 3.086.938.875 3.465.832 9.414-.152ZM260.16 49.219c7.613.043 12.215.531 20.418 2.168 9.938 1.984 14.535 2.125 14.535.453 0-1.524-28.996-9.563-40.5-11.227-4.183-.61-5.14-.52-6.75.61-2.386 1.672-7.285 8.797-7.933 11.53l-.493 2.09 10.899-5.679ZM71.34 47.12c-1.445-2.176-3.645-4.93-4.89-6.121-2.259-2.164-2.27-2.168-6.99-1.254-17.433 3.387-39.464 10.176-37.944 11.7 1.007 1.003 10.242.284 19.347-1.505 14.66-2.879 19.172-2.808 26.625.418 7.07 3.067 7.692 2.543 3.852-3.238Zm-48.453.61c5.953-3.145 20.367-6.993 39.351-10.497 20-3.699 31.164-5.023 60.75-7.226 20.242-1.504 71.364-.07 93.375 2.62 22.867 2.798 50.532 8.224 68.942 13.517 6.36 1.828 11.8 3.18 12.09 3 .289-.176.742-1.418 1.011-2.754.266-1.336 1.914-4.797 3.66-7.684 3.829-6.34 4.325-10.863 1.446-13.195-4.75-3.848-42.895-13.328-69.524-17.278-30.183-4.48-42.015-5.336-73.875-5.347-39.968-.016-77.226 3.238-109.875 9.597-3.3.645-7.55 1.454-9.449 1.801-8.894 1.625-21.691 4.781-25.36 6.254-5.382 2.16-7.152 4.555-6.445 8.727.309 1.824 1.446 4.187 2.707 5.625 2.739 3.117 4.422 7.093 4.422 10.437 0 2.813.614 4.961 1.418 4.961.278 0 2.688-1.152 5.356-2.559Zm257.976-6.84c-2.68-1.004-5.828-1.828-6.988-1.836-1.648-.012-2.031-.301-1.746-1.325.2-.722.586-2.074.851-3 .676-2.355 3.082-2.144 4.29.372 1.675 3.496 11.277 6.703 14.093 4.707.969-.688.89-.996-.566-2.22-.93-.78-4.125-2.35-7.098-3.487-8.36-3.192-11.094-7.047-6.937-9.77 2.5-1.637 10.031-1.086 14.48 1.066 1.774.856 3.707 1.372 4.297 1.145 2.418-.93 3.23.234 2.414 3.45-.926 3.66-3.004 4.116-4.488.987-1.274-2.69-6.899-5.554-10.352-5.277-4.652.375-3.195 2.23 4.004 5.082 6.469 2.567 10.246 5.488 10.246 7.922 0 4.3-8.004 5.36-16.5 2.184Zm-259.5-1.188c-7.93-2.39-8.492-9.508-1.097-13.844 4.539-2.66 12.34-4.82 17.418-4.82 2.437 0 4.714-.477 5.87-1.234 2.298-1.508 2.993-.89 3.669 3.27.472 2.921.375 3.19-1.332 3.62-1.387.348-2.348-.043-3.875-1.57-1.875-1.871-2.375-2-6.489-1.629-5.437.496-11.207 3.215-12.472 5.887-1.254 2.644.078 6.512 2.574 7.46 6.215 2.364 18.984-1.238 18.984-5.355 0-1.043.524-1.449 1.875-1.449 2.793 0 2.399 2.461-.828 5.121-4.637 3.82-18.254 6.371-24.297 4.543Zm237.563-4.25c-3.742-.754-5.813-1.527-5.813-2.168 0-.547.676-.996 1.5-.996.825 0 1.496-.25 1.489-.559-.036-1.64-1.73-2.523-6.922-3.597-4.754-.98-6.035-1.02-7.465-.219l-1.727.969 1.688.258c1.773.27 2.023.738 1.113 2.097-.394.586-2.32.48-6.738-.375-5.004-.968-6.188-1.453-6.188-2.543 0-1.129.418-1.27 2.563-.867 2.383.45 3.16.004 11.062-6.34 7.567-6.074 8.746-6.773 10.75-6.36 1.239.255 2.477.599 2.754.759.278.164 1.754 4.09 3.285 8.722 3.094 9.368 3.618 10.305 5.743 10.305 1.656 0 1.457 1.816-.22 1.98-.585.06-3.679-.421-6.874-1.066Zm-5.465-11.598c-.938-4.394-1.285-4.539-4.676-1.93-1.722 1.321-2.988 2.548-2.816 2.723.414.415 4.883 1.47 6.64 1.567 1.164.062 1.293-.297.852-2.36ZM60.137 32.562c-1.02-1.015-.496-1.66 1.758-2.152 1.64-.36 2.183-.848 1.94-1.75-.187-.683-.753-3.555-1.253-6.379-.902-5.062-.95-5.133-3-4.722-1.422.285-2.215.074-2.5-.668-.27-.7.172-1.211 1.246-1.438 8.238-1.746 13.543-2.59 14.11-2.242 1.308.809.652 1.648-1.657 2.11-1.437.284-2.191.824-1.972 1.406.195.515.793 3.378 1.324 6.363.957 5.37.988 5.422 3.203 5.25 1.23-.094 2.363.176 2.516.601.16.442-2.727 1.38-6.668 2.168-3.82.77-7.301 1.528-7.735 1.688-.433.16-1.023.055-1.312-.234Zm153.976-4.445c-3.093-.539-5.71-1.004-5.812-1.027-.102-.027-.188-.57-.188-1.207 0-.91.543-1.059 2.516-.688l2.52.473 1.605-6.41c.887-3.528 1.61-6.594 1.61-6.817 0-.218-.825-.402-1.833-.402-1.886 0-3.047-1.031-2.375-2.117.547-.883 15.672 2.394 16.031 3.473.196.578-.609.894-2.257.894h-2.563l-1.25 5.832c-1.57 7.3-1.605 6.918.621 6.918 1.168 0 1.875.426 1.875 1.125 0 1.363-2.5 1.356-10.5-.047Zm-129.75-.543c0-.726.782-1.273 2.016-1.422 1.988-.23 2.016-.304 1.766-5.113-.141-2.68-.278-5.465-.305-6.184-.035-.925-.668-1.316-2.137-1.316-1.262 0-2.09-.402-2.09-1.02 0-1.152 3.73-1.632 18.914-2.44l9.54-.505.773 2.031c.426 1.118.773 2.516.773 3.11 0 1.45-3.465 1.398-4.023-.059-.75-1.953-4.274-2.758-9.707-2.215l-5.102.512.227 2.356c.215 2.21.394 2.34 2.855 2.097 1.442-.14 2.895-.73 3.227-1.312.328-.578 1.426-1.055 2.433-1.055 1.438 0 1.86.414 1.934 1.875.05 1.031.137 2.469.188 3.191.125 1.75-3.278 2.262-4.188.63-.41-.731-1.672-1.196-3.258-1.196-2.531 0-2.586.066-2.586 3.11v3.109l5.438-.414c6.386-.485 9.09-1.543 10.215-4.008.546-1.207 1.437-1.797 2.718-1.797 1.704 0 1.856.227 1.41 2.066-1.312 5.41-.855 5.165-10.53 5.715-4.884.282-11.493.72-14.688.973-4.989.398-5.813.297-5.813-.719Zm94.332-2.05c-5.14-.805-8.152-2.258-10.265-4.946-2.075-2.637-1.977-4.933.332-7.676 3.39-4.035 10.87-5.445 24.726-4.668 2.063.118 4.426.094 5.25-.054 1.301-.23 1.532.207 1.727 3.3.219 3.364.125 3.56-1.653 3.56-1.035 0-2.703-.817-3.703-1.821-3.496-3.496-10.457-4.121-16.808-1.508-2.84 1.168-4.332 3.906-3.637 6.672 1.477 5.887 17.168 7.555 21.328 2.265 1.457-1.851 4.621-2.574 4.621-1.058 0 4.71-10.902 7.664-21.918 5.933Zm-55.332-.735c0-.41.844-.75 1.875-.75 1.86 0 1.875-.047 1.875-6.75 0-6.7-.015-6.75-1.875-6.75-1.168 0-1.875-.422-1.875-1.125 0-.894 1.102-1.121 5.438-1.117l5.437.004 8.84 5.62c4.867 3.09 9 5.618 9.192 5.618.187 0 .343-2.023.343-4.5 0-4.5 0-4.5-2.25-4.5-1.5 0-2.25-.375-2.25-1.125 0-.91 1.207-1.125 6.375-1.125s6.375.215 6.375 1.125c0 .75-.75 1.125-2.25 1.125h-2.25v15h-2.23c-1.465 0-4.762-1.625-9.563-4.719-4.035-2.593-8.597-5.492-10.144-6.433l-2.813-1.719v5.687c0 5.567.04 5.684 1.875 5.684 1.032 0 1.875.34 1.875.75 0 .441-2.5.75-6 .75s-6-.309-6-.75Zm106.953 88.066c-.746-1.953-.511-6.937.352-7.472.977-.606 4.195 2.277 5.64 5.055 1.172 2.25.43 3.234-1.886 2.496-.79-.25-1.649-.102-1.914.328-.703 1.133-1.668.957-2.192-.407Zm34.5-.75c-.875-2.285-.515-7.96.485-7.632.515.172 1.043 1.379 1.172 2.687.129 1.309.578 2.38.996 2.38.418 0 .66-1.173.535-2.606-.266-3.051 1.238-5.188 2.379-3.387.945 1.5.918 6.488-.047 8.293-.961 1.797-4.86 1.984-5.52.265Zm9.11-.375c-1.055-.613-1.313-1.804-1.313-6.039 0-3.882.246-5.195.938-4.968.515.172 1.105 1.972 1.312 4 .532 5.246 1.809 4.574 2.25-1.184.278-3.621.657-4.875 1.48-4.875 1.532 0 2.454 5.914 1.481 9.52-1.012 3.761-3.406 5.144-6.148 3.546Zm9.156-2.218c-1.332-1.332-1.5-2.32-1.312-7.68.175-4.977.453-6.195 1.44-6.383.958-.183 1.364.696 1.876 4.059 1.125 7.387 3.254 5.207 3.293-3.371.02-3.801 2.262-7.871 3.36-6.098 1.019 1.656.44 15.695-.743 17.984-1.746 3.38-5.348 4.055-7.914 1.489Zm-217.469-.496c0-.993-.199-1.075-.898-.375-1.457 1.457-2.102 1.046-2.102-1.325 0-3.402 3.91-5.007 6.32-2.597 1.493 1.492 1.583 5.57.126 5.57-.692 0-.942-.582-.73-1.684l.323-1.69-.882 1.69c-1.047 1.997-2.157 2.207-2.157.41Zm231.75-.442c-2.207-1.113-3.062-5.57-2.48-12.91.476-6 .773-6.879 1.941-5.715.512.508 1.078 3.805 1.29 7.438.34 5.902.519 6.527 1.874 6.527 1.39 0 1.516-.57 1.715-7.719.172-6.273.442-7.808 1.418-8.183 2.309-.887 3.328 1.941 3.172 8.777-.168 7.3-.922 10.059-3.176 11.64-1.93 1.352-3.293 1.387-5.754.145Zm-238.152-.715c-.277-.722-.844-1.097-1.262-.843-.414.257-1.047.004-1.41-.567-.473-.75-.656-.773-.664-.094-.008.512-.348.934-.762.934-1.078 0-.925-3.223.223-4.793.648-.887 1.715-1.25 3.187-1.082 1.883.215 2.25.613 2.45 2.672.129 1.332-.102 3.02-.512 3.75-.707 1.262-.773 1.262-1.25.023Zm-7.86-2.57c-.007-1.168-.124-1.203-.765-.25-.648.977-.902.934-1.863-.328-1.016-1.332-1.11-1.344-1.11-.125 0 .738-.418 1.184-.937 1.004-1.461-.512-.992-5.88.613-7.055 1.965-1.433 4.383-1.222 5.961.52 1.125 1.242 1.246 2.007.68 4.257-.735 2.903-2.559 4.305-2.578 1.977Zm-15.57-5.473c.196-2.05.785-4.242 1.313-4.875 1.148-1.386 4.781-1.515 5.867-.207 1.207 1.454 1.867 4.856 1.344 6.93-.532 2.125-2.68 2.57-2.715.566-.02-1.25-.059-1.25-.79 0-1.019 1.754-1.792 1.653-2.773-.375l-.812-1.69-.05 1.69c-.028.926-.435 1.684-.895 1.684-.563 0-.727-1.25-.489-3.723Zm-4.176 1.72c-.27-.274-.503-1.196-.515-2.056-.024-1.46-.09-1.476-1.02-.25-1.246 1.637-1.957 1.672-1.957.094 0-.98-.21-1.039-1.093-.308-2.63 2.18-3.625-2.227-1.372-6.047 1.266-2.14 2.114-2.508 5.09-2.192 2.614.278 3.375 1.551 3.375 5.637 0 3.703-1.289 6.336-2.508 5.121Zm254.633-3.247c.028-3.73.086-3.879.633-1.562.332 1.41.317 3.265-.031 4.125-.453 1.12-.625.394-.602-2.563Zm12.625-2.203c0-2.863.336-5.414.75-5.672.477-.293.75 1.621.75 5.207 0 3.281-.316 5.668-.75 5.668-.43 0-.75-2.234-.75-5.203Zm-280.5.004c0-.387.348-1.613.77-2.73 1.015-2.669.293-3.329-.863-.79-1.38 3.028-2.875 2.52-2.489-.84l.32-2.816-1.234 2.848c-1.305 3.011-3.387 3.55-3.879 1-.43-2.239 2.067-7.852 3.727-8.38 2.07-.655 4.484.055 6.476 1.907 2.942 2.742 1.942 10.5-1.355 10.5-.809 0-1.473-.312-1.473-.7Zm108.563-.649-2.813-.242v-5.125c0-3.84.278-5.23 1.114-5.55 1.214-.465 1.554.03 4.375 6.406 2.058 4.652 1.91 4.906-2.676 4.511Zm1.687-3.199c0-1.82-1.285-4.453-2.172-4.453-.566 0-.382 2.75.332 5.066.473 1.524 1.84 1.067 1.84-.613Zm5.742 3.074c-1.726-.324-2.464-1.175-3.906-4.527-.976-2.266-1.789-4.84-1.804-5.719-.036-1.851 1.992-3.851 2.87-2.836.91 1.051 5.454 12.387 5.2 12.965-.125.285-1.188.336-2.36.117Zm-1.222-6.34c-1.192-3.605-2.602-4.421-1.887-1.09.555 2.587 1.809 4.712 2.426 4.098.187-.187-.055-1.543-.54-3.007Zm-16.75 5.774c-1.16-.176-2.004-.547-1.871-.824.129-.281 1.168-2.281 2.304-4.446 1.809-3.44 2.364-3.94 4.364-3.94h2.293l-.453 4.233c-.247 2.329-.63 4.524-.848 4.875-.402.653-1.957.676-5.79.102Zm3.832-1.86c.492-.495.898-2.085.898-3.535 0-2.234-.148-2.468-.984-1.539-2.965 3.301-2.887 8.043.086 5.075Zm-13.3.95c-.868-.55-.458-1.48 2.151-4.863 3.301-4.282 3.688-4.497 6.61-3.711 2.219.593 2.136 1.32-.64 5.648-1.981 3.082-2.684 3.625-4.688 3.617-1.297-.008-2.844-.32-3.434-.691Zm6.312-3.516c1.375-3.289 1.375-3.285.171-3.285-1.218 0-3.777 4.254-3.16 5.254.867 1.402 1.852.754 2.989-1.969Zm22.171-1.879c-1.425-3.343-2.543-6.695-2.488-7.441.055-.75-.383-1.766-.972-2.254-1.575-1.305-1.32-4.273.44-5.219 2.173-1.16 3.173-.195 2.833 2.723-.227 1.945-.02 2.535.894 2.535 1.184 0 3.875 4.652 6.442 11.14 1.441 3.645.89 4.583-2.684 4.594-1.633.004-2.207-.777-4.465-6.078Zm5.43 3.38c.258-.255-.558-2.49-1.808-4.966-1.485-2.949-2.528-4.25-3.008-3.765-.48.48-.02 2.195 1.34 4.965 2.035 4.152 2.543 4.703 3.476 3.765Zm-6.766-14.981c.598-.602-.187-2.555-1.03-2.555-.368 0-.669.676-.669 1.5 0 1.465.797 1.957 1.7 1.055Zm36.098 16.625c-2.527-1.102-5.547-4.79-5.547-6.778 0-1.035.528-1.164 3.188-.765 3.699.554 9.008-1 13.437-3.934 3.832-2.535 3.657-3.48-.312-1.68-7.418 3.368-15.563.297-15.563-5.87 0-1.067.774-1.278 4.715-1.278 4.05 0 5.32-.363 8.961-2.57 2.336-1.414 4.074-2.848 3.867-3.188-.21-.34-1.554-.617-2.984-.617-1.434 0-3.723-.465-5.082-1.031-2.348-.98-5.727-4.414-5.727-5.817 0-.359 2.867-.652 6.375-.652 6.422 0 8.422-.902 3.973-1.793-3.024-.601-5.848-3.207-5.848-5.383 0-1.574.367-1.683 6.336-1.933 7.352-.305 8.727-1.094 7.125-4.082-1.441-2.696-1.21-7.512.446-9.34 1.343-1.485 1.351-1.485 3.003.066l1.66 1.559.825-2.36.82-2.359 2.344 1.75c1.293.965 2.8 2.078 3.36 2.477.714.511 1.523.246 2.745-.903 2.02-1.898 2.887-1.527 4.7 2.008 2.343 4.57 7.296 7.738 13.511 8.645 5.153.746 8.07 2.086 10.059 4.609 1.844 2.348 1.73 5.156-.336 8.313-1.496 2.28-2.098 2.18-3.117-.524-.664-1.754-1.309-2.25-2.934-2.25-1.965 0-2.004.063-.656 1.047 1.21.883 1.273 1.227.434 2.242-.547.656-1.258 1.031-1.583.832-.32-.195-.796.188-1.05.856-.407 1.05-1.368 1.144-7.075.699-5.332-.418-6.78-.305-7.511.574-2.348 2.828-1.578 15.559 1.191 19.785 2.219 3.387 7.45 4.957 10.707 3.215.906-.484 1.567-.492 1.856-.023.64 1.035-1.598 5.082-3.317 6.004-2.414 1.289-7.703.894-10.453-.778l-2.531-1.547-2.121 2.032c-2.047 1.96-2.188 1.988-4.035.777-1.055-.692-2.676-2.426-3.598-3.852-.926-1.425-2.023-2.597-2.445-2.601-.422-.004-2.043 1.043-3.602 2.328-5.531 4.555-13.187 6.277-18.21 4.09Zm12.078-3.711c4.598-2.172 6.828-4.09 7.836-6.742 1.235-3.239-.883-3.278-5.219-.094-4.105 3.012-10.171 5.617-13.082 5.617-2.335 0-3.078 1.188-1.363 2.184 2.328 1.355 7.867.902 11.828-.965Zm18.75-.469c.508-1.598-.136-4.508-.988-4.48-.281.007-1.348.656-2.367 1.441-1.824 1.402-1.832 1.453-.446 2.984 1.778 1.965 3.188 1.985 3.801.055Zm10.5.75c-2.062-.887-2.797-.887-2.25 0 .254.414 1.203.73 2.106.7 1.586-.052 1.59-.079.144-.7Zm-14.312-9.879c.55-3.125-.297-4.082-2.547-2.879-1.727.926-2.113 5.114-.61 6.614 1.27 1.27 2.536-.23 3.157-3.735Zm-18.18-2.246c3.969-1.191 12.617-9.117 12.617-11.562 0-.997-.218-1.813-.492-1.813-.266 0-2.234 1.652-4.367 3.668-4.422 4.184-8.516 6.488-12.8 7.203-5.028.844-5.423 1.086-3.759 2.309 1.766 1.3 4.875 1.37 8.801.195Zm22.977-2.309c.695-2.59.148-5.187-1.18-5.628-1.176-.391-1.895 2.558-1.344 5.503.606 3.23 1.68 3.282 2.524.125Zm-7.54-1.5c2.075-2.214 3.368-5.609 2.376-6.222-.977-.606-6.696 5.117-6.696 6.695 0 1.762 2.48 1.488 4.32-.473Zm8.403-8.015c.43-.797.777-2.676.777-4.176 0-2.402-.18-2.668-1.535-2.234-.848.265-1.988.11-2.543-.348-.738-.613-1.512-.605-2.922.04-2.195 1-2.98 2.515-2.343 4.523.37 1.164.707 1.253 2.02.55 1.347-.718 1.788-.554 3.015 1.125 1.707 2.348 2.492 2.465 3.53.52Zm-14.445-4.203c3.578-1.782 3.816-2.078 3.746-4.617-.067-2.286.41-3.145 2.988-5.41 2.7-2.372 3.105-3.16 3.414-6.618.316-3.55.172-4.043-1.527-5.156l-1.88-1.23.462 3.894c.554 4.691-.305 4.746-3.606.219-2.703-3.703-3.375-3.895-3.375-.953 0 1.422.848 3.187 2.352 4.898 1.289 1.473 2.219 2.79 2.058 2.926-1.582 1.37-4.949 2.195-10.27 2.531-5.581.348-6.198.52-4.987 1.406.836.614 3.375 1.012 6.402 1.012 4.402 0 5.07.188 5.418 1.516.719 2.75-2.695 4.597-10.59 5.738-4.082.59-2.676 1.723 2.156 1.738 2.172.004 4.809-.683 7.239-1.894Zm29.847-1.098c-.254-.41-1.37-.754-2.48-.758-2.48-.015-4.254-1.05-3.602-2.105.696-1.13 8.047-3.137 11.485-3.137 1.605 0 3.328.406 3.824.902.66.66 1.12.676 1.734.067 1.668-1.672-5.422-5.422-10.312-5.453-2.035-.016-11.395 8.804-9.914 9.343 4.097 1.5 9.93 2.22 9.265 1.141Zm-20.422-5.25c2.286-1.793 2.797-1.863 2.797-.375 0 1.645 1.008 1.383 2.86-.75.898-1.027 2.086-1.875 2.644-1.875.559 0 1.625-.672 2.371-1.5 1.563-1.723.676-1.96-1.418-.379-.957.727-2.422.938-4.523.649-2.719-.375-3.406-.149-5.52 1.828-3.695 3.453-3.047 5.425.79 2.402ZM211.73 52.5c2.254-2.852 1.758-2.828-.992.04-1.187 1.237-1.84 2.233-1.453 2.21.387-.023 1.488-1.035 2.445-2.25Zm-6.617-4.98c-.62-.22-1.543-.93-2.054-1.575-1.118-1.406-1.918-.86-1.258.864.285.738 1.265 1.207 2.457 1.171 1.129-.03 1.496-.23.855-.46Zm.575-6.23c-.946-1.513-2.075-2.005-2.075-.9 0 .782 1.625 2.4 2.407 2.4.332 0 .183-.673-.333-1.5Zm-20.075 52.206c0-.773 4.696-4.957 5.567-4.957.52 0 2.87 4.563 2.527 4.906-.754.754-8.094.801-8.094.051Zm-89.48-.23c-2.156-.559-1.149-1.832 4.793-6.043 6.601-4.684 7.976-5.215 9.5-3.692 1.023 1.024.73 1.617-2.824 5.703-3.696 4.25-4.172 4.551-7.04 4.47-1.69-.048-3.683-.243-4.43-.438Zm9.082-4.293c1.93-1.825 3.265-3.567 2.965-3.864-.785-.789-8.817 4.735-8.817 6.067 0 2.023 2.285 1.164 5.852-2.203Zm7.46-5.743c-1.07-.625-1.312-1.832-1.312-6.601 0-5.582-.101-5.93-2.324-7.91-1.89-1.688-2.23-2.442-1.82-4.063 1.277-5.066 1.261-6.738-.086-8.793-1.387-2.117-4.77-11.687-4.77-13.492 0-1.742 2.301-3.332 4.828-3.332 1.36 0 3.348-.687 4.422-1.535 1.68-1.32 2.352-1.426 4.813-.766 4.043 1.09 5.558 2.422 5.879 5.157.156 1.34 1.933 4.656 4.078 7.601l3.805 5.23-1.215 2.344c-.793 1.535-1.594 2.196-2.325 1.914-.613-.234-.914-.101-.664.301.57.926-.918 3.754-1.976 3.754-.442 0-1.469.848-2.278 1.875-1.824 2.32-2.718 2.367-3.593.191-.551-1.367-.688-1.43-.727-.328-.027.75.309 2.028.742 2.84.926 1.727 1.278 14.149.442 15.504-.684 1.106-4.098 1.172-5.918.11Zm3.712-9.5c-.242-3.609-.645-7.253-.903-8.097-.343-1.137.711-3.074 4.082-7.469 2.5-3.262 4.547-6.144 4.547-6.414 0-.266-1.008-1.969-2.234-3.785-1.234-1.813-2.246-4.04-2.25-4.945-.016-1.758-2.563-3.98-4.567-3.98-.667 0-1.828.675-2.574 1.5-.86.952-2.308 1.5-3.965 1.5h-2.609l.406 3.023c.223 1.66 1.063 4.273 1.864 5.808.8 1.54 2.066 3.95 2.812 5.363 1.172 2.22 1.238 3.02.477 5.868-.79 2.953-.727 3.5.629 5.218 1.171 1.493 1.511 3.047 1.511 6.946 0 5.242.274 6.023 2.106 6.023.918 0 1.031-1.086.668-6.559Zm-5.465-22.968c-.832-2.172.016-3.848 1.95-3.848 1.573 0 1.866.356 1.866 2.25 0 1.766-.367 2.305-1.691 2.492-.992.14-1.871-.23-2.125-.894Zm10.191 12.562c0-.996-.203-1.047-1.125-.285-.62.516-1.125 1.063-1.125 1.219 0 .156.504.281 1.125.281.617 0 1.125-.547 1.125-1.215Zm6-10.187c0-.309-1.433 1.035-3.187 2.984-1.754 1.95-3.356 3.715-3.563 3.918-.207.207-.832 1.05-1.394 1.875-.559.828 1.047-.684 3.562-3.355 2.52-2.672 4.582-5.114 4.582-5.422Zm-2.25 6.902c0-.41-.34-.75-.75-.75a.75.75 0 1 0 .75.75Zm3.442-5.055c-.52-.52-1.942.536-1.942 1.442 0 .5.43.441 1.145-.149.629-.523.988-1.105.797-1.293Zm-8.692 27.7c0-1.836 1.875-3.446 3.352-2.88 1.633.626.281 3.798-1.746 4.102-1.172.176-1.606-.152-1.606-1.222Zm5.559-.422c-.762-1.98.016-3.758 2.152-4.946 1.844-1.02 2.156-1.023 2.797-.027.395.621.723 1.484.73 1.922.036 2.484-4.882 5.125-5.68 3.05Zm3.441-2.407c0-1.328-1.617-1.093-2.078.293-.164.493.238.891.89.891.653 0 1.188-.531 1.188-1.184Zm-8.25-3.27c0-1.214.317-2.401.703-2.64.407-.254.176-1.363-.543-2.613-1.175-2.055-1.168-2.262.16-3.73 1.075-1.188 1.645-1.356 2.419-.715.789.652 1.011.515 1.011-.637 0-.813.668-2.078 1.48-2.816 1.438-1.301 1.505-1.278 2.282.761 1.055 2.782.457 4.094-1.863 4.094-2.024 0-2.293.82-1.946 5.852.184 2.632-.976 4.648-2.671 4.648-.641 0-1.032-.828-1.032-2.203Zm2.25-.464c0-.64-.336-.96-.75-.707-.414.258-.75.781-.75 1.172 0 .387.336.703.75.703s.75-.523.75-1.168Zm0-6.707c0-.617-.336-1.125-.75-1.125s-.75.508-.75 1.125c0 .621.336 1.125.75 1.125s.75-.504.75-1.125Zm4.5-3.418c0-.387-.336-.707-.75-.707s-.75.527-.75 1.172c0 .644.336.96.75.703.414-.254.75-.777.75-1.168Zm-1.75 10.043c-.828-.828-.562-4.387.399-5.348.496-.496 1.508-.902 2.25-.902 1.976 0 1.894 4.906-.098 5.977-1.71.914-1.894.933-2.55.273Zm2.5-3.668c0-.594-.34-1.082-.75-1.082-.414 0-.75.695-.75 1.547 0 .848.336 1.336.75 1.078.41-.254.75-.95.75-1.543Zm2.575-1.394c-.637-2.532-.18-4.258 1.382-5.23 1.614-1.005 2.766.374 2.782 3.331.02 3.594-3.356 5.133-4.165 1.899Zm3.05-2.563c0-1.465-1.46-1.344-1.75.152-.175.91.082 1.282.742 1.063.555-.188 1.008-.73 1.008-1.215Zm-38.812-4.441c-3.469-.7-5.813-1.543-5.813-2.094 0-.508 1.434-1.496 3.188-2.2 5.199-2.074 5.808-2.949 2.375-3.39-2.88-.363-2.938-.434-2.84-3.332.082-2.43.644-3.465 3.16-5.812 3.324-3.098 6.84-3.883 6.902-1.54.02.72 1.336 4.012 2.926 7.31 2.781 5.769 2.852 6.1 1.813 8.6-1.762 4.231-2.328 4.348-11.711 2.458Zm8.86-3.524c1.14-1.738 1.105-1.976-.622-4.312-1.004-1.36-2.348-3.82-2.98-5.473-1.348-3.504-2.47-3.754-4.52-1.012-1.71 2.293-1.227 3.637 1.309 3.637 3.144 0 4.14.79 4.14 3.277 0 1.606-.515 2.688-1.61 3.371-1.3.81-1.41 1.133-.562 1.668 1.836 1.16 3.602.743 4.844-1.156Zm25.038 2.867c-.57-1.504-.472-2.402.41-3.75 1.575-2.402 3.008-2.23 4.137.493.813 1.964.758 2.468-.398 3.75-1.836 2.027-3.254 1.859-4.149-.493Zm3.32-.875c.594-.957-.78-2.64-1.699-2.078-1.203.746-1.023 2.676.25 2.676.594 0 1.246-.266 1.45-.598ZM81.84 60.738c-2.235-1.758-2.473-3.558-.88-6.644 1.036-2.004 7.306-6.805 8.888-6.805.433 0 .55 1.684.297 4.168-.344 3.32-.836 4.48-2.415 5.723-1.496 1.18-1.87 1.992-1.535 3.336.582 2.308-1.562 2.418-4.355.222Zm3.402-4.937c.754-.684 1.36-1.95 1.348-2.813-.024-1.457-.16-1.418-1.875.532-2.754 3.128-2.348 4.882.527 2.28" style="stroke:none;fill-rule:evenodd;fill:#000;fill-opacity:1"/></svg>