<?xml version="1.0" encoding="UTF-8"?>
<!DOCTYPE svg PUBLIC "-//W3C//DTD SVG 1.1//EN" "http://www.w3.org/Graphics/SVG/1.1/DTD/svg11.dtd">
<svg xmlns="http://www.w3.org/2000/svg" version="1.1" width="512px" height="512px" style="shape-rendering:geometricPrecision; text-rendering:geometricPrecision; image-rendering:optimizeQuality; fill-rule:evenodd; clip-rule:evenodd" xmlns:xlink="http://www.w3.org/1999/xlink">
<g><path style="opacity:0.962" fill="#000000" d="M 175.5,-0.5 C 188.5,-0.5 201.5,-0.5 214.5,-0.5C 287.947,9.79037 341.114,48.1237 374,114.5C 384.228,137.411 389.728,161.411 390.5,186.5C 439.53,200.354 475.03,230.354 497,276.5C 504.192,292.952 509.026,309.952 511.5,327.5C 511.5,339.833 511.5,352.167 511.5,364.5C 508.293,387.954 500.96,410.121 489.5,431C 496.47,457.393 503.803,483.559 511.5,509.5C 511.5,510.167 511.5,510.833 511.5,511.5C 510.833,511.5 510.167,511.5 509.5,511.5C 483.559,503.803 457.393,496.47 431,489.5C 410.121,500.96 387.954,508.293 364.5,511.5C 352.5,511.5 340.5,511.5 328.5,511.5C 264.245,502.085 218.745,467.752 192,408.5C 189.456,402.703 187.623,396.703 186.5,390.5C 153.911,389.024 123.411,380.357 95,364.5C 63.1228,373.071 31.2895,381.738 -0.5,390.5C -0.5,389.833 -0.5,389.167 -0.5,388.5C 8.60889,357.744 17.2756,326.744 25.5,295.5C 18.6093,282.341 12.776,268.675 8,254.5C 4.31164,241.546 1.4783,228.546 -0.5,215.5C -0.5,201.833 -0.5,188.167 -0.5,174.5C 12.6977,89.1319 60.3643,32.9652 142.5,6C 153.524,3.22802 164.524,1.06135 175.5,-0.5 Z M 194.5,29.5 C 269.068,33.5904 320.901,69.9237 350,138.5C 371.852,209.599 355.686,270.432 301.5,321C 252.391,359.754 198.058,369.421 138.5,350C 125.013,344.673 112.179,338.173 100,330.5C 81.5102,335.609 63.0102,340.609 44.5,345.5C 49.3912,326.99 54.3912,308.49 59.5,290C 26.6171,238.884 21.4504,185.051 44,128.5C 74.7464,66.0396 124.913,33.0396 194.5,29.5 Z M 389.5,218.5 C 440.705,238.218 470.872,275.218 480,329.5C 483.649,364.74 475.482,396.907 455.5,426C 459.405,439.453 463.071,452.953 466.5,466.5C 452.953,463.071 439.453,459.405 426,455.5C 379.08,486.051 330.58,488.884 280.5,464C 251.286,446.755 230.619,422.255 218.5,390.5C 290.41,378.994 342.243,340.661 374,275.5C 382.12,257.307 387.286,238.307 389.5,218.5 Z"/></g>
<g><path style="opacity:0.962" fill="#000000" d="M 183.5,89.5 C 219.213,86.4234 242.713,101.757 254,135.5C 258.113,156.145 253.447,174.479 240,190.5C 230.333,199.5 220.667,208.5 211,217.5C 210.5,225.159 210.334,232.826 210.5,240.5C 200.167,240.5 189.833,240.5 179.5,240.5C 179.333,228.162 179.5,215.829 180,203.5C 193,191.167 206,178.833 219,166.5C 228.072,150.613 225.572,136.78 211.5,125C 191.659,115.393 176.825,120.559 167,140.5C 166.047,143.432 165.547,146.432 165.5,149.5C 155.167,149.5 144.833,149.5 134.5,149.5C 137.014,118.005 153.347,98.0046 183.5,89.5 Z"/></g>
<g><path style="opacity:0.968" fill="#000000" d="M 179.5,270.5 C 189.833,270.5 200.167,270.5 210.5,270.5C 210.5,280.5 210.5,290.5 210.5,300.5C 200.167,300.5 189.833,300.5 179.5,300.5C 179.5,290.5 179.5,280.5 179.5,270.5 Z"/></g>
</svg>
