<?xml version="1.0" encoding="UTF-8"?>
<!DOCTYPE svg PUBLIC "-//W3C//DTD SVG 1.1//EN" "http://www.w3.org/Graphics/SVG/1.1/DTD/svg11.dtd">
<svg xmlns="http://www.w3.org/2000/svg" version="1.1" width="512px" height="512px" style="shape-rendering:geometricPrecision; text-rendering:geometricPrecision; image-rendering:optimizeQuality; fill-rule:evenodd; clip-rule:evenodd" xmlns:xlink="http://www.w3.org/1999/xlink">
<g><path style="opacity:0.966" fill="#000000" d="M 287.5,55.5 C 291.257,55.0708 294.757,55.7375 298,57.5C 299.379,62.036 299.879,66.7027 299.5,71.5C 345.835,71.3333 392.168,71.5 438.5,72C 446.667,74.8333 452.167,80.3333 455,88.5C 455.986,123.585 455.653,158.585 454,193.5C 450.744,195.429 447.244,195.929 443.5,195C 441.667,194.5 440.5,193.333 440,191.5C 439.667,159.5 439.333,127.5 439,95.5C 438.594,92.5056 437.094,90.339 434.5,89C 386.891,87.8403 339.224,87.3403 291.5,87.5C 243.776,87.3403 196.109,87.8403 148.5,89C 145.906,90.339 144.406,92.5056 144,95.5C 143.168,103.521 143.335,111.521 144.5,119.5C 175.284,129.791 187.117,150.791 180,182.5C 178.627,185.412 177.127,188.246 175.5,191C 176.5,191.667 177.5,191.667 178.5,191C 197.833,182 217.167,173 236.5,164C 258.594,162.094 268.76,172.26 267,194.5C 266.1,199.063 263.933,202.896 260.5,206C 235.319,218.423 209.986,230.59 184.5,242.5C 183.501,258.82 183.167,275.153 183.5,291.5C 266.167,291.667 348.834,291.5 431.5,291C 436,290.5 438.5,288 439,283.5C 439.333,271.5 439.667,259.5 440,247.5C 440.5,245.667 441.667,244.5 443.5,244C 446.167,243.333 448.833,243.333 451.5,244C 453.333,244.5 454.5,245.667 455,247.5C 455.667,261.833 455.667,276.167 455,290.5C 452.649,297.519 448.149,302.686 441.5,306C 390.893,307.486 340.226,307.986 289.5,307.5C 289.167,331.509 289.5,355.509 290.5,379.5C 314.186,400.353 338.019,421.02 362,441.5C 365.833,453.667 361.667,457.833 349.5,454C 329.385,436.853 309.552,419.353 290,401.5C 289.667,409.167 289.333,416.833 289,424.5C 288.234,429.309 285.401,431.976 280.5,432.5C 278.189,431.786 276.022,430.786 274,429.5C 272.72,420.267 272.053,410.934 272,401.5C 251.833,419 231.667,436.5 211.5,454C 199.333,457.833 195.167,453.667 199,441.5C 223.333,420.5 247.667,399.5 272,378.5C 272.5,354.836 272.667,331.169 272.5,307.5C 242.833,307.5 213.167,307.5 183.5,307.5C 183.949,317.605 183.449,327.605 182,337.5C 178.744,339.429 175.244,339.929 171.5,339C 169.667,338.5 168.5,337.333 168,335.5C 167.333,301.167 167.333,266.833 168,232.5C 171.752,229.371 175.919,226.871 180.5,225C 202.953,214.94 225.287,204.607 247.5,194C 251.582,189.449 251.249,185.116 246.5,181C 244.5,180.333 242.5,180.333 240.5,181C 215.167,192.667 189.833,204.333 164.5,216C 138.452,211.472 112.785,213.139 87.5,221C 77.7515,225.327 72.5848,232.827 72,243.5C 71.3333,270.833 71.3333,298.167 72,325.5C 73.8137,332.319 77.9803,334.153 84.5,331C 86.0037,329.509 86.8371,327.676 87,325.5C 87.3333,299.5 87.6667,273.5 88,247.5C 89.5286,244.484 92.0286,243.151 95.5,243.5C 98.9714,243.151 101.471,244.484 103,247.5C 103.019,309.203 103.685,370.87 105,432.5C 112,440.5 119,440.5 126,432.5C 127.302,395.539 127.968,358.539 128,321.5C 128.5,319.667 129.667,318.5 131.5,318C 134.167,317.333 136.833,317.333 139.5,318C 141.333,318.5 142.5,319.667 143,321.5C 143.032,358.539 143.698,395.539 145,432.5C 150.839,439.556 157.339,440.223 164.5,434.5C 166.015,432.453 166.849,430.119 167,427.5C 167.333,415.5 167.667,403.5 168,391.5C 169.529,388.484 172.029,387.151 175.5,387.5C 178.971,387.151 181.471,388.484 183,391.5C 183.667,406.167 183.667,420.833 183,435.5C 177.276,450.287 166.443,456.787 150.5,455C 145.013,453.922 140.013,451.756 135.5,448.5C 119.885,458.822 105.385,457.488 92,444.5C 90.3921,441.618 89.0587,438.618 88,435.5C 87.5,406.502 87.3334,377.502 87.5,348.5C 73.0301,351.681 62.5301,346.681 56,333.5C 55.3333,300.167 55.3333,266.833 56,233.5C 59.3784,220.883 66.8784,211.716 78.5,206C 86.0619,203.257 93.7285,200.923 101.5,199C 89.7649,185.894 85.9316,170.727 90,153.5C 96.2094,135.791 108.376,124.458 126.5,119.5C 127.332,109.183 127.832,98.8494 128,88.5C 130.833,80.3333 136.333,74.8333 144.5,72C 190.832,71.5 237.165,71.3333 283.5,71.5C 283.334,67.4862 283.501,63.4862 284,59.5C 284.69,57.6498 285.856,56.3164 287.5,55.5 Z M 134.5,135.5 C 152.966,137.467 163.3,147.633 165.5,166C 164.079,184.588 154.079,194.755 135.5,196.5C 116.921,194.755 106.921,184.588 105.5,166C 107.536,148.466 117.202,138.3 134.5,135.5 Z"/></g>
<g><path style="opacity:0.991" fill="#000000" d="M 211.5,119.5 C 264.834,119.333 318.168,119.5 371.5,120C 374.516,121.529 375.849,124.029 375.5,127.5C 375.849,130.971 374.516,133.471 371.5,135C 318.167,135.667 264.833,135.667 211.5,135C 208.484,133.471 207.151,130.971 207.5,127.5C 207.282,123.934 208.616,121.268 211.5,119.5 Z"/></g>
<g><path style="opacity:0.988" fill="#000000" d="M 278.5,151.5 C 320.168,151.333 361.835,151.5 403.5,152C 406.516,153.529 407.849,156.029 407.5,159.5C 407.849,162.971 406.516,165.471 403.5,167C 361.833,167.667 320.167,167.667 278.5,167C 271.982,161.856 271.982,156.689 278.5,151.5 Z"/></g>
<g><path style="opacity:0.987" fill="#000000" d="M 287.5,183.5 C 326.168,183.333 364.835,183.5 403.5,184C 406.516,185.529 407.849,188.029 407.5,191.5C 407.849,194.971 406.516,197.471 403.5,199C 364.833,199.667 326.167,199.667 287.5,199C 280.914,193.84 280.914,188.673 287.5,183.5 Z"/></g>
<g><path style="opacity:0.89" fill="#000000" d="M 443.5,211.5 C 454.86,210.71 458.193,215.543 453.5,226C 442.964,229.997 438.464,226.497 440,215.5C 440.69,213.65 441.856,212.316 443.5,211.5 Z"/></g>
<g><path style="opacity:0.988" fill="#000000" d="M 271.5,215.5 C 315.501,215.333 359.501,215.5 403.5,216C 406.516,217.529 407.849,220.029 407.5,223.5C 407.849,226.971 406.516,229.471 403.5,231C 359.5,231.667 315.5,231.667 271.5,231C 264.982,225.856 264.982,220.689 271.5,215.5 Z"/></g>
<g><path style="opacity:0.889" fill="#000000" d="M 171.5,355.5 C 182.86,354.71 186.193,359.543 181.5,370C 170.964,373.997 166.464,370.497 168,359.5C 168.69,357.65 169.856,356.316 171.5,355.5 Z"/></g>
</svg>
