<?xml version="1.0" encoding="UTF-8"?>
<!DOCTYPE svg PUBLIC "-//W3C//DTD SVG 1.1//EN" "http://www.w3.org/Graphics/SVG/1.1/DTD/svg11.dtd">
<svg xmlns="http://www.w3.org/2000/svg" version="1.1" width="163px" height="163px" style="shape-rendering:geometricPrecision; text-rendering:geometricPrecision; image-rendering:optimizeQuality; fill-rule:evenodd; clip-rule:evenodd" xmlns:xlink="http://www.w3.org/1999/xlink">
<g><path style="opacity:1" fill="#000000" d="M 135.5,6.5 C 135.167,6.5 134.833,6.5 134.5,6.5C 133.167,6.5 131.833,6.5 130.5,6.5C 87.6634,6.16799 44.9967,6.50133 2.5,7.5C 1.83333,7.5 1.16667,7.5 0.5,7.5C 0.610709,6.88258 0.944043,6.38258 1.5,6C 46.3352,5.16854 91.0019,5.3352 135.5,6.5 Z"/></g>
<g><path style="opacity:1" fill="#000000" d="M 130.5,6.5 C 89.3313,7.16667 47.998,7.83333 6.5,8.5C 48.1613,9.49991 89.828,9.83325 131.5,9.5C 131.5,10.5 131.5,11.5 131.5,12.5C 131.167,12.5 130.833,12.5 130.5,12.5C 88.931,11.1705 47.2643,11.1705 5.5,12.5C 5.31598,10.0752 4.64932,10.0752 3.5,12.5C 1.24585,11.286 0.912513,9.61937 2.5,7.5C 44.9967,6.50133 87.6634,6.16799 130.5,6.5 Z"/></g>
<g><path style="opacity:1" fill="#000000" d="M 130.5,6.5 C 131.833,6.5 133.167,6.5 134.5,6.5C 133.1,7.10008 132.1,8.10008 131.5,9.5C 89.828,9.83325 48.1613,9.49991 6.5,8.5C 47.998,7.83333 89.3313,7.16667 130.5,6.5 Z"/></g>
<g><path style="opacity:1" fill="#000000" d="M 0.5,7.5 C 1.16667,7.5 1.83333,7.5 2.5,7.5C 0.912513,9.61937 1.24585,11.286 3.5,12.5C 4.64932,10.0752 5.31598,10.0752 5.5,12.5C 5.5,15.8333 5.5,19.1667 5.5,22.5C 4.53261,21.1938 3.19928,20.5271 1.5,20.5C 1.18665,23.2469 1.51998,25.9135 2.5,28.5C 3.19238,27.9747 3.69238,27.3081 4,26.5C 4.66667,34.8333 4.66667,43.1667 4,51.5C 2.62986,42.4577 1.79653,42.791 1.5,52.5C 2.5,52.5 3.5,52.5 4.5,52.5C 4.66463,55.5184 4.49796,58.5184 4,61.5C 3.66667,61.1667 3.33333,60.8333 3,60.5C 2.74888,62.433 2.24888,64.2663 1.5,66C 1.68429,68.2763 1.68429,70.6096 1.5,73C 1.86229,74.2247 2.36229,75.3914 3,76.5C 3.33333,76.1667 3.66667,75.8333 4,75.5C 4.66667,79.5 4.66667,83.5 4,87.5C 3.06582,83.7179 2.23249,83.8846 1.5,88C 2.05463,92.1657 2.05463,96.1657 1.5,100C 2.44802,100.483 3.44802,100.649 4.5,100.5C 4.66463,103.518 4.49796,106.518 4,109.5C 3.0862,108.346 2.25286,108.513 1.5,110C 2.20883,114.132 3.20883,117.465 4.5,120C 4.49819,122.586 3.49819,124.586 1.5,126C 1.65363,130.18 1.65363,134.346 1.5,138.5C 4.03038,141.27 5.03038,144.603 4.5,148.5C 3.5,148.5 2.5,148.5 1.5,148.5C 1.73731,149.791 1.40397,150.791 0.5,151.5C 0.5,103.5 0.5,55.5 0.5,7.5 Z"/></g>
<g><path style="opacity:1" fill="#000000" d="M 149.5,136.5 C 149.5,129.833 149.5,123.167 149.5,116.5C 149.667,86.1648 149.5,55.8315 149,25.5C 147.141,26.6455 146.307,28.3122 146.5,30.5C 146.962,33.2698 146.962,35.9365 146.5,38.5C 149.044,40.6112 149.044,42.7779 146.5,45C 146.954,68.6696 146.954,92.5029 146.5,116.5C 145.565,98.1681 145.065,68.5014 145,27.5C 144.5,63.4985 144.333,99.4985 144.5,135.5C 143.336,99.3356 143.169,63.0023 144,26.5C 145.224,23.527 147.224,22.8603 150,24.5C 150.831,62.0023 150.664,99.3356 149.5,136.5 Z"/></g>
<g><path style="opacity:1" fill="#000000" d="M 5.5,22.5 C 5.5,45.8333 5.5,69.1667 5.5,92.5C 4.52693,94.9479 4.1936,97.6146 4.5,100.5C 3.44802,100.649 2.44802,100.483 1.5,100C 2.05463,96.1657 2.05463,92.1657 1.5,88C 2.23249,83.8846 3.06582,83.7179 4,87.5C 4.66667,83.5 4.66667,79.5 4,75.5C 3.66667,75.8333 3.33333,76.1667 3,76.5C 2.36229,75.3914 1.86229,74.2247 1.5,73C 1.68429,70.6096 1.68429,68.2763 1.5,66C 2.24888,64.2663 2.74888,62.433 3,60.5C 3.33333,60.8333 3.66667,61.1667 4,61.5C 4.49796,58.5184 4.66463,55.5184 4.5,52.5C 3.5,52.5 2.5,52.5 1.5,52.5C 1.79653,42.791 2.62986,42.4577 4,51.5C 4.66667,43.1667 4.66667,34.8333 4,26.5C 3.69238,27.3081 3.19238,27.9747 2.5,28.5C 1.51998,25.9135 1.18665,23.2469 1.5,20.5C 3.19928,20.5271 4.53261,21.1938 5.5,22.5 Z"/></g>
<g><path style="opacity:1" fill="#000000" d="M 64.5,63.5 C 64.6664,55.16 64.4997,46.8267 64,38.5C 62.9887,39.3366 61.8221,39.67 60.5,39.5C 60.8257,47.6841 60.4924,55.6841 59.5,63.5C 48.3206,63.8279 37.3206,63.4946 26.5,62.5C 37.5,62.5 48.5,62.5 59.5,62.5C 59.5,54.8333 59.5,47.1667 59.5,39.5C 59.6716,38.5084 59.3382,37.8417 58.5,37.5C 47.4315,36.8233 36.2648,36.1567 25,35.5C 23.883,36.9494 23.2163,38.6161 23,40.5C 22.6667,39.5 22.3333,38.5 22,37.5C 21.5002,46.4938 21.3336,55.4938 21.5,64.5C 20.8341,60.0124 20.5008,55.3457 20.5,50.5C 20.3819,45.0591 20.8819,39.7258 22,34.5C 22.7504,33.8742 23.5838,33.3742 24.5,33C 36.8333,32.3333 49.1667,32.3333 61.5,33C 63.259,34.008 64.4257,35.508 65,37.5C 65.8236,46.3433 65.6569,55.0099 64.5,63.5 Z M 26.5,38.5 C 37.5813,38.1901 48.5813,38.5234 59.5,39.5C 59.5,47.1667 59.5,54.8333 59.5,62.5C 48.5,62.5 37.5,62.5 26.5,62.5C 26.5,54.5 26.5,46.5 26.5,38.5 Z"/></g>
<g><path style="opacity:1" fill="#000000" d="M 26.5,38.5 C 36.9869,37.5056 47.6536,37.1722 58.5,37.5C 59.3382,37.8417 59.6716,38.5084 59.5,39.5C 48.5813,38.5234 37.5813,38.1901 26.5,38.5 Z"/></g>
<g><path style="opacity:1" fill="#000000" d="M 122.5,39.5 C 122.5,40.8333 122.5,42.1667 122.5,43.5C 106.83,43.6666 91.1631,43.4999 75.5,43C 74.244,42.5831 73.5774,41.7498 73.5,40.5C 73.6107,39.8826 73.944,39.3826 74.5,39C 90.672,38.1719 106.672,38.3386 122.5,39.5 Z"/></g>
<g><path style="opacity:1" fill="#000000" d="M 122.5,39.5 C 124.599,40.3697 124.932,41.703 123.5,43.5C 106.843,44.6663 90.1767,44.8329 73.5,44C 72.2089,42.7083 72.2089,41.5417 73.5,40.5C 73.5774,41.7498 74.244,42.5831 75.5,43C 91.1631,43.4999 106.83,43.6666 122.5,43.5C 122.5,42.1667 122.5,40.8333 122.5,39.5 Z"/></g>
<g><path style="opacity:1" fill="#000000" d="M 58.5,37.5 C 47.6536,37.1722 36.9869,37.5056 26.5,38.5C 26.5,46.5 26.5,54.5 26.5,62.5C 37.3206,63.4946 48.3206,63.8279 59.5,63.5C 47.6419,64.2265 35.6419,64.8931 23.5,65.5C 22.8333,65.5 22.1667,65.5 21.5,65.5C 21.5,65.1667 21.5,64.8333 21.5,64.5C 21.3336,55.4938 21.5002,46.4938 22,37.5C 22.3333,38.5 22.6667,39.5 23,40.5C 23.2163,38.6161 23.883,36.9494 25,35.5C 36.2648,36.1567 47.4315,36.8233 58.5,37.5 Z"/></g>
<g><path style="opacity:1" fill="#000000" d="M 131.5,9.5 C 132.239,9.36899 132.906,9.53566 133.5,10C 132.836,53.2643 132.169,96.431 131.5,139.5C 131.5,97.1667 131.5,54.8333 131.5,12.5C 131.5,11.5 131.5,10.5 131.5,9.5 Z"/></g>
<g><path style="opacity:1" fill="#000000" d="M 123.5,58.5 C 107.163,58.6666 90.8299,58.4999 74.5,58C 73.7476,57.3292 73.4142,56.4959 73.5,55.5C 89.9949,54.3384 106.662,54.1717 123.5,55C 124.791,56.2917 124.791,57.4583 123.5,58.5 Z"/></g>
<g><path style="opacity:1" fill="#000000" d="M 73.5,55.5 C 73.4142,56.4959 73.7476,57.3292 74.5,58C 90.8299,58.4999 107.163,58.6666 123.5,58.5C 107.005,59.6616 90.3384,59.8283 73.5,59C 72.2089,57.7083 72.2089,56.5417 73.5,55.5 Z"/></g>
<g><path style="opacity:1" fill="#000000" d="M 134.5,6.5 C 134.833,6.5 135.167,6.5 135.5,6.5C 136.906,6.97306 137.573,7.97306 137.5,9.5C 137.667,54.8346 137.5,100.168 137,145.5C 135.594,146.668 134.428,146.335 133.5,144.5C 132.818,145.243 132.151,145.909 131.5,146.5C 131.5,144.167 131.5,141.833 131.5,139.5C 132.169,96.431 132.836,53.2643 133.5,10C 132.906,9.53566 132.239,9.36899 131.5,9.5C 132.1,8.10008 133.1,7.10008 134.5,6.5 Z"/></g>
<g><path style="opacity:1" fill="#000000" d="M 129.5,12.5 C 129.833,12.5 130.167,12.5 130.5,12.5C 130.833,12.5 131.167,12.5 131.5,12.5C 131.5,54.8333 131.5,97.1667 131.5,139.5C 131.5,141.833 131.5,144.167 131.5,146.5C 131.5,147.5 131.5,148.5 131.5,149.5C 125.167,149.5 118.833,149.5 112.5,149.5C 107.167,149.5 101.833,149.5 96.5,149.5C 66.5,149.5 36.5,149.5 6.5,149.5C 6.5,149.167 6.5,148.833 6.5,148.5C 47.8333,148.5 89.1667,148.5 130.5,148.5C 130.828,103.095 130.495,57.7613 129.5,12.5 Z"/></g>
<g><path style="opacity:1" fill="#000000" d="M 64.5,63.5 C 64.5,63.8333 64.5,64.1667 64.5,64.5C 63.0689,65.0819 61.7356,65.9152 60.5,67C 48.8333,67.6667 37.1667,67.6667 25.5,67C 24.5842,66.7216 23.9175,66.2216 23.5,65.5C 35.6419,64.8931 47.6419,64.2265 59.5,63.5C 60.4924,55.6841 60.8257,47.6841 60.5,39.5C 61.8221,39.67 62.9887,39.3366 64,38.5C 64.4997,46.8267 64.6664,55.16 64.5,63.5 Z"/></g>
<g><path style="opacity:1" fill="#000000" d="M 64.5,64.5 C 64.0557,66.1132 63.0557,67.2798 61.5,68C 49.1667,68.6667 36.8333,68.6667 24.5,68C 23.0577,67.6232 22.0577,66.7899 21.5,65.5C 22.1667,65.5 22.8333,65.5 23.5,65.5C 23.9175,66.2216 24.5842,66.7216 25.5,67C 37.1667,67.6667 48.8333,67.6667 60.5,67C 61.7356,65.9152 63.0689,65.0819 64.5,64.5 Z"/></g>
<g><path style="opacity:1" fill="#000000" d="M 149.5,116.5 C 148.5,116.5 147.5,116.5 146.5,116.5C 146.954,92.5029 146.954,68.6696 146.5,45C 149.044,42.7779 149.044,40.6112 146.5,38.5C 146.962,35.9365 146.962,33.2698 146.5,30.5C 146.307,28.3122 147.141,26.6455 149,25.5C 149.5,55.8315 149.667,86.1648 149.5,116.5 Z"/></g>
<g><path style="opacity:1" fill="#000000" d="M 119.5,81.5 C 108.5,81.5 97.5,81.5 86.5,81.5C 64.1642,81.3334 41.8308,81.5 19.5,82C 18.1667,83 18.1667,84 19.5,85C 52.4983,85.5 85.4983,85.6666 118.5,85.5C 118.833,85.5 119.167,85.5 119.5,85.5C 86.0025,86.6642 52.3358,86.8309 18.5,86C 15.8333,84.3333 15.8333,82.6667 18.5,81C 52.3358,80.1691 86.0025,80.3358 119.5,81.5 Z"/></g>
<g><path style="opacity:1" fill="#000000" d="M 86.5,81.5 C 86.6309,82.3764 86.2975,83.0431 85.5,83.5C 71.2297,82.9234 56.8964,82.9234 42.5,83.5C 67.9968,84.1667 93.3301,84.8333 118.5,85.5C 85.4983,85.6666 52.4983,85.5 19.5,85C 18.1667,84 18.1667,83 19.5,82C 41.8308,81.5 64.1642,81.3334 86.5,81.5 Z"/></g>
<g><path style="opacity:1" fill="#000000" d="M 86.5,81.5 C 97.5,81.5 108.5,81.5 119.5,81.5C 120.833,82.8333 120.833,84.1667 119.5,85.5C 119.167,85.5 118.833,85.5 118.5,85.5C 93.3301,84.8333 67.9968,84.1667 42.5,83.5C 56.8964,82.9234 71.2297,82.9234 85.5,83.5C 86.2975,83.0431 86.6309,82.3764 86.5,81.5 Z"/></g>
<g><path style="opacity:1" fill="#000000" d="M 130.5,12.5 C 130.167,12.5 129.833,12.5 129.5,12.5C 88.5942,12.17 47.7609,12.5033 7,13.5C 6.50001,58.4988 6.33334,103.499 6.5,148.5C 6.5,148.833 6.5,149.167 6.5,149.5C 5.50304,130.674 5.16971,111.674 5.5,92.5C 5.5,69.1667 5.5,45.8333 5.5,22.5C 5.5,19.1667 5.5,15.8333 5.5,12.5C 47.2643,11.1705 88.931,11.1705 130.5,12.5 Z"/></g>
<g><path style="opacity:1" fill="#000000" d="M 5.5,92.5 C 5.16971,111.674 5.50304,130.674 6.5,149.5C 36.5,149.5 66.5,149.5 96.5,149.5C 66.5,150.167 36.5,150.833 6.5,151.5C 5.85013,151.196 5.18346,150.863 4.5,150.5C 3.30441,150.846 3.30441,151.346 4.5,152C 3.55198,152.483 2.55198,152.649 1.5,152.5C 0.833333,152.5 0.5,152.167 0.5,151.5C 1.40397,150.791 1.73731,149.791 1.5,148.5C 2.5,148.5 3.5,148.5 4.5,148.5C 5.03038,144.603 4.03038,141.27 1.5,138.5C 1.65363,134.346 1.65363,130.18 1.5,126C 3.49819,124.586 4.49819,122.586 4.5,120C 3.20883,117.465 2.20883,114.132 1.5,110C 2.25286,108.513 3.0862,108.346 4,109.5C 4.49796,106.518 4.66463,103.518 4.5,100.5C 4.1936,97.6146 4.52693,94.9479 5.5,92.5 Z"/></g>
<g><path style="opacity:1" fill="#000000" d="M 118.5,96.5 C 118.833,96.5 119.167,96.5 119.5,96.5C 120.833,97.8333 120.833,99.1667 119.5,100.5C 119.167,100.5 118.833,100.5 118.5,100.5C 92.0061,99.3039 65.3394,98.4706 38.5,98C 65.3365,97.8322 92.0031,97.3322 118.5,96.5 Z"/></g>
<g><path style="opacity:1" fill="#000000" d="M 118.5,96.5 C 92.0031,97.3322 65.3365,97.8322 38.5,98C 65.3394,98.4706 92.0061,99.3039 118.5,100.5C 85.4983,100.667 52.4983,100.5 19.5,100C 18.1667,99 18.1667,98 19.5,97C 52.4983,96.5 85.4983,96.3334 118.5,96.5 Z"/></g>
<g><path style="opacity:1" fill="#000000" d="M -0.5,7.5 C -0.166667,7.5 0.166667,7.5 0.5,7.5C 0.5,55.5 0.5,103.5 0.5,151.5C 0.5,152.167 0.833333,152.5 1.5,152.5C 2.16667,153.5 2.83333,154.5 3.5,155.5C 3.16667,155.5 2.83333,155.5 2.5,155.5C 1.5,154.833 0.5,154.167 -0.5,153.5C -0.5,104.833 -0.5,56.1667 -0.5,7.5 Z"/></g>
<g><path style="opacity:1" fill="#000000" d="M 119.5,96.5 C 119.167,96.5 118.833,96.5 118.5,96.5C 85.4983,96.3334 52.4983,96.5 19.5,97C 18.1667,98 18.1667,99 19.5,100C 52.4983,100.5 85.4983,100.667 118.5,100.5C 118.833,100.5 119.167,100.5 119.5,100.5C 86.0025,101.664 52.3358,101.831 18.5,101C 15.8333,99.3333 15.8333,97.6667 18.5,96C 52.3358,95.1691 86.0025,95.3358 119.5,96.5 Z"/></g>
<g><path style="opacity:1" fill="#000000" d="M 22.5,111.5 C 54.1684,111.333 85.8351,111.5 117.5,112C 118.973,112.71 119.64,113.876 119.5,115.5C 85.5,115.5 51.5,115.5 17.5,115.5C 16.2089,114.458 16.2089,113.292 17.5,112C 19.299,110.964 20.9657,110.797 22.5,111.5 Z"/></g>
<g><path style="opacity:1" fill="#000000" d="M 22.5,111.5 C 54.3307,110.336 86.3307,110.169 118.5,111C 120.192,112.401 120.859,114.234 120.5,116.5C 85.9959,116.832 51.6626,116.498 17.5,115.5C 51.5,115.5 85.5,115.5 119.5,115.5C 119.64,113.876 118.973,112.71 117.5,112C 85.8351,111.5 54.1684,111.333 22.5,111.5 Z"/></g>
<g><path style="opacity:1" fill="#000000" d="M 146.5,116.5 C 147.5,116.5 148.5,116.5 149.5,116.5C 149.5,123.167 149.5,129.833 149.5,136.5C 147.545,137.93 145.879,137.597 144.5,135.5C 144.333,99.4985 144.5,63.4985 145,27.5C 145.065,68.5014 145.565,98.1681 146.5,116.5 Z"/></g>
<g><path style="opacity:1" fill="#000000" d="M 17.5,127.5 C 51.669,126.17 86.0024,126.17 120.5,127.5C 121.421,129.031 121.088,130.365 119.5,131.5C 119.5,130.167 119.5,128.833 119.5,127.5C 85.5,127.5 51.5,127.5 17.5,127.5 Z"/></g>
<g><path style="opacity:1" fill="#000000" d="M 17.5,127.5 C 51.5,127.5 85.5,127.5 119.5,127.5C 119.5,128.833 119.5,130.167 119.5,131.5C 86.2382,132.659 52.9048,132.826 19.5,132C 16.715,131.274 16.0484,129.774 17.5,127.5 Z"/></g>
<g><path style="opacity:1" fill="#000000" d="M 162.5,33.5 C 162.5,69.8333 162.5,106.167 162.5,142.5C 161.869,144.975 160.869,147.309 159.5,149.5C 157.219,151.428 154.553,152.428 151.5,152.5C 151.662,150.176 152.828,148.509 155,147.5C 155.49,146.207 155.657,144.873 155.5,143.5C 155.168,106.33 155.502,69.3296 156.5,32.5C 158.638,31.1919 160.638,31.5252 162.5,33.5 Z"/></g>
<g><path style="opacity:1" fill="#000000" d="M 156.5,32.5 C 157.5,32.5 158.5,32.5 159.5,32.5C 159.993,68.979 159.493,105.312 158,141.5C 156.507,105.312 156.007,68.979 156.5,32.5 Z"/></g>
<g><path style="opacity:1" fill="#000000" d="M 96.5,149.5 C 101.833,149.5 107.167,149.5 112.5,149.5C 105.647,151.481 97.9804,153.147 89.5,154.5C 61.8313,154.667 34.1647,154.5 6.5,154C 118.418,152.187 118.418,151.354 6.5,151.5C 36.5,150.833 66.5,150.167 96.5,149.5 Z"/></g>
<g><path style="opacity:1" fill="#000000" d="M 137.5,9.5 C 138.172,55.069 138.838,100.736 139.5,146.5C 139.859,148.371 140.859,149.871 142.5,151C 142,151.5 141.5,152 141,152.5C 140.581,151.328 139.915,150.328 139,149.5C 130.912,150.317 122.745,150.817 114.5,151C 115.167,151.333 115.833,151.667 116.5,152C 113.211,152.882 109.877,153.548 106.5,154C 121.127,155.373 135.793,155.873 150.5,155.5C 101.167,156.833 51.8333,156.833 2.5,155.5C 2.83333,155.5 3.16667,155.5 3.5,155.5C 38.8481,155.852 67.5147,155.519 89.5,154.5C 97.9804,153.147 105.647,151.481 112.5,149.5C 118.833,149.5 125.167,149.5 131.5,149.5C 131.5,148.5 131.5,147.5 131.5,146.5C 132.151,145.909 132.818,145.243 133.5,144.5C 134.428,146.335 135.594,146.668 137,145.5C 137.5,100.168 137.667,54.8346 137.5,9.5 Z"/></g>
<g><path style="opacity:1" fill="#000000" d="M 6.5,151.5 C 118.418,151.354 118.418,152.187 6.5,154C 34.1647,154.5 61.8313,154.667 89.5,154.5C 67.5147,155.519 38.8481,155.852 3.5,155.5C 2.83333,154.5 2.16667,153.5 1.5,152.5C 2.55198,152.649 3.55198,152.483 4.5,152C 3.30441,151.346 3.30441,150.846 4.5,150.5C 5.18346,150.863 5.85013,151.196 6.5,151.5 Z"/></g>
<g><path style="opacity:1" fill="#000000" d="M 155.5,143.5 C 155.657,144.873 155.49,146.207 155,147.5C 152.828,148.509 151.662,150.176 151.5,152.5C 154.553,152.428 157.219,151.428 159.5,149.5C 157.565,153.103 154.565,155.103 150.5,155.5C 135.793,155.873 121.127,155.373 106.5,154C 109.877,153.548 113.211,152.882 116.5,152C 115.833,151.667 115.167,151.333 114.5,151C 122.745,150.817 130.912,150.317 139,149.5C 139.915,150.328 140.581,151.328 141,152.5C 141.5,152 142,151.5 142.5,151C 140.859,149.871 139.859,148.371 139.5,146.5C 142.592,149.355 146.259,150.188 150.5,149C 153.113,147.893 154.78,146.06 155.5,143.5 Z"/></g>
</svg>