<?xml version="1.0" encoding="UTF-8"?>
<!DOCTYPE svg PUBLIC "-//W3C//DTD SVG 1.1//EN" "http://www.w3.org/Graphics/SVG/1.1/DTD/svg11.dtd">
<svg xmlns="http://www.w3.org/2000/svg" version="1.1" width="512px" height="512px" style="shape-rendering:geometricPrecision; text-rendering:geometricPrecision; image-rendering:optimizeQuality; fill-rule:evenodd; clip-rule:evenodd" xmlns:xlink="http://www.w3.org/1999/xlink">
<g><path style="opacity:0.945" fill="#000000" d="M 244.5,-0.5 C 251.833,-0.5 259.167,-0.5 266.5,-0.5C 309.197,8.70844 332.197,35.2084 335.5,79C 334.487,107.366 322.487,129.699 299.5,146C 316.489,153.57 330.989,164.403 343,178.5C 345.988,191.842 340.822,196.676 327.5,193C 303.225,165.462 272.892,154.796 236.5,161C 222.08,164.045 209.08,170.045 197.5,179C 191.813,183.689 186.479,188.689 181.5,194C 169.104,195.608 164.604,190.441 168,178.5C 180.011,164.403 194.511,153.57 211.5,146C 177.89,120.409 168.056,87.5757 182,47.5C 194.636,20.6832 215.469,4.68316 244.5,-0.5 Z M 246.5,20.5 C 277.363,18.3363 298.863,31.3363 311,59.5C 319.631,93.7335 308.131,118.567 276.5,134C 246.709,142.959 222.876,134.792 205,109.5C 192.443,85.7437 194.11,63.077 210,41.5C 219.931,30.4562 232.097,23.4562 246.5,20.5 Z"/></g>
<g><path style="opacity:0.949" fill="#000000" d="M 141.5,205.5 C 180.018,203.331 207.851,219.331 225,253.5C 238.94,293.594 229.107,326.427 195.5,352C 221.863,364.53 241.863,383.697 255.5,409.5C 269.11,383.725 289.11,364.558 315.5,352C 284.875,329.465 274.042,299.632 283,262.5C 293.878,230.465 316.045,211.632 349.5,206C 389.02,203.337 417.187,219.837 434,255.5C 446.014,291.776 437.848,322.609 409.5,348C 407.5,349.333 405.5,350.667 403.5,352C 446.174,372.367 469.674,406.2 474,453.5C 474.943,470.886 474.61,488.22 473,505.5C 471.457,507.378 469.624,508.878 467.5,510C 325.42,510.997 183.42,510.663 41.5,509C 38.732,507.238 37.232,504.738 37,501.5C 36.3333,485.5 36.3333,469.5 37,453.5C 41.326,406.2 64.826,372.367 107.5,352C 76.6665,329.175 65.8331,299.009 75,261.5C 86.2879,229.791 108.455,211.124 141.5,205.5 Z M 142.5,226.5 C 172.242,224.459 193.408,236.792 206,263.5C 214.952,289.859 209.119,312.359 188.5,331C 164.405,348.515 140.072,348.849 115.5,332C 89.6091,307.891 85.7758,280.724 104,250.5C 114.11,238.034 126.943,230.034 142.5,226.5 Z M 351.5,226.5 C 379.435,224.712 399.935,236.045 413,260.5C 424.868,294.903 415.035,321.07 383.5,339C 356.644,348.994 333.477,343.494 314,322.5C 295.5,296.332 296.167,270.666 316,245.5C 325.849,235.327 337.682,228.994 351.5,226.5 Z M 138.5,365.5 C 182.315,362.653 214.815,380.319 236,418.5C 241.837,431.183 244.837,444.516 245,458.5C 245.5,468.828 245.666,479.161 245.5,489.5C 182.833,489.5 120.167,489.5 57.5,489.5C 57.1913,474.469 57.6913,459.469 59,444.5C 65.5605,409.271 85.3939,384.771 118.5,371C 125.208,368.826 131.875,366.993 138.5,365.5 Z M 346.5,365.5 C 391.319,362.654 424.153,380.987 445,420.5C 449.555,431.386 452.221,442.719 453,454.5C 453.5,466.162 453.667,477.829 453.5,489.5C 390.833,489.5 328.167,489.5 265.5,489.5C 265.077,472.762 265.911,456.095 268,439.5C 279.201,398.795 305.368,374.128 346.5,365.5 Z"/></g>
</svg>
