<?xml version="1.0" encoding="UTF-8"?>
<!DOCTYPE svg PUBLIC "-//W3C//DTD SVG 1.1//EN" "http://www.w3.org/Graphics/SVG/1.1/DTD/svg11.dtd">
<svg xmlns="http://www.w3.org/2000/svg" version="1.1" width="512px" height="512px" style="shape-rendering:geometricPrecision; text-rendering:geometricPrecision; image-rendering:optimizeQuality; fill-rule:evenodd; clip-rule:evenodd" xmlns:xlink="http://www.w3.org/1999/xlink">
<g><path style="opacity:0.965" fill="#000000" d="M 245.5,-0.5 C 252.167,-0.5 258.833,-0.5 265.5,-0.5C 273.146,1.55846 280.146,5.05846 286.5,10C 306,29.5 325.5,49 345,68.5C 345.333,49.1667 345.667,29.8333 346,10.5C 347.599,5.40601 350.766,1.73934 355.5,-0.5C 380.5,-0.5 405.5,-0.5 430.5,-0.5C 434.785,1.62186 437.952,4.9552 440,9.5C 440.333,61.1667 440.667,112.833 441,164.5C 461,184.5 481,204.5 501,224.5C 505.942,230.854 509.442,237.854 511.5,245.5C 511.5,252.167 511.5,258.833 511.5,265.5C 503.156,292.489 484.822,304.822 456.5,302.5C 456.667,357.168 456.5,411.834 456,466.5C 450.315,490.684 435.482,505.684 411.5,511.5C 373.833,511.5 336.167,511.5 298.5,511.5C 294.215,509.378 291.048,506.045 289,501.5C 288.5,462.168 288.333,422.835 288.5,383.5C 266.5,383.5 244.5,383.5 222.5,383.5C 222.667,422.835 222.5,462.168 222,501.5C 219.952,506.045 216.785,509.378 212.5,511.5C 174.833,511.5 137.167,511.5 99.5,511.5C 75.5183,505.684 60.6849,490.684 55,466.5C 54.5,411.834 54.3333,357.168 54.5,302.5C 26.2026,304.855 7.86922,292.522 -0.5,265.5C -0.5,258.833 -0.5,252.167 -0.5,245.5C 1.55846,237.854 5.05846,230.854 10,224.5C 81.5,153 153,81.5 224.5,10C 230.854,5.05846 237.854,1.55846 245.5,-0.5 Z M 376.5,29.5 C 387.5,29.5 398.5,29.5 409.5,29.5C 409.667,63.835 409.5,98.1683 409,132.5C 398.333,121.833 387.667,111.167 377,100.5C 376.5,76.8357 376.333,53.169 376.5,29.5 Z M 250.5,30.5 C 256.311,29.7743 261.645,30.9409 266.5,34C 336.667,104.167 406.833,174.333 477,244.5C 484.38,259.379 480.047,268.713 464,272.5C 460.616,271.928 457.449,270.761 454.5,269C 391.5,206 328.5,143 265.5,80C 258.833,75.3333 252.167,75.3333 245.5,80C 182.5,143 119.5,206 56.5,269C 45.0296,274.845 36.5296,272.011 31,260.5C 29.7762,254.696 30.7762,249.362 34,244.5C 104.167,174.333 174.333,104.167 244.5,34C 246.432,32.5415 248.432,31.3748 250.5,30.5 Z M 254.5,115.5 C 311.75,171.249 368.583,227.583 425,284.5C 425.667,343.833 425.667,403.167 425,462.5C 421.276,473.79 413.443,479.957 401.5,481C 374.169,481.5 346.835,481.667 319.5,481.5C 319.977,441.452 319.477,401.452 318,361.5C 315.685,357.183 312.185,354.35 307.5,353C 272.833,352.333 238.167,352.333 203.5,353C 198.815,354.35 195.315,357.183 193,361.5C 191.523,401.452 191.023,441.452 191.5,481.5C 164.165,481.667 136.831,481.5 109.5,481C 97.5574,479.957 89.7241,473.79 86,462.5C 85.3333,403.167 85.3333,343.833 86,284.5C 142.368,228.299 198.535,171.965 254.5,115.5 Z"/></g>
</svg>
