<?xml version="1.0" encoding="UTF-8" standalone="no"?>
<svg
   xmlns:dc="http://purl.org/dc/elements/1.1/"
   xmlns:cc="http://creativecommons.org/ns#"
   xmlns:rdf="http://www.w3.org/1999/02/22-rdf-syntax-ns#"
   xmlns:svg="http://www.w3.org/2000/svg"
   xmlns="http://www.w3.org/2000/svg"
   viewBox="0 0 645.33331 552"
   height="552"
   width="645.33331"
   style="shape-rendering:geometricPrecision; text-rendering:geometricPrecision; image-rendering:optimizeQuality; fill-rule:evenodd; clip-rule:evenodd"
   xml:space="preserve"
   id="svg2"
   version="1.1"><metadata
     id="metadata8"><rdf:RDF><cc:Work
         rdf:about=""><dc:format>image/svg+xml</dc:format><dc:type
           rdf:resource="http://purl.org/dc/dcmitype/StillImage" /></cc:Work></rdf:RDF></metadata><defs
     id="defs6" /><g
     transform="matrix(1.3333333,0,0,-1.3333333,0,552)"
     id="g10"><g
       transform="scale(0.1)"
       id="g12"><path
         id="path14"
         style="fill:none;stroke:#000000;stroke-width:140;stroke-linecap:butt;stroke-linejoin:miter;stroke-miterlimit:22.92560005;stroke-dasharray:none;stroke-opacity:1"
         d="M 626.789,2142.13 C 698.148,810.324 1782.59,89.3789 3062.53,474.09 c 43.42,33.281 126.63,67.848 179.4,-31.203 L 3397.94,115.273 C 3442.62,25.457 3514.05,2.5625 3608.55,37.2695 4363.85,443.188 4761.18,1205.45 4817.59,1987.34 c 5.66,129.41 -61.84,169.4 -179.4,148.21 h -327.61 c -137.16,6.38 -120.76,27.59 -140.41,117.01 -13.37,1235.74 -1440.92,2133.96 -2579.1,1455.85 -91.25,-55.75 -158.51,-44.33 -202.67,31.8 l -185.14,314.22 c -69.82,81.95 -150.35,88.92 -239.01,39 C 425.234,3658.11 131.109,3180.19 25.418,2669.51 3.0625,2553.78 56.0273,2488.25 174.945,2466.7 l 352.485,-34.74 c 136.492,-48.88 108.64,-134.13 99.359,-289.83" /><path
         id="path16"
         style="fill:none;stroke:#000000;stroke-width:140;stroke-linecap:butt;stroke-linejoin:miter;stroke-miterlimit:22.92560005;stroke-dasharray:none;stroke-opacity:1"
         d="m 2405.67,3667.43 c 840.72,0 1522.26,-685.75 1522.26,-1531.66 0,-845.91 -681.54,-1531.665 -1522.26,-1531.665 -840.73,0 -1522.272,685.755 -1522.272,1531.665 0,845.91 681.542,1531.66 1522.272,1531.66 z" /><path
         id="path18"
         style="fill:none;stroke:#000000;stroke-width:140;stroke-linecap:butt;stroke-linejoin:miter;stroke-miterlimit:22.92560005;stroke-dasharray:none;stroke-opacity:1"
         d="m 2073.95,2696.32 c 441.12,0 798.71,-365.32 798.71,-815.96 0,-450.65 -357.59,-815.97 -798.71,-815.97 -441.13,0 -798.72,365.32 -798.72,815.97 0,450.64 357.59,815.96 798.72,815.96 z" /><path
         id="path20"
         style="fill:none;stroke:#000000;stroke-width:140;stroke-linecap:butt;stroke-linejoin:miter;stroke-miterlimit:22.92560005;stroke-dasharray:none;stroke-opacity:1"
         d="m 2071.54,2436.46 c 309.55,0 560.5,-255.16 560.5,-569.91 0,-314.76 -250.95,-569.92 -560.5,-569.92 -309.56,0 -560.5,255.16 -560.5,569.92 0,314.75 250.94,569.91 560.5,569.91 z" /><path
         id="path22"
         style="fill:none;stroke:#000000;stroke-width:140;stroke-linecap:butt;stroke-linejoin:miter;stroke-miterlimit:22.92560005;stroke-dasharray:none;stroke-opacity:1"
         d="m 2094.6,2076.55 c 121.96,0 220.82,-100.96 220.82,-225.52 0,-124.55 -98.86,-225.51 -220.82,-225.51 -121.96,0 -220.82,100.96 -220.82,225.51 0,124.56 98.86,225.52 220.82,225.52 z" /><path
         id="path24"
         style="fill:none;stroke:#000000;stroke-width:140;stroke-linecap:butt;stroke-linejoin:miter;stroke-miterlimit:22.92560005;stroke-dasharray:none;stroke-opacity:1"
         d="M 1136,1668.05 C 1369.2,820.211 2308.05,524.957 2947.09,1315.13 l 221.06,23.28 -34.91,473.13 34.91,267.59 112.46,-170.64 197.79,108.59 -267.59,434.35 -193.91,445.99 -182.27,-69.81 77.56,-232.69 -240.44,143.5 -197.79,151.24 239.15,36.7 42.42,268.02 -466.62,52.06 -493.62,53.99 -45.7,-674.2 c 144.94,65.13 546.57,150.11 785.35,-79.46 250.54,-240.87 391.78,-539.23 312.27,-871.54 -119.03,-497.5 -591.4,-685.191 -991.07,-580.13 -288.84,75.93 -493.89,294.29 -561.03,603.53 z" /><path
         id="path26"
         style="fill:none;stroke:#000000;stroke-width:140;stroke-linecap:butt;stroke-linejoin:miter;stroke-miterlimit:22.92560005;stroke-dasharray:none;stroke-opacity:1"
         d="m 626.789,2142.13 1368.931,-267.75 -2.4,-35.89 -1293.3,-168.36 c -45.383,160.11 -69.813,317.45 -73.231,472 z" /><path
         id="path28"
         style="fill:none;stroke:#000000;stroke-width:140;stroke-linecap:butt;stroke-linejoin:miter;stroke-miterlimit:22.92560005;stroke-dasharray:none;stroke-opacity:1"
         d="m 2058.21,2073.51 12.33,-122.66 c 114.7,6.31 143.5,-178.53 32.13,-201.59 l 31.23,-120.19 c 114.67,29.92 192.82,118.47 166.81,274.75 -42.27,135.33 -130.19,178.95 -242.5,169.69 z" /><path
         id="path30"
         style="fill:none;stroke:#000000;stroke-width:140;stroke-linecap:butt;stroke-linejoin:miter;stroke-miterlimit:22.92560005;stroke-dasharray:none;stroke-opacity:1"
         d="m 2082.55,1950.85 c 49.53,0 89.68,-45.71 89.68,-102.08 0,-56.38 -40.15,-102.09 -89.68,-102.09 -49.53,0 -89.68,45.71 -89.68,102.09 0,56.37 40.15,102.08 89.68,102.08 z" /><path
         id="path32"
         style="fill:none;stroke:#000000;stroke-width:140;stroke-linecap:butt;stroke-linejoin:miter;stroke-miterlimit:22.92560005;stroke-dasharray:none;stroke-opacity:1"
         d="m 1685.8,1453.06 c 64.24,78.77 151.1,117.94 262.68,113.87 136.64,-42.2 202.45,-132.68 208.89,-263.66 -178.09,-18.35 -339.12,19.03 -471.57,149.79 z" /><path
         id="path34"
         style="fill:none;stroke:#000000;stroke-width:140;stroke-linecap:butt;stroke-linejoin:miter;stroke-miterlimit:22.92560005;stroke-dasharray:none;stroke-opacity:1"
         d="m 2073.17,1626.56 c 7.24,-100.53 72.89,-162.11 194.88,-186.13 106.16,-22.74 195.69,9.95 266.54,104.91 55.38,115.22 60.55,223.61 -13.55,321.18 -77.62,83.52 -155.24,118.47 -232.86,93.12 54.41,-197.44 -12.1,-311.96 -215.01,-333.08 z" /><path
         id="path36"
         style="fill:none;stroke:#000000;stroke-width:140;stroke-linecap:butt;stroke-linejoin:miter;stroke-miterlimit:22.92560005;stroke-dasharray:none;stroke-opacity:1"
         d="m 2598.71,2095.1 c -49.09,-29.16 -79.74,-70.62 -82.11,-130.94 3.96,-51.48 43.79,-92.74 109.36,-126.07 -2.67,96.27 0.97,183.62 -27.25,257.01 z" /><path
         id="path38"
         style="fill:none;stroke:#000000;stroke-width:140;stroke-linecap:butt;stroke-linejoin:miter;stroke-miterlimit:22.92560005;stroke-dasharray:none;stroke-opacity:1"
         d="m 2071.54,2436.46 c -76.64,-58.61 -93.37,-129.38 -74.39,-198.61 7.78,-96.93 255.73,-292.47 442.38,-155.12 40.78,34.9 69.42,83.98 68.52,141.34 -112.61,145.73 -260.03,212.16 -436.51,212.39 z" /><path
         id="path40"
         style="fill:none;stroke:#000000;stroke-width:140;stroke-linecap:butt;stroke-linejoin:miter;stroke-miterlimit:22.92560005;stroke-dasharray:none;stroke-opacity:1"
         d="m 1901.98,2409.92 c 61.15,-94.43 72.25,-189.24 -51.9,-354.11 l -134.93,-126.55 -195.35,38.21 c 44.3,237.52 180.49,375.48 382.18,442.45 z" /><path
         id="path42"
         style="fill:none;stroke:#000000;stroke-width:140;stroke-linecap:butt;stroke-linejoin:miter;stroke-miterlimit:22.92560005;stroke-dasharray:none;stroke-opacity:1"
         d="m 1699.6,1800.25 c -38.42,-74.71 -19.6,-136.22 75.79,-180.07 75.18,-11.61 126.54,14.91 150.26,85.63 -28.79,22.14 -44.35,62.9 -50.2,117.33 z" /><path
         id="path44"
         style="fill:none;stroke:#000000;stroke-width:140;stroke-linecap:butt;stroke-linejoin:miter;stroke-miterlimit:22.92560005;stroke-dasharray:none;stroke-opacity:1"
         d="m 927.293,2502.43 431.677,-257.95 c -37.19,-62.17 -63.13,-136.16 -73.2,-231.23 l -401.754,78.57 c -9.172,118.07 5.699,255.32 43.277,410.61 z" /><path
         id="path46"
         style="fill:none;stroke:#000000;stroke-width:140;stroke-linecap:butt;stroke-linejoin:miter;stroke-miterlimit:22.92560005;stroke-dasharray:none;stroke-opacity:1"
         d="m 2261.04,3660.61 -0.33,-119 c -197.44,10.88 -394.89,-15.18 -592.33,-65.49 197.18,105.45 394.73,167.81 592.66,184.49 z" /><path
         id="path48"
         style="fill:none;stroke:#000000;stroke-width:140;stroke-linecap:butt;stroke-linejoin:miter;stroke-miterlimit:22.92560005;stroke-dasharray:none;stroke-opacity:1"
         d="m 2405.66,3667.43 -7.25,-133.48 c 257.12,-22.54 486.63,-127.9 696.14,-293.24 l 121.63,191.8 c -250.74,156.65 -521.21,233.78 -810.52,234.92 z" /><path
         id="path50"
         style="fill:none;stroke:#000000;stroke-width:140;stroke-linecap:butt;stroke-linejoin:miter;stroke-miterlimit:22.92560005;stroke-dasharray:none;stroke-opacity:1"
         d="m 3356.36,3332.08 -134.31,-195.92 c 146.86,-141.56 265.37,-302.98 344.25,-492.14 l 236.01,102 c -108.01,232.99 -251.42,433.19 -445.95,586.06 z" /><path
         id="path52"
         style="fill:none;stroke:#000000;stroke-width:140;stroke-linecap:butt;stroke-linejoin:miter;stroke-miterlimit:22.92560005;stroke-dasharray:none;stroke-opacity:1"
         d="M 3857.55,2597.49 3627.5,2493.57 c 53.63,-190.23 67.06,-387.77 45.89,-591.59 l 235.32,-10.32 c 32.67,241.82 13.88,476.86 -51.16,705.83 z" /><path
         id="path54"
         style="fill:none;stroke:#000000;stroke-width:140;stroke-linecap:butt;stroke-linejoin:miter;stroke-miterlimit:22.92560005;stroke-dasharray:none;stroke-opacity:1"
         d="m 3876.08,1737.94 -233.29,-4.26 c -70.49,-393.63 -367.9,-747.434 -826,-1073.059 505.7,159.031 879.65,490.799 1059.29,1077.319 z" /><path
         id="path56"
         style="fill:none;stroke:#000000;stroke-width:140;stroke-linecap:butt;stroke-linejoin:miter;stroke-miterlimit:22.92560005;stroke-dasharray:none;stroke-opacity:1"
         d="m 686.875,2748.95 c -24.258,-124.18 -81.809,-184.56 -188.863,-150.06 -89.231,23.55 -116.883,89.43 -95.727,188.87 l 152.645,-38.81 c 90.312,273.82 239.984,523.89 468.28,742.52 -31.534,106.31 -13.33,187.76 93.13,225.08 83.94,19.58 139.43,-21.29 168.17,-119.01 C 963.168,3368.96 759.852,3087.92 686.875,2748.95 Z" /><path
         id="path58"
         style="fill:none;stroke:#000000;stroke-width:140;stroke-linecap:butt;stroke-linejoin:miter;stroke-miterlimit:22.92560005;stroke-dasharray:none;stroke-opacity:1"
         d="m 3628.05,438.984 -89.7,128.707 c 339.09,233.676 586.56,607.449 748.83,1111.539 170.91,-11.09 230.81,164.5 120.91,245.72 -129.05,61.66 -223.31,41.11 -237.91,-167.71 -56.86,-476.19 -270.77,-838.158 -670.83,-1064.744 -113.12,-58.961 -145.59,-132.144 -81.9,-222.308 59.75,-73.141 130.05,-82.872 210.6,-31.204 z" /></g></g></svg>