<?xml version="1.0" encoding="UTF-8"?>
<!DOCTYPE svg PUBLIC "-//W3C//DTD SVG 1.1//EN" "http://www.w3.org/Graphics/SVG/1.1/DTD/svg11.dtd">
<svg xmlns="http://www.w3.org/2000/svg" version="1.1" width="512px" height="512px" style="shape-rendering:geometricPrecision; text-rendering:geometricPrecision; image-rendering:optimizeQuality; fill-rule:evenodd; clip-rule:evenodd" xmlns:xlink="http://www.w3.org/1999/xlink">
<g><path style="opacity:0.942" fill="#000000" d="M 319.5,-0.5 C 322.5,-0.5 325.5,-0.5 328.5,-0.5C 342.689,11.8486 357.356,23.6819 372.5,35C 376.947,40.9807 376.281,46.314 370.5,51C 355.833,62.3333 341.167,73.6667 326.5,85C 318,85.8333 314.167,82 315,73.5C 316.793,70.7047 318.96,68.2047 321.5,66C 327.5,61.3333 333.5,56.6667 339.5,52C 247.167,51.3333 154.833,51.3333 62.5,52C 57.6667,54.1667 54.1667,57.6667 52,62.5C 51.9382,74.5705 51.2715,86.5705 50,98.5C 44.2357,104.075 38.9023,103.742 34,97.5C 33.3333,84.8333 33.3333,72.1667 34,59.5C 37.8333,46.3333 46.3333,37.8333 59.5,34C 153.167,33.6667 246.833,33.3333 340.5,33C 332.757,26.7128 324.924,20.5461 317,14.5C 313.273,8.64648 314.106,3.64648 319.5,-0.5 Z"/></g>
<g><path style="opacity:0.942" fill="#000000" d="M 511.5,319.5 C 511.5,322.5 511.5,325.5 511.5,328.5C 499.151,342.689 487.318,357.356 476,372.5C 470.019,376.947 464.686,376.281 460,370.5C 448.667,355.833 437.333,341.167 426,326.5C 425.167,318 429,314.167 437.5,315C 440.295,316.793 442.795,318.96 445,321.5C 449.667,327.5 454.333,333.5 459,339.5C 459.667,247.167 459.667,154.833 459,62.5C 456.833,57.6667 453.333,54.1667 448.5,52C 436.43,51.9382 424.43,51.2715 412.5,50C 406.925,44.2357 407.258,38.9023 413.5,34C 426.167,33.3333 438.833,33.3333 451.5,34C 464.667,37.8333 473.167,46.3333 477,59.5C 477.333,153.167 477.667,246.833 478,340.5C 484.287,332.757 490.454,324.924 496.5,317C 502.354,313.273 507.354,314.106 511.5,319.5 Z"/></g>
<g><path style="opacity:0.941" fill="#000000" d="M 244.5,84.5 C 251.841,84.3337 259.174,84.5003 266.5,85C 270.066,85.6998 272.9,87.5332 275,90.5C 277.038,95.4077 279.205,100.241 281.5,105C 286.388,106.694 291.222,108.528 296,110.5C 301.206,107.811 306.706,106.144 312.5,105.5C 315.795,105.295 318.795,106.128 321.5,108C 327.41,113.239 332.577,119.072 337,125.5C 337.839,133.321 336.006,140.488 331.5,147C 334.245,151.565 336.411,156.398 338,161.5C 342.9,163.469 347.733,165.635 352.5,168C 355.672,170.828 357.505,174.328 358,178.5C 363.062,196.728 356.562,208.062 338.5,212.5C 336.3,217.733 333.967,222.899 331.5,228C 335.866,234.21 337.7,241.043 337,248.5C 332.087,257.747 324.92,264.581 315.5,269C 308.528,269.012 302.028,267.178 296,263.5C 291.089,266.192 285.923,268.192 280.5,269.5C 279.133,276.735 275.799,282.901 270.5,288C 268.564,288.813 266.564,289.313 264.5,289.5C 264.5,295.167 264.5,300.833 264.5,306.5C 292.169,306.333 319.835,306.5 347.5,307C 362.722,312.929 369.055,324.095 366.5,340.5C 373.841,340.334 381.174,340.5 388.5,341C 395.975,343.478 400.142,348.644 401,356.5C 401.667,368.833 401.667,381.167 401,393.5C 400.464,400.076 397.297,404.909 391.5,408C 380.402,409.134 369.235,409.634 358,409.5C 347.833,409.333 337.667,409.167 327.5,409C 320.93,406.762 316.763,402.262 315,395.5C 314.333,381.833 314.333,368.167 315,354.5C 316.763,347.738 320.93,343.238 327.5,341C 334.492,340.5 341.492,340.334 348.5,340.5C 348.665,336.818 348.499,333.152 348,329.5C 347.167,327.333 345.667,325.833 343.5,325C 317.169,324.5 290.835,324.333 264.5,324.5C 264.5,329.833 264.5,335.167 264.5,340.5C 271.841,340.334 279.174,340.5 286.5,341C 292.333,342.833 296.167,346.667 298,352.5C 298.667,367.5 298.667,382.5 298,397.5C 296.037,403.731 291.87,407.564 285.5,409C 265.5,409.667 245.5,409.667 225.5,409C 219.13,407.564 214.963,403.731 213,397.5C 212.333,382.5 212.333,367.5 213,352.5C 214.833,346.667 218.667,342.833 224.5,341C 231.826,340.5 239.159,340.334 246.5,340.5C 246.5,335.167 246.5,329.833 246.5,324.5C 220.165,324.333 193.831,324.5 167.5,325C 165.333,325.833 163.833,327.333 163,329.5C 162.501,333.152 162.335,336.818 162.5,340.5C 169.508,340.334 176.508,340.5 183.5,341C 190.097,343.263 194.264,347.763 196,354.5C 196.667,368.167 196.667,381.833 196,395.5C 194.237,402.262 190.07,406.762 183.5,409C 173.333,409.167 163.167,409.333 153,409.5C 141.765,409.634 130.598,409.134 119.5,408C 113.703,404.909 110.536,400.076 110,393.5C 109.333,381.167 109.333,368.833 110,356.5C 110.858,348.644 115.025,343.478 122.5,341C 129.826,340.5 137.159,340.334 144.5,340.5C 141.761,325.488 147.094,314.655 160.5,308C 189.103,306.525 217.77,306.025 246.5,306.5C 246.5,300.833 246.5,295.167 246.5,289.5C 241.924,289.432 238.424,287.432 236,283.5C 234.165,278.496 231.831,273.829 229,269.5C 224.323,267.912 219.823,265.912 215.5,263.5C 209.249,267.087 202.582,268.921 195.5,269C 186.08,264.581 178.913,257.747 174,248.5C 172.915,241.99 174.248,235.99 178,230.5C 177.505,224.176 175.672,218.176 172.5,212.5C 154.457,208.104 147.957,196.771 153,178.5C 153.651,174.363 155.485,170.863 158.5,168C 163.167,166 167.833,164 172.5,162C 174.447,156.83 176.78,151.83 179.5,147C 174.994,140.488 173.161,133.321 174,125.5C 179.167,117.667 185.667,111.167 193.5,106C 196.833,105.333 200.167,105.333 203.5,106C 207.278,107.639 211.111,109.139 215,110.5C 219.778,108.528 224.612,106.694 229.5,105C 231.795,100.241 233.962,95.4077 236,90.5C 238.322,87.6047 241.155,85.6047 244.5,84.5 Z M 250.5,102.5 C 253.898,102.18 257.232,102.513 260.5,103.5C 262.705,108.741 265.038,113.908 267.5,119C 276.869,122.437 286.036,126.27 295,130.5C 300.779,128.177 306.613,126.344 312.5,125C 314.684,127.016 316.684,129.183 318.5,131.5C 314.873,137.392 313.04,143.725 313,150.5C 317.444,158.501 321.111,166.835 324,175.5C 329.251,178.028 334.584,180.361 340,182.5C 340.498,185.817 340.665,189.15 340.5,192.5C 335.343,193.831 330.343,195.664 325.5,198C 323.951,199.214 322.785,200.714 322,202.5C 319.968,210.27 316.968,217.603 313,224.5C 313.475,230.982 315.308,237.149 318.5,243C 316.888,245.616 314.888,247.95 312.5,250C 307.88,248.568 303.213,246.902 298.5,245C 296.167,244.333 293.833,244.333 291.5,245C 284.214,249.141 276.547,252.475 268.5,255C 265.087,259.661 262.587,264.828 261,270.5C 257.333,273.167 253.667,273.167 250,270.5C 248.413,264.828 245.913,259.661 242.5,255C 234.453,252.475 226.786,249.141 219.5,245C 217.167,244.333 214.833,244.333 212.5,245C 207.787,246.902 203.12,248.568 198.5,250C 196.112,247.95 194.112,245.616 192.5,243C 194.897,237.808 196.897,232.475 198.5,227C 194.666,219.153 191.499,210.987 189,202.5C 188.215,200.714 187.049,199.214 185.5,198C 180.657,195.664 175.657,193.831 170.5,192.5C 170.335,189.15 170.502,185.817 171,182.5C 176.416,180.361 181.749,178.028 187,175.5C 189.889,166.835 193.556,158.501 198,150.5C 198.667,148.5 198.667,146.5 198,144.5C 195.704,139.939 194.037,135.272 193,130.5C 195.05,128.112 197.384,126.112 200,124.5C 205.234,126.784 210.567,128.784 216,130.5C 225.202,126.233 234.535,122.233 244,118.5C 246.456,113.259 248.623,107.925 250.5,102.5 Z M 250.5,153.5 C 273.22,153.388 286.22,164.555 289.5,187C 287.768,204.056 278.768,215.056 262.5,220C 242.701,222.357 229.534,214.191 223,195.5C 220.305,173.701 229.471,159.701 250.5,153.5 Z M 127.5,358.5 C 144.5,358.5 161.5,358.5 178.5,358.5C 178.5,369.5 178.5,380.5 178.5,391.5C 161.5,391.5 144.5,391.5 127.5,391.5C 127.5,380.5 127.5,369.5 127.5,358.5 Z M 230.5,358.5 C 247.167,358.5 263.833,358.5 280.5,358.5C 280.5,369.5 280.5,380.5 280.5,391.5C 263.833,391.5 247.167,391.5 230.5,391.5C 230.5,380.5 230.5,369.5 230.5,358.5 Z M 332.5,358.5 C 349.5,358.5 366.5,358.5 383.5,358.5C 383.5,369.5 383.5,380.5 383.5,391.5C 366.5,391.5 349.5,391.5 332.5,391.5C 332.5,380.5 332.5,369.5 332.5,358.5 Z"/></g>
<g><path style="opacity:0.942" fill="#000000" d="M -0.5,191.5 C -0.5,188.5 -0.5,185.5 -0.5,182.5C 11.8486,168.311 23.6819,153.644 35,138.5C 40.9313,134.219 46.2647,134.885 51,140.5C 62.3333,155.167 73.6667,169.833 85,184.5C 85.4653,194.367 80.9653,197.867 71.5,195C 64.6423,187.443 58.1423,179.61 52,171.5C 51.3333,263.833 51.3333,356.167 52,448.5C 54.1667,453.333 57.6667,456.833 62.5,459C 73.5,459.333 84.5,459.667 95.5,460C 102.869,463.315 104.369,468.482 100,475.5C 99.2496,476.126 98.4162,476.626 97.5,477C 84.8333,477.667 72.1667,477.667 59.5,477C 46.3333,473.167 37.8333,464.667 34,451.5C 33.6667,357.833 33.3333,264.167 33,170.5C 26.7128,178.243 20.5461,186.076 14.5,194C 8.64648,197.727 3.64648,196.894 -0.5,191.5 Z"/></g>
<g><path style="opacity:0.935" fill="#000000" d="M 248.5,135.5 C 278.002,134.192 297.169,147.526 306,175.5C 310.225,207.895 296.725,228.728 265.5,238C 234.406,241.195 214.239,228.028 205,198.5C 201.273,164.752 215.773,143.752 248.5,135.5 Z M 250.5,153.5 C 229.471,159.701 220.305,173.701 223,195.5C 229.534,214.191 242.701,222.357 262.5,220C 278.768,215.056 287.768,204.056 289.5,187C 286.22,164.555 273.22,153.388 250.5,153.5 Z"/></g>
<g><path style="opacity:0.941" fill="#000000" d="M 191.5,511.5 C 188.5,511.5 185.5,511.5 182.5,511.5C 168.311,499.151 153.644,487.318 138.5,476C 134.053,470.019 134.719,464.686 140.5,460C 155.167,448.667 169.833,437.333 184.5,426C 193,425.167 196.833,429 196,437.5C 194.207,440.295 192.04,442.795 189.5,445C 183.5,449.667 177.5,454.333 171.5,459C 263.5,459.667 355.5,459.667 447.5,459C 452.185,457.65 455.685,454.817 458,450.5C 459.27,438.904 459.936,427.238 460,415.5C 463.396,408.371 468.563,406.871 475.5,411C 476.126,411.75 476.626,412.584 477,413.5C 477.667,426.167 477.667,438.833 477,451.5C 473.167,464.667 464.667,473.167 451.5,477C 357.833,477.333 264.167,477.667 170.5,478C 178.606,483.805 186.439,489.972 194,496.5C 197.727,502.354 196.894,507.354 191.5,511.5 Z"/></g>
</svg>
