<?xml version="1.0" encoding="UTF-8"?>
<!DOCTYPE svg PUBLIC "-//W3C//DTD SVG 1.1//EN" "http://www.w3.org/Graphics/SVG/1.1/DTD/svg11.dtd">
<svg xmlns="http://www.w3.org/2000/svg" version="1.1" width="512px" height="512px" style="shape-rendering:geometricPrecision; text-rendering:geometricPrecision; image-rendering:optimizeQuality; fill-rule:evenodd; clip-rule:evenodd" xmlns:xlink="http://www.w3.org/1999/xlink">
<g><path style="opacity:0.941" fill="#000000" d="M 74.5,-0.5 C 82.8333,-0.5 91.1667,-0.5 99.5,-0.5C 116.003,2.24976 130.67,9.08309 143.5,20C 150.032,26.1975 156.199,32.6975 162,39.5C 177.457,18.1746 197.957,4.84126 223.5,-0.5C 232.167,-0.5 240.833,-0.5 249.5,-0.5C 258.083,1.23887 266.417,4.07221 274.5,8C 278.13,11.0498 279.297,14.8831 278,19.5C 263.863,34.638 249.363,49.4713 234.5,64C 277.728,62.6782 307.561,81.8449 324,121.5C 325.035,126.738 323.202,130.571 318.5,133C 298.167,133.333 277.833,133.667 257.5,134C 287.905,163.792 294.738,198.292 278,237.5C 273.014,242.561 267.848,242.728 262.5,238C 237,212.5 211.5,187 186,161.5C 175.438,250.185 148.271,333.351 104.5,411C 112.471,415.655 120.471,420.321 128.5,425C 256.166,425.5 383.833,425.667 511.5,425.5C 511.5,431.5 511.5,437.5 511.5,443.5C 393.166,443.333 274.833,443.5 156.5,444C 176.761,459.593 195.095,477.26 211.5,497C 207.275,500.896 202.775,504.396 198,507.5C 189.87,499.702 182.037,491.535 174.5,483C 150.763,460.605 124.263,442.105 95,427.5C 88.6972,437.46 82.0305,447.127 75,456.5C 70.2587,453.878 65.7587,450.878 61.5,447.5C 60.479,446.998 60.3123,446.332 61,445.5C 123.439,354.528 159.106,253.861 168,143.5C 166,141.5 164,139.5 162,137.5C 159,140.5 156,143.5 153,146.5C 144.513,250.371 107.346,342.204 41.5,422C 40.5,422.667 39.5,422.667 38.5,422C 34.5,418.667 30.5,415.333 26.5,412C 27.7899,409.708 29.4565,407.708 31.5,406C 21.7296,402.983 11.7296,401.149 1.5,400.5C 2.16667,394.5 2.83333,388.5 3.5,382.5C 16.6971,383.673 29.6971,386.006 42.5,389.5C 45.4936,387.338 47.9936,384.672 50,381.5C 95.4296,317.227 122.763,245.894 132,167.5C 107.195,191.305 82.6947,215.472 58.5,240C 53.0271,242.638 48.5271,241.472 45,236.5C 28.8342,197.342 36.0009,163.175 66.5,134C 46.1667,133.667 25.8333,133.333 5.5,133C 2.64986,131.979 0.649863,130.146 -0.5,127.5C -0.5,125.167 -0.5,122.833 -0.5,120.5C 16.4025,82.0253 46.0691,63.192 88.5,64C 73.9707,49.8046 59.8041,35.3046 46,20.5C 44.1208,15.5202 45.2875,11.3535 49.5,8C 57.5834,4.07221 65.9168,1.23887 74.5,-0.5 Z M 77.5,17.5 C 98.5201,15.2302 116.853,21.0636 132.5,35C 140.148,41.474 146.482,48.974 151.5,57.5C 147.919,66.1564 145.753,75.1564 145,84.5C 137.383,77.9389 128.883,72.7722 119.5,69C 103.167,52.6667 86.8333,36.3333 70.5,20C 72.9269,19.0977 75.2603,18.2644 77.5,17.5 Z M 226.5,17.5 C 233.175,17.3337 239.842,17.5004 246.5,18C 248.715,18.1705 250.715,18.8372 252.5,20C 236.138,36.0285 220.138,52.3618 204.5,69C 188.142,75.3565 174.642,85.5232 164,99.5C 161.457,81.0058 165.79,64.3392 177,49.5C 186.483,37.6711 197.983,28.5045 211.5,22C 216.535,20.1506 221.535,18.6506 226.5,17.5 Z M 70.5,82.5 C 91.8153,79.4617 111.482,83.6284 129.5,95C 134.5,98.6667 138.833,103 142.5,108C 125.209,105.77 108.543,108.104 92.5,115C 69.1667,115.667 45.8333,115.667 22.5,115C 33.7878,97.213 49.7878,86.3797 70.5,82.5 Z M 224.5,82.5 C 253.595,78.0273 277.762,86.694 297,108.5C 298.366,110.37 299.533,112.37 300.5,114.5C 277.174,115.666 253.84,115.833 230.5,115C 224.773,112.202 218.773,110.202 212.5,109C 202.131,107.568 191.798,107.068 181.5,107.5C 192.734,93.7202 207.067,85.3868 224.5,82.5 Z M 119.5,125.5 C 128.303,125.027 136.97,125.861 145.5,128C 116.305,157.528 86.8055,186.695 57,215.5C 51.972,195.641 55.3053,177.307 67,160.5C 76.7789,147.38 88.9455,137.214 103.5,130C 108.874,128.16 114.207,126.66 119.5,125.5 Z M 187.5,125.5 C 213.865,124.434 235.365,134.101 252,154.5C 267.337,172.354 272.17,192.687 266.5,215.5C 237.014,186.514 207.68,157.347 178.5,128C 181.678,127.34 184.678,126.507 187.5,125.5 Z"/></g>
<g><path style="opacity:0.935" fill="#000000" d="M 371.5,237.5 C 409.581,238.279 437.081,255.612 454,289.5C 468.639,331.466 458.806,366.299 424.5,394C 391.506,414.666 358.506,414.666 325.5,394C 291.495,366.166 281.662,331.332 296,289.5C 311.552,258.102 336.718,240.768 371.5,237.5 Z M 372.5,255.5 C 407.983,256.975 430.816,274.642 441,308.5C 446.226,343.883 433.06,369.716 401.5,386C 362.061,398.419 332.561,386.585 313,350.5C 301.137,315.759 309.971,287.592 339.5,266C 349.798,259.851 360.798,256.351 372.5,255.5 Z"/></g>
<g><path style="opacity:0.897" fill="#000000" d="M 101.5,459.5 C 107.5,459.5 113.5,459.5 119.5,459.5C 119.5,465.5 119.5,471.5 119.5,477.5C 113.5,477.5 107.5,477.5 101.5,477.5C 101.5,471.5 101.5,465.5 101.5,459.5 Z"/></g>
<g><path style="opacity:0.944" fill="#000000" d="M 289.5,459.5 C 346.5,459.5 403.5,459.5 460.5,459.5C 460.5,465.5 460.5,471.5 460.5,477.5C 403.5,477.5 346.5,477.5 289.5,477.5C 289.5,471.5 289.5,465.5 289.5,459.5 Z"/></g>
<g><path style="opacity:0.897" fill="#000000" d="M 50.5,476.5 C 56.5,476.5 62.5,476.5 68.5,476.5C 68.5,482.5 68.5,488.5 68.5,494.5C 62.5,494.5 56.5,494.5 50.5,494.5C 50.5,488.5 50.5,482.5 50.5,476.5 Z"/></g>
<g><path style="opacity:0.933" fill="#000000" d="M 424.5,511.5 C 391.5,511.5 358.5,511.5 325.5,511.5C 325.5,505.5 325.5,499.5 325.5,493.5C 358.5,493.5 391.5,493.5 424.5,493.5C 424.5,499.5 424.5,505.5 424.5,511.5 Z"/></g>
</svg>
