<svg xmlns="http://www.w3.org/2000/svg" width="533" height="533" fill-rule="evenodd" xmlns:v="https://vecta.io/nano"><path d="M168.27 168.25c.442 1.139 68.955 99.258 74.192 106.25l2.247 3-22.422 25.5-38.104 43.325-16.016 18.75c-.19.526 3.694.909 9 .888l9.333-.037 31.462-35.988 33.5-37.87c2.027-1.872 2.178-1.682 28.538 36.012l26.5 37.894 29.75.013c18.122.008 29.75-.358 29.75-.937 0-.815-14.294-21.376-68.8-98.965-9.929-14.133-10.093-14.458-8.413-16.652.942-1.231 15.888-18.328 33.213-37.994l38-43.848c0-.325-4.163-.573-9.25-.55l-9.25.04-28.5 32.463-31.599 36.077-3.098 3.614-21.989-31.367-25.344-36.118-3.355-4.75h-29.914c-23.524 0-29.812.267-29.431 1.25m27.489 16.5c1.61 2.063 29.336 40.762 61.615 86L316.061 353h12.549 12.548l-3.829-5.368L276 261.655l-57.5-80.609-12.834-.023-12.834-.023 2.927 3.75" fill="#fcfcfc"/><path d="M217.5 45.044c-14.85.395-32.85 1.261-40 1.924-56.943 5.283-87.377 24.03-107.467 66.2-9.075 19.05-16.311 51.059-20.081 88.832-2.665 26.708-1.889 137.247 1.166 166 4.687 44.119 26.286 80.588 58.346 98.517 24.151 13.506 60.98 20.248 120.536 22.067 26.319.804 129.508-2.136 144.494-4.116 51.184-6.763 81.931-31.808 97.526-79.44 11.017-33.649 14.063-72.794 12.063-155.028-1.3-53.479-3.268-85.189-6.172-99.435-2.087-10.245-7.218-25.212-11.675-34.065-13.572-26.952-42.348-51.232-72.738-61.375-11.681-3.899-35.936-8.734-50.498-10.066-12.553-1.149-82.557-1.157-125.5-.015M168.27 168.25c.442 1.139 68.955 99.258 74.192 106.25l2.247 3-22.422 25.5-38.104 43.325-16.016 18.75c-.19.526 3.694.909 9 .888l9.333-.037 31.462-35.988 33.5-37.87c2.027-1.872 2.178-1.682 28.538 36.012l26.5 37.894 29.75.013c18.122.008 29.75-.358 29.75-.937 0-.815-14.294-21.376-68.8-98.965-9.929-14.133-10.093-14.458-8.413-16.652.942-1.231 15.888-18.328 33.213-37.994l38-43.848c0-.325-4.163-.573-9.25-.55l-9.25.04-28.5 32.463-31.599 36.077-3.098 3.614-21.989-31.367-25.344-36.118-3.355-4.75h-29.914c-23.524 0-29.812.267-29.431 1.25m27.489 16.5c1.61 2.063 29.336 40.762 61.615 86L316.061 353h12.549 12.548l-3.829-5.368L276 261.655l-57.5-80.609-12.834-.023-12.834-.023 2.927 3.75" fill="#7c7c7c"/></svg>